{
.appVersion = "1141";
date = "2011-05-25 19:46:57 +0000";
familyName = Orbitron;
fontMaster = (
{
ascender = 750;
capHeight = 720;
descender = -250;
id = "ACB831E3-B1BC-4748-8FBD-8E58483131F2";
weight = Light;
weightValue = 300;
widthValue = 5;
xHeight = 580;
}
);
glyphs = (
{
glyphname = a;
layers = (
{
layerId = "ACB831E3-B1BC-4748-8FBD-8E58483131F2";
paths = (
{
closed = 1;
nodes = (
"52 498 LINE",
"521 498 LINE SMOOTH",
"543 498 OFFCURVE",
"560 480 OFFCURVE",
"560 459 CURVE SMOOTH",
"560 331 LINE",
"52 331 LINE",
"52 121 LINE SMOOTH",
"52 54 OFFCURVE",
"106 0 OFFCURVE",
"173 0 CURVE SMOOTH",
"643 0 LINE",
"643 459 LINE SMOOTH",
"643 526 OFFCURVE",
"589 580 OFFCURVE",
"521 580 CURVE SMOOTH",
"52 580 LINE"
);
},
{
closed = 1;
nodes = (
"173 82 LINE SMOOTH",
"152 82 OFFCURVE",
"134 100 OFFCURVE",
"134 121 CURVE SMOOTH",
"134 249 LINE",
"560 249 LINE",
"560 82 LINE"
);
}
);
width = 694;
}
);
unicode = 0061;
},
{
glyphname = a.alt;
layers = (
{
layerId = "ACB831E3-B1BC-4748-8FBD-8E58483131F2";
paths = (
{
closed = 1;
nodes = (
"105 580 OFFCURVE",
"51 526 OFFCURVE",
"51 459 CURVE SMOOTH",
"51 121 LINE SMOOTH",
"51 54 OFFCURVE",
"105 0 OFFCURVE",
"172 0 CURVE SMOOTH",
"642 0 LINE",
"642 459 LINE SMOOTH",
"642 526 OFFCURVE",
"588 580 OFFCURVE",
"520 580 CURVE SMOOTH",
"172 580 LINE SMOOTH"
);
},
{
closed = 1;
nodes = (
"151 82 OFFCURVE",
"133 100 OFFCURVE",
"133 121 CURVE SMOOTH",
"133 459 LINE SMOOTH",
"133 480 OFFCURVE",
"151 498 OFFCURVE",
"172 498 CURVE SMOOTH",
"520 498 LINE SMOOTH",
"542 498 OFFCURVE",
"559 480 OFFCURVE",
"559 459 CURVE SMOOTH",
"559 82 LINE",
"172 82 LINE SMOOTH"
);
}
);
width = 693;
}
);
},
{
glyphname = a.sc;
layers = (
{
layerId = "ACB831E3-B1BC-4748-8FBD-8E58483131F2";
paths = (
{
closed = 1;
nodes = (
"107 580 OFFCURVE",
"53 526 OFFCURVE",
"53 459 CURVE SMOOTH",
"53 0 LINE",
"135 0 LINE",
"135 160 LINE",
"593 160 LINE",
"593 0 LINE",
"675 0 LINE",
"675 459 LINE SMOOTH",
"675 526 OFFCURVE",
"621 580 OFFCURVE",
"554 580 CURVE SMOOTH",
"174 580 LINE SMOOTH"
);
},
{
closed = 1;
nodes = (
"135 459 LINE SMOOTH",
"135 480 OFFCURVE",
"153 498 OFFCURVE",
"174 498 CURVE SMOOTH",
"554 498 LINE SMOOTH",
"575 498 OFFCURVE",
"593 480 OFFCURVE",
"593 459 CURVE SMOOTH",
"593 243 LINE",
"135 243 LINE"
);
}
);
width = 725;
}
);
},
{
glyphname = A.alt2;
layers = (
{
layerId = "ACB831E3-B1BC-4748-8FBD-8E58483131F2";
paths = (
{
closed = 1;
nodes = (
"54 0 LINE",
"137 0 LINE",
"137 202 LINE",
"499 202 LINE",
"670 0 LINE",
"778 0 LINE",
"166 721 LINE",
"54 721 LINE"
);
},
{
closed = 1;
nodes = (
"432 285 LINE",
"137 285 LINE",
"137 629 LINE"
);
}
);
width = 774;
}
);
},
{
glyphname = A.alt;
layers = (
{
layerId = "ACB831E3-B1BC-4748-8FBD-8E58483131F2";
paths = (
{
closed = 1;
nodes = (
"281 202 LINE",
"645 202 LINE",
"645 0 LINE",
"728 0 LINE",
"728 721 LINE",
"616 721 LINE",
"4 0 LINE",
"111 0 LINE"
);
},
{
closed = 1;
nodes = (
"645 285 LINE",
"351 285 LINE",
"645 629 LINE"
);
}
);
width = 774;
}
);
},
{
glyphname = A;
layers = (
{
layerId = "ACB831E3-B1BC-4748-8FBD-8E58483131F2";
paths = (
{
closed = 1;
nodes = (
"111 720 OFFCURVE",
"58 667 OFFCURVE",
"58 600 CURVE SMOOTH",
"58 0 LINE",
"139 0 LINE",
"139 263 LINE",
"697 263 LINE",
"697 0 LINE",
"778 0 LINE",
"778 600 LINE SMOOTH",
"778 667 OFFCURVE",
"725 720 OFFCURVE",
"658 720 CURVE SMOOTH",
"178 720 LINE SMOOTH"
);
},
{
closed = 1;
nodes = (
"139 600 LINE SMOOTH",
"139 621 OFFCURVE",
"157 639 OFFCURVE",
"178 639 CURVE SMOOTH",
"658 639 LINE SMOOTH",
"679 639 OFFCURVE",
"697 621 OFFCURVE",
"697 600 CURVE SMOOTH",
"697 344 LINE",
"139 344 LINE"
);
}
);
width = 836;
}
);
unicode = 0041;
},
{
glyphname = aacute;
layers = (
{
layerId = "ACB831E3-B1BC-4748-8FBD-8E58483131F2";
paths = (
{
closed = 1;
nodes = (
"52 498 LINE",
"521 498 LINE SMOOTH",
"543 498 OFFCURVE",
"560 480 OFFCURVE",
"560 459 CURVE SMOOTH",
"560 331 LINE",
"52 331 LINE",
"52 121 LINE SMOOTH",
"52 54 OFFCURVE",
"106 0 OFFCURVE",
"173 0 CURVE SMOOTH",
"643 0 LINE",
"643 459 LINE SMOOTH",
"643 526 OFFCURVE",
"589 580 OFFCURVE",
"521 580 CURVE SMOOTH",
"52 580 LINE"
);
},
{
closed = 1;
nodes = (
"173 82 LINE SMOOTH",
"152 82 OFFCURVE",
"134 100 OFFCURVE",
"134 121 CURVE SMOOTH",
"134 249 LINE",
"560 249 LINE",
"560 82 LINE"
);
},
{
closed = 1;
nodes = (
"368 763 LINE",
"402 902 LINE",
"323 902 LINE",
"288 763 LINE"
);
}
);
width = 725;
}
);
unicode = 00E1;
},
{
glyphname = Aacute;
layers = (
{
layerId = "ACB831E3-B1BC-4748-8FBD-8E58483131F2";
paths = (
{
closed = 1;
nodes = (
"111 720 OFFCURVE",
"58 667 OFFCURVE",
"58 600 CURVE SMOOTH",
"58 0 LINE",
"139 0 LINE",
"139 263 LINE",
"697 263 LINE",
"697 0 LINE",
"778 0 LINE",
"778 600 LINE SMOOTH",
"778 667 OFFCURVE",
"725 720 OFFCURVE",
"658 720 CURVE SMOOTH",
"178 720 LINE SMOOTH"
);
},
{
closed = 1;
nodes = (
"139 600 LINE SMOOTH",
"139 621 OFFCURVE",
"157 639 OFFCURVE",
"178 639 CURVE SMOOTH",
"658 639 LINE SMOOTH",
"679 639 OFFCURVE",
"697 621 OFFCURVE",
"697 600 CURVE SMOOTH",
"697 344 LINE",
"139 344 LINE"
);
},
{
closed = 1;
nodes = (
"424 864 LINE",
"458 1003 LINE",
"379 1003 LINE",
"344 864 LINE"
);
}
);
width = 836;
}
);
unicode = 00C1;
},
{
glyphname = A.alt3;
layers = (
{
layerId = "ACB831E3-B1BC-4748-8FBD-8E58483131F2";
paths = (
{
closed = 1;
nodes = (
"708 243 OFFCURVE",
"581 477 OFFCURVE",
"452 720 CURVE",
"358 720 LINE",
"225 472 OFFCURVE",
"104 248 OFFCURVE",
"-28 0 CURVE",
"67 0 LINE",
"100 58 OFFCURVE",
"141 125 OFFCURVE",
"173 183 CURVE",
"637 183 LINE",
"742 0 LINE",
"837 0 LINE"
);
},
{
closed = 1;
nodes = (
"588 264 LINE",
"220 264 LINE",
"405 644 LINE"
);
}
);
width = 827;
}
);
},
{
glyphname = acircumflex;
layers = (
{
layerId = "ACB831E3-B1BC-4748-8FBD-8E58483131F2";
paths = (
{
closed = 1;
nodes = (
"52 498 LINE",
"521 498 LINE SMOOTH",
"543 498 OFFCURVE",
"560 480 OFFCURVE",
"560 459 CURVE SMOOTH",
"560 331 LINE",
"52 331 LINE",
"52 121 LINE SMOOTH",
"52 54 OFFCURVE",
"106 0 OFFCURVE",
"173 0 CURVE SMOOTH",
"643 0 LINE",
"643 459 LINE SMOOTH",
"643 526 OFFCURVE",
"589 580 OFFCURVE",
"521 580 CURVE SMOOTH",
"52 580 LINE"
);
},
{
closed = 1;
nodes = (
"173 82 LINE SMOOTH",
"152 82 OFFCURVE",
"134 100 OFFCURVE",
"134 121 CURVE SMOOTH",
"134 249 LINE",
"560 249 LINE",
"560 82 LINE"
);
},
{
closed = 1;
nodes = (
"341 848 LINE",
"399 763 LINE",
"441 763 LINE",
"370 880 LINE",
"311 880 LINE",
"240 763 LINE",
"281 763 LINE"
);
}
);
width = 725;
}
);
unicode = 00E2;
},
{
glyphname = acute;
layers = (
{
layerId = "ACB831E3-B1BC-4748-8FBD-8E58483131F2";
paths = (
{
closed = 1;
nodes = (
"113 872 LINE",
"147 1011 LINE",
"68 1011 LINE",
"33 872 LINE"
);
}
);
width = 213;
}
);
unicode = 00B4;
},
{
glyphname = adieresis;
layers = (
{
layerId = "ACB831E3-B1BC-4748-8FBD-8E58483131F2";
paths = (
{
closed = 1;
nodes = (
"52 498 LINE",
"521 498 LINE SMOOTH",
"543 498 OFFCURVE",
"560 480 OFFCURVE",
"560 459 CURVE SMOOTH",
"560 331 LINE",
"52 331 LINE",
"52 121 LINE SMOOTH",
"52 54 OFFCURVE",
"106 0 OFFCURVE",
"173 0 CURVE SMOOTH",
"643 0 LINE",
"643 459 LINE SMOOTH",
"643 526 OFFCURVE",
"589 580 OFFCURVE",
"521 580 CURVE SMOOTH",
"52 580 LINE"
);
},
{
closed = 1;
nodes = (
"173 82 LINE SMOOTH",
"152 82 OFFCURVE",
"134 100 OFFCURVE",
"134 121 CURVE SMOOTH",
"134 249 LINE",
"560 249 LINE",
"560 82 LINE"
);
},
{
closed = 1;
nodes = (
"403 845 LINE",
"403 763 LINE",
"485 763 LINE",
"485 845 LINE"
);
},
{
closed = 1;
nodes = (
"223 845 LINE",
"223 763 LINE",
"306 763 LINE",
"306 845 LINE"
);
}
);
width = 725;
}
);
unicode = 00E4;
},
{
glyphname = Adieresis;
layers = (
{
layerId = "ACB831E3-B1BC-4748-8FBD-8E58483131F2";
paths = (
{
closed = 1;
nodes = (
"111 720 OFFCURVE",
"58 667 OFFCURVE",
"58 600 CURVE SMOOTH",
"58 0 LINE",
"139 0 LINE",
"139 263 LINE",
"697 263 LINE",
"697 0 LINE",
"778 0 LINE",
"778 600 LINE SMOOTH",
"778 667 OFFCURVE",
"725 720 OFFCURVE",
"658 720 CURVE SMOOTH",
"178 720 LINE SMOOTH"
);
},
{
closed = 1;
nodes = (
"139 600 LINE SMOOTH",
"139 621 OFFCURVE",
"157 639 OFFCURVE",
"178 639 CURVE SMOOTH",
"658 639 LINE SMOOTH",
"679 639 OFFCURVE",
"697 621 OFFCURVE",
"697 600 CURVE SMOOTH",
"697 344 LINE",
"139 344 LINE"
);
},
{
closed = 1;
nodes = (
"459 937 LINE",
"459 855 LINE",
"541 855 LINE",
"541 937 LINE"
);
},
{
closed = 1;
nodes = (
"279 937 LINE",
"279 855 LINE",
"362 855 LINE",
"362 937 LINE"
);
}
);
width = 836;
}
);
unicode = 00C4;
},
{
glyphname = ae;
layers = (
{
layerId = "ACB831E3-B1BC-4748-8FBD-8E58483131F2";
paths = (
{
closed = 1;
nodes = (
"53 498 LINE",
"522 498 LINE SMOOTH",
"543 498 OFFCURVE",
"561 480 OFFCURVE",
"561 459 CURVE SMOOTH",
"561 331 LINE",
"53 331 LINE",
"53 121 LINE SMOOTH",
"53 54 OFFCURVE",
"106 0 OFFCURVE",
"174 0 CURVE SMOOTH",
"1151 0 LINE",
"1151 82 LINE",
"682 82 LINE SMOOTH",
"662 82 OFFCURVE",
"645 97 OFFCURVE",
"643 117 CURVE",
"643 249 LINE",
"1151 249 LINE",
"1151 459 LINE SMOOTH",
"1151 526 OFFCURVE",
"1098 580 OFFCURVE",
"1030 580 CURVE SMOOTH",
"53 580 LINE"
);
},
{
closed = 1;
nodes = (
"174 82 LINE SMOOTH",
"153 82 OFFCURVE",
"135 100 OFFCURVE",
"135 121 CURVE SMOOTH",
"135 249 LINE",
"561 249 LINE",
"561 82 LINE"
);
},
{
closed = 1;
nodes = (
"643 459 LINE SMOOTH",
"643 480 OFFCURVE",
"661 498 OFFCURVE",
"682 498 CURVE SMOOTH",
"1030 498 LINE SMOOTH",
"1051 498 OFFCURVE",
"1069 480 OFFCURVE",
"1069 459 CURVE SMOOTH",
"1069 331 LINE",
"643 331 LINE"
);
}
);
width = 1178;
}
);
unicode = 00E6;
},
{
glyphname = AE;
layers = (
{
layerId = "ACB831E3-B1BC-4748-8FBD-8E58483131F2";
paths = (
{
closed = 1;
nodes = (
"1350 639 LINE",
"1350 720 LINE",
"174 720 LINE SMOOTH",
"107 720 OFFCURVE",
"54 667 OFFCURVE",
"54 600 CURVE SMOOTH",
"54 0 LINE",
"135 0 LINE",
"135 263 LINE",
"693 263 LINE",
"693 0 LINE",
"1350 0 LINE",
"1350 81 LINE",
"774 81 LINE",
"774 319 LINE",
"1237 319 LINE",
"1237 401 LINE",
"774 401 LINE",
"774 639 LINE"
);
},
{
closed = 1;
nodes = (
"135 344 LINE",
"135 600 LINE SMOOTH",
"135 621 OFFCURVE",
"153 639 OFFCURVE",
"174 639 CURVE SMOOTH",
"654 639 LINE SMOOTH",
"675 639 OFFCURVE",
"693 621 OFFCURVE",
"693 600 CURVE SMOOTH",
"693 344 LINE"
);
}
);
width = 1375;
}
);
unicode = 00C6;
},
{
glyphname = Acircumflex;
layers = (
{
layerId = "ACB831E3-B1BC-4748-8FBD-8E58483131F2";
paths = (
{
closed = 1;
nodes = (
"111 720 OFFCURVE",
"58 667 OFFCURVE",
"58 600 CURVE SMOOTH",
"58 0 LINE",
"139 0 LINE",
"139 263 LINE",
"697 263 LINE",
"697 0 LINE",
"778 0 LINE",
"778 600 LINE SMOOTH",
"778 667 OFFCURVE",
"725 720 OFFCURVE",
"658 720 CURVE SMOOTH",
"178 720 LINE SMOOTH"
);
},
{
closed = 1;
nodes = (
"139 600 LINE SMOOTH",
"139 621 OFFCURVE",
"157 639 OFFCURVE",
"178 639 CURVE SMOOTH",
"658 639 LINE SMOOTH",
"679 639 OFFCURVE",
"697 621 OFFCURVE",
"697 600 CURVE SMOOTH",
"697 344 LINE",
"139 344 LINE"
);
},
{
closed = 1;
nodes = (
"397 949 LINE",
"455 864 LINE",
"497 864 LINE",
"426 981 LINE",
"367 981 LINE",
"296 864 LINE",
"337 864 LINE"
);
}
);
width = 836;
}
);
unicode = 00C2;
},
{
glyphname = Agrave;
layers = (
{
layerId = "ACB831E3-B1BC-4748-8FBD-8E58483131F2";
paths = (
{
closed = 1;
nodes = (
"111 720 OFFCURVE",
"58 667 OFFCURVE",
"58 600 CURVE SMOOTH",
"58 0 LINE",
"139 0 LINE",
"139 263 LINE",
"697 263 LINE",
"697 0 LINE",
"778 0 LINE",
"778 600 LINE SMOOTH",
"778 667 OFFCURVE",
"725 720 OFFCURVE",
"658 720 CURVE SMOOTH",
"178 720 LINE SMOOTH"
);
},
{
closed = 1;
nodes = (
"139 600 LINE SMOOTH",
"139 621 OFFCURVE",
"157 639 OFFCURVE",
"178 639 CURVE SMOOTH",
"658 639 LINE SMOOTH",
"679 639 OFFCURVE",
"697 621 OFFCURVE",
"697 600 CURVE SMOOTH",
"697 344 LINE",
"139 344 LINE"
);
},
{
closed = 1;
nodes = (
"344 1004 LINE",
"357 953 OFFCURVE",
"366 919 OFFCURVE",
"379 865 CURVE",
"459 865 LINE",
"425 1004 LINE"
);
}
);
width = 836;
}
);
unicode = 00C0;
},
{
glyphname = agrave;
layers = (
{
layerId = "ACB831E3-B1BC-4748-8FBD-8E58483131F2";
paths = (
{
closed = 1;
nodes = (
"52 498 LINE",
"521 498 LINE SMOOTH",
"543 498 OFFCURVE",
"560 480 OFFCURVE",
"560 459 CURVE SMOOTH",
"560 331 LINE",
"52 331 LINE",
"52 121 LINE SMOOTH",
"52 54 OFFCURVE",
"106 0 OFFCURVE",
"173 0 CURVE SMOOTH",
"643 0 LINE",
"643 459 LINE SMOOTH",
"643 526 OFFCURVE",
"589 580 OFFCURVE",
"521 580 CURVE SMOOTH",
"52 580 LINE"
);
},
{
closed = 1;
nodes = (
"173 82 LINE SMOOTH",
"152 82 OFFCURVE",
"134 100 OFFCURVE",
"134 121 CURVE SMOOTH",
"134 249 LINE",
"560 249 LINE",
"560 82 LINE"
);
},
{
closed = 1;
nodes = (
"288 902 LINE",
"301 851 OFFCURVE",
"310 817 OFFCURVE",
"323 763 CURVE",
"403 763 LINE",
"369 902 LINE"
);
}
);
width = 725;
}
);
unicode = 00E0;
},
{
glyphname = aring;
layers = (
{
layerId = "ACB831E3-B1BC-4748-8FBD-8E58483131F2";
paths = (
{
closed = 1;
nodes = (
"52 498 LINE",
"521 498 LINE SMOOTH",
"543 498 OFFCURVE",
"560 480 OFFCURVE",
"560 459 CURVE SMOOTH",
"560 331 LINE",
"52 331 LINE",
"52 121 LINE SMOOTH",
"52 54 OFFCURVE",
"106 0 OFFCURVE",
"173 0 CURVE SMOOTH",
"643 0 LINE",
"643 459 LINE SMOOTH",
"643 526 OFFCURVE",
"589 580 OFFCURVE",
"521 580 CURVE SMOOTH",
"52 580 LINE"
);
},
{
closed = 1;
nodes = (
"173 82 LINE SMOOTH",
"152 82 OFFCURVE",
"134 100 OFFCURVE",
"134 121 CURVE SMOOTH",
"134 249 LINE",
"560 249 LINE",
"560 82 LINE"
);
},
{
closed = 1;
nodes = (
"304 878 OFFCURVE",
"280 854 OFFCURVE",
"280 825 CURVE SMOOTH",
"280 771 LINE SMOOTH",
"280 742 OFFCURVE",
"304 718 OFFCURVE",
"334 718 CURVE SMOOTH",
"390 718 LINE SMOOTH",
"420 718 OFFCURVE",
"444 742 OFFCURVE",
"444 771 CURVE SMOOTH",
"444 825 LINE SMOOTH",
"444 854 OFFCURVE",
"420 878 OFFCURVE",
"390 878 CURVE SMOOTH",
"334 878 LINE SMOOTH"
);
},
{
closed = 1;
nodes = (
"324 758 OFFCURVE",
"320 762 OFFCURVE",
"320 768 CURVE SMOOTH",
"320 828 LINE SMOOTH",
"320 834 OFFCURVE",
"324 838 OFFCURVE",
"329 838 CURVE SMOOTH",
"395 838 LINE SMOOTH",
"400 838 OFFCURVE",
"404 834 OFFCURVE",
"404 828 CURVE SMOOTH",
"404 768 LINE SMOOTH",
"404 762 OFFCURVE",
"400 758 OFFCURVE",
"395 758 CURVE SMOOTH",
"329 758 LINE SMOOTH"
);
}
);
width = 725;
}
);
unicode = 00E5;
},
{
glyphname = ampersand;
layers = (
{
layerId = "ACB831E3-B1BC-4748-8FBD-8E58483131F2";
paths = (
{
closed = 1;
nodes = (
"780 333 LINE",
"698 333 LINE",
"698 194 LINE",
"177 457 LINE",
"177 596 LINE SMOOTH",
"177 617 OFFCURVE",
"195 635 OFFCURVE",
"216 635 CURVE SMOOTH",
"627 635 LINE SMOOTH",
"649 635 OFFCURVE",
"666 617 OFFCURVE",
"666 596 CURVE SMOOTH",
"666 562 LINE",
"749 562 LINE",
"749 617 LINE",
"734 669 OFFCURVE",
"683 719 OFFCURVE",
"627 719 CURVE SMOOTH",
"216 719 LINE SMOOTH",
"149 719 OFFCURVE",
"95 665 OFFCURVE",
"95 597 CURVE SMOOTH",
"95 497 LINE SMOOTH",
"95 470 OFFCURVE",
"104 437 OFFCURVE",
"152 401 CURVE",
"86 401 OFFCURVE",
"53 360 OFFCURVE",
"53 336 CURVE SMOOTH",
"53 121 LINE SMOOTH",
"53 54 OFFCURVE",
"107 0 OFFCURVE",
"174 0 CURVE SMOOTH",
"659 0 LINE SMOOTH",
"710 0 OFFCURVE",
"755 38 OFFCURVE",
"777 93 CURVE",
"914 16 LINE",
"914 88 LINE",
"780 167 LINE"
);
},
{
closed = 1;
nodes = (
"153 82 OFFCURVE",
"135 100 OFFCURVE",
"135 121 CURVE SMOOTH",
"135 336 LINE SMOOTH",
"135 357 OFFCURVE",
"153 375 OFFCURVE",
"174 375 CURVE SMOOTH",
"189 375 LINE",
"699 118 LINE",
"690 97 OFFCURVE",
"673 82 OFFCURVE",
"659 82 CURVE SMOOTH",
"174 82 LINE SMOOTH"
);
}
);
width = 938;
}
);
unicode = 0026;
},
{
glyphname = asciitilde;
layers = (
{
layerId = "ACB831E3-B1BC-4748-8FBD-8E58483131F2";
paths = (
{
closed = 1;
nodes = (
"220 291 OFFCURVE",
"162 354 OFFCURVE",
"86 354 CURVE SMOOTH",
"62 354 OFFCURVE",
"42 351 OFFCURVE",
"24 345 CURVE",
"24 308 LINE",
"44 315 OFFCURVE",
"70 316 OFFCURVE",
"86 316 CURVE SMOOTH",
"167 316 OFFCURVE",
"224 245 OFFCURVE",
"297 245 CURVE SMOOTH",
"321 245 OFFCURVE",
"344 251 OFFCURVE",
"363 258 CURVE",
"363 299 LINE",
"342 289 OFFCURVE",
"320 283 OFFCURVE",
"297 283 CURVE SMOOTH",
"295 283 LINE"
);
}
);
width = 404;
}
);
unicode = 007E;
},
{
glyphname = asterisk;
layers = (
{
layerId = "ACB831E3-B1BC-4748-8FBD-8E58483131F2";
paths = (
{
closed = 1;
nodes = (
"278 566 LINE",
"278 719 LINE",
"196 719 LINE",
"196 565 LINE",
"49 614 LINE",
"25 535 LINE",
"170 488 LINE",
"80 362 LINE",
"105 344 OFFCURVE",
"120 335 OFFCURVE",
"147 315 CURVE",
"237 438 LINE",
"328 315 LINE",
"353 332 OFFCURVE",
"367 344 OFFCURVE",
"394 363 CURVE",
"366 401 OFFCURVE",
"328 453 OFFCURVE",
"304 488 CURVE",
"450 535 LINE",
"423 614 LINE"
);
}
);
width = 491;
}
);
unicode = 002A;
},
{
glyphname = Aring;
layers = (
{
layerId = "ACB831E3-B1BC-4748-8FBD-8E58483131F2";
paths = (
{
closed = 1;
nodes = (
"111 720 OFFCURVE",
"58 667 OFFCURVE",
"58 600 CURVE SMOOTH",
"58 0 LINE",
"139 0 LINE",
"139 263 LINE",
"697 263 LINE",
"697 0 LINE",
"778 0 LINE",
"778 600 LINE SMOOTH",
"778 667 OFFCURVE",
"725 720 OFFCURVE",
"658 720 CURVE SMOOTH",
"178 720 LINE SMOOTH"
);
},
{
closed = 1;
nodes = (
"139 600 LINE SMOOTH",
"139 621 OFFCURVE",
"157 639 OFFCURVE",
"178 639 CURVE SMOOTH",
"658 639 LINE SMOOTH",
"679 639 OFFCURVE",
"697 621 OFFCURVE",
"697 600 CURVE SMOOTH",
"697 344 LINE",
"139 344 LINE"
);
},
{
closed = 1;
nodes = (
"360 981 OFFCURVE",
"336 957 OFFCURVE",
"336 928 CURVE SMOOTH",
"336 874 LINE SMOOTH",
"336 845 OFFCURVE",
"360 821 OFFCURVE",
"390 821 CURVE SMOOTH",
"446 821 LINE SMOOTH",
"476 821 OFFCURVE",
"500 845 OFFCURVE",
"500 874 CURVE SMOOTH",
"500 928 LINE SMOOTH",
"500 957 OFFCURVE",
"476 981 OFFCURVE",
"446 981 CURVE SMOOTH",
"390 981 LINE SMOOTH"
);
},
{
closed = 1;
nodes = (
"380 861 OFFCURVE",
"376 865 OFFCURVE",
"376 871 CURVE SMOOTH",
"376 931 LINE SMOOTH",
"376 937 OFFCURVE",
"380 941 OFFCURVE",
"385 941 CURVE SMOOTH",
"451 941 LINE SMOOTH",
"456 941 OFFCURVE",
"460 937 OFFCURVE",
"460 931 CURVE SMOOTH",
"460 871 LINE SMOOTH",
"460 865 OFFCURVE",
"456 861 OFFCURVE",
"451 861 CURVE SMOOTH",
"385 861 LINE SMOOTH"
);
}
);
width = 836;
}
);
unicode = 00C5;
},
{
glyphname = atilde;
layers = (
{
layerId = "ACB831E3-B1BC-4748-8FBD-8E58483131F2";
paths = (
{
closed = 1;
nodes = (
"52 498 LINE",
"521 498 LINE SMOOTH",
"543 498 OFFCURVE",
"560 480 OFFCURVE",
"560 459 CURVE SMOOTH",
"560 331 LINE",
"52 331 LINE",
"52 121 LINE SMOOTH",
"52 54 OFFCURVE",
"106 0 OFFCURVE",
"173 0 CURVE SMOOTH",
"643 0 LINE",
"643 459 LINE SMOOTH",
"643 526 OFFCURVE",
"589 580 OFFCURVE",
"521 580 CURVE SMOOTH",
"52 580 LINE"
);
},
{
closed = 1;
nodes = (
"173 82 LINE SMOOTH",
"152 82 OFFCURVE",
"134 100 OFFCURVE",
"134 121 CURVE SMOOTH",
"134 249 LINE",
"560 249 LINE",
"560 82 LINE"
);
},
{
closed = 1;
nodes = (
"381 824 OFFCURVE",
"323 886 OFFCURVE",
"248 886 CURVE SMOOTH",
"224 886 OFFCURVE",
"204 883 OFFCURVE",
"186 877 CURVE",
"186 830 LINE",
"206 837 OFFCURVE",
"232 838 OFFCURVE",
"248 838 CURVE SMOOTH",
"330 838 OFFCURVE",
"387 766 OFFCURVE",
"459 766 CURVE SMOOTH",
"483 766 OFFCURVE",
"506 773 OFFCURVE",
"525 780 CURVE",
"525 831 LINE",
"504 821 OFFCURVE",
"482 814 OFFCURVE",
"459 814 CURVE SMOOTH",
"457 814 LINE"
);
}
);
width = 725;
}
);
unicode = 00E3;
},
{
glyphname = at;
layers = (
{
layerId = "ACB831E3-B1BC-4748-8FBD-8E58483131F2";
paths = (
{
closed = 1;
nodes = (
"305 519 OFFCURVE",
"252 465 OFFCURVE",
"252 398 CURVE SMOOTH",
"252 314 LINE SMOOTH",
"252 246 OFFCURVE",
"305 192 OFFCURVE",
"373 192 CURVE SMOOTH",
"784 192 LINE",
"784 598 LINE SMOOTH",
"784 666 OFFCURVE",
"730 720 OFFCURVE",
"663 720 CURVE SMOOTH",
"178 720 LINE SMOOTH",
"110 720 OFFCURVE",
"57 666 OFFCURVE",
"57 598 CURVE SMOOTH",
"57 121 LINE SMOOTH",
"57 54 OFFCURVE",
"110 0 OFFCURVE",
"178 0 CURVE SMOOTH",
"784 0 LINE",
"784 82 LINE",
"178 82 LINE SMOOTH",
"157 82 OFFCURVE",
"139 100 OFFCURVE",
"139 121 CURVE SMOOTH",
"139 598 LINE SMOOTH",
"139 619 OFFCURVE",
"157 637 OFFCURVE",
"178 637 CURVE SMOOTH",
"663 637 LINE SMOOTH",
"684 637 OFFCURVE",
"702 619 OFFCURVE",
"702 598 CURVE SMOOTH",
"702 254 LINE",
"589 254 LINE",
"589 398 LINE SMOOTH",
"589 465 OFFCURVE",
"535 519 OFFCURVE",
"468 519 CURVE SMOOTH",
"373 519 LINE SMOOTH"
);
},
{
closed = 1;
nodes = (
"331 254 OFFCURVE",
"313 271 OFFCURVE",
"313 293 CURVE SMOOTH",
"313 419 LINE SMOOTH",
"313 440 OFFCURVE",
"331 458 OFFCURVE",
"352 458 CURVE SMOOTH",
"489 458 LINE SMOOTH",
"510 458 OFFCURVE",
"528 440 OFFCURVE",
"528 419 CURVE SMOOTH",
"528 254 LINE",
"352 254 LINE SMOOTH"
);
}
);
width = 831;
}
);
unicode = 0040;
},
{
glyphname = Atilde;
layers = (
{
layerId = "ACB831E3-B1BC-4748-8FBD-8E58483131F2";
paths = (
{
closed = 1;
nodes = (
"111 720 OFFCURVE",
"58 667 OFFCURVE",
"58 600 CURVE SMOOTH",
"58 0 LINE",
"139 0 LINE",
"139 263 LINE",
"697 263 LINE",
"697 0 LINE",
"778 0 LINE",
"778 600 LINE SMOOTH",
"778 667 OFFCURVE",
"725 720 OFFCURVE",
"658 720 CURVE SMOOTH",
"178 720 LINE SMOOTH"
);
},
{
closed = 1;
nodes = (
"139 600 LINE SMOOTH",
"139 621 OFFCURVE",
"157 639 OFFCURVE",
"178 639 CURVE SMOOTH",
"658 639 LINE SMOOTH",
"679 639 OFFCURVE",
"697 621 OFFCURVE",
"697 600 CURVE SMOOTH",
"697 344 LINE",
"139 344 LINE"
);
},
{
closed = 1;
nodes = (
"437 927 OFFCURVE",
"379 989 OFFCURVE",
"304 989 CURVE SMOOTH",
"280 989 OFFCURVE",
"260 986 OFFCURVE",
"242 980 CURVE",
"242 933 LINE",
"262 940 OFFCURVE",
"288 941 OFFCURVE",
"304 941 CURVE SMOOTH",
"386 941 OFFCURVE",
"443 869 OFFCURVE",
"515 869 CURVE SMOOTH",
"539 869 OFFCURVE",
"562 876 OFFCURVE",
"581 883 CURVE",
"581 934 LINE",
"560 924 OFFCURVE",
"538 917 OFFCURVE",
"515 917 CURVE SMOOTH",
"513 917 LINE"
);
}
);
width = 836;
}
);
unicode = 00C3;
},
{
glyphname = b;
layers = (
{
layerId = "ACB831E3-B1BC-4748-8FBD-8E58483131F2";
paths = (
{
closed = 1;
nodes = (
"136 770 LINE",
"54 770 LINE",
"54 0 LINE",
"524 0 LINE SMOOTH",
"591 0 OFFCURVE",
"645 54 OFFCURVE",
"645 121 CURVE SMOOTH",
"645 459 LINE SMOOTH",
"645 526 OFFCURVE",
"591 580 OFFCURVE",
"524 580 CURVE SMOOTH",
"136 580 LINE"
);
},
{
closed = 1;
nodes = (
"563 100 OFFCURVE",
"545 82 OFFCURVE",
"524 82 CURVE SMOOTH",
"176 82 LINE SMOOTH",
"154 82 OFFCURVE",
"136 100 OFFCURVE",
"136 121 CURVE SMOOTH",
"136 459 LINE SMOOTH",
"136 480 OFFCURVE",
"154 498 OFFCURVE",
"176 498 CURVE SMOOTH",
"524 498 LINE SMOOTH",
"545 498 OFFCURVE",
"563 480 OFFCURVE",
"563 459 CURVE SMOOTH",
"563 121 LINE SMOOTH"
);
}
);
width = 667;
}
);
unicode = 0062;
},
{
glyphname = b.sc;
layers = (
{
layerId = "ACB831E3-B1BC-4748-8FBD-8E58483131F2";
paths = (
{
closed = 1;
nodes = (
"618 330 OFFCURVE",
"624 348 OFFCURVE",
"624 367 CURVE SMOOTH",
"624 460 LINE SMOOTH",
"624 527 OFFCURVE",
"570 581 OFFCURVE",
"502 581 CURVE SMOOTH",
"54 581 LINE",
"54 0 LINE",
"534 0 LINE SMOOTH",
"601 0 OFFCURVE",
"655 54 OFFCURVE",
"655 121 CURVE SMOOTH",
"655 207 LINE SMOOTH",
"655 241 OFFCURVE",
"639 274 OFFCURVE",
"615 296 CURVE",
"611 314 LINE"
);
},
{
closed = 1;
nodes = (
"523 499 OFFCURVE",
"541 481 OFFCURVE",
"541 460 CURVE SMOOTH",
"541 367 LINE SMOOTH",
"541 346 OFFCURVE",
"523 328 OFFCURVE",
"502 328 CURVE SMOOTH",
"175 328 LINE SMOOTH",
"154 328 OFFCURVE",
"136 346 OFFCURVE",
"136 367 CURVE SMOOTH",
"136 460 LINE SMOOTH",
"136 481 OFFCURVE",
"154 499 OFFCURVE",
"175 499 CURVE SMOOTH",
"502 499 LINE SMOOTH"
);
},
{
closed = 1;
nodes = (
"573 100 OFFCURVE",
"555 82 OFFCURVE",
"534 82 CURVE SMOOTH",
"175 82 LINE SMOOTH",
"154 82 OFFCURVE",
"136 100 OFFCURVE",
"136 121 CURVE SMOOTH",
"136 207 LINE SMOOTH",
"136 228 OFFCURVE",
"154 246 OFFCURVE",
"175 246 CURVE SMOOTH",
"534 246 LINE SMOOTH",
"555 246 OFFCURVE",
"573 228 OFFCURVE",
"573 207 CURVE SMOOTH",
"573 121 LINE SMOOTH"
);
}
);
width = 700;
}
);
},
{
glyphname = backslash;
layers = (
{
layerId = "ACB831E3-B1BC-4748-8FBD-8E58483131F2";
paths = (
{
closed = 1;
nodes = (
"5 725 LINE",
"5 621 LINE",
"511 1 LINE",
"511 107 LINE"
);
}
);
width = 520;
}
);
unicode = 005C;
},
{
glyphname = B;
layers = (
{
layerId = "ACB831E3-B1BC-4748-8FBD-8E58483131F2";
paths = (
{
closed = 1;
nodes = (
"743 410 OFFCURVE",
"748 428 OFFCURVE",
"748 447 CURVE SMOOTH",
"748 600 LINE SMOOTH",
"748 667 OFFCURVE",
"695 720 OFFCURVE",
"628 720 CURVE SMOOTH",
"59 720 LINE",
"59 0 LINE",
"659 0 LINE SMOOTH",
"726 0 OFFCURVE",
"779 53 OFFCURVE",
"779 120 CURVE SMOOTH",
"779 288 LINE SMOOTH",
"779 322 OFFCURVE",
"763 355 OFFCURVE",
"739 377 CURVE",
"735 394 LINE"
);
},
{
closed = 1;
nodes = (
"649 639 OFFCURVE",
"666 621 OFFCURVE",
"666 600 CURVE SMOOTH",
"666 447 LINE SMOOTH",
"666 426 OFFCURVE",
"649 408 OFFCURVE",
"628 408 CURVE SMOOTH",
"179 408 LINE SMOOTH",
"158 408 OFFCURVE",
"140 426 OFFCURVE",
"140 447 CURVE SMOOTH",
"140 600 LINE SMOOTH",
"140 621 OFFCURVE",
"158 639 OFFCURVE",
"179 639 CURVE SMOOTH",
"628 639 LINE SMOOTH"
);
},
{
closed = 1;
nodes = (
"698 99 OFFCURVE",
"680 81 OFFCURVE",
"659 81 CURVE SMOOTH",
"179 81 LINE SMOOTH",
"158 81 OFFCURVE",
"140 99 OFFCURVE",
"140 120 CURVE SMOOTH",
"140 288 LINE SMOOTH",
"140 309 OFFCURVE",
"158 327 OFFCURVE",
"179 327 CURVE SMOOTH",
"659 327 LINE SMOOTH",
"680 327 OFFCURVE",
"698 309 OFFCURVE",
"698 288 CURVE SMOOTH",
"698 120 LINE SMOOTH"
);
}
);
width = 832;
}
);
unicode = 0042;
},
{
glyphname = braceleft;
layers = (
{
layerId = "ACB831E3-B1BC-4748-8FBD-8E58483131F2";
paths = (
{
closed = 1;
nodes = (
"68 360 LINE",
"152 427 LINE",
"152 598 LINE SMOOTH",
"152 619 OFFCURVE",
"170 637 OFFCURVE",
"191 637 CURVE SMOOTH",
"220 637 LINE",
"220 720 LINE",
"191 720 LINE SMOOTH",
"124 720 OFFCURVE",
"70 666 OFFCURVE",
"70 598 CURVE SMOOTH",
"70 434 LINE",
"23 409 LINE",
"23 313 LINE",
"38 304 OFFCURVE",
"58 291 OFFCURVE",
"70 284 CURVE",
"70 121 LINE SMOOTH",
"70 54 OFFCURVE",
"124 0 OFFCURVE",
"191 0 CURVE SMOOTH",
"220 0 LINE",
"220 82 LINE",
"191 82 LINE SMOOTH",
"170 82 OFFCURVE",
"152 100 OFFCURVE",
"152 121 CURVE SMOOTH",
"152 291 LINE"
);
}
);
width = 289;
}
);
unicode = 007B;
},
{
glyphname = braceright;
layers = (
{
layerId = "ACB831E3-B1BC-4748-8FBD-8E58483131F2";
paths = (
{
closed = 1;
nodes = (
"119 100 OFFCURVE",
"101 82 OFFCURVE",
"80 82 CURVE SMOOTH",
"51 82 LINE",
"51 0 LINE",
"80 0 LINE SMOOTH",
"147 0 OFFCURVE",
"201 54 OFFCURVE",
"201 121 CURVE SMOOTH",
"201 283 LINE",
"247 312 LINE",
"247 407 LINE",
"233 415 OFFCURVE",
"215 427 OFFCURVE",
"201 434 CURVE",
"201 598 LINE SMOOTH",
"201 666 OFFCURVE",
"147 720 OFFCURVE",
"80 720 CURVE SMOOTH",
"51 720 LINE",
"51 637 LINE",
"80 637 LINE SMOOTH",
"101 637 OFFCURVE",
"119 619 OFFCURVE",
"119 598 CURVE SMOOTH",
"119 425 LINE",
"203 359 LINE",
"119 290 LINE",
"119 121 LINE SMOOTH"
);
}
);
width = 289;
}
);
unicode = 007D;
},
{
glyphname = bracketleft;
layers = (
{
layerId = "ACB831E3-B1BC-4748-8FBD-8E58483131F2";
paths = (
{
closed = 1;
nodes = (
"204 0 LINE",
"204 82 LINE",
"136 82 LINE",
"136 638 LINE",
"204 638 LINE",
"204 721 LINE",
"54 721 LINE",
"54 0 LINE"
);
}
);
width = 275;
}
);
unicode = 005B;
},
{
glyphname = bar;
layers = (
{
layerId = "ACB831E3-B1BC-4748-8FBD-8E58483131F2";
paths = (
{
closed = 1;
nodes = (
"136 -115 LINE",
"136 842 LINE",
"54 842 LINE",
"54 -115 LINE"
);
}
);
width = 214;
}
);
unicode = 007C;
},
{
glyphname = bracketright;
layers = (
{
layerId = "ACB831E3-B1BC-4748-8FBD-8E58483131F2";
paths = (
{
closed = 1;
nodes = (
"118 638 LINE",
"118 82 LINE",
"51 82 LINE",
"51 0 LINE",
"201 0 LINE",
"201 721 LINE",
"51 721 LINE",
"51 638 LINE"
);
}
);
width = 276;
}
);
unicode = 005D;
},
{
glyphname = bullet;
layers = (
{
layerId = "ACB831E3-B1BC-4748-8FBD-8E58483131F2";
paths = (
{
closed = 1;
nodes = (
"155 403 OFFCURVE",
"144 392 OFFCURVE",
"144 374 CURVE SMOOTH",
"144 353 LINE SMOOTH",
"144 335 OFFCURVE",
"155 325 OFFCURVE",
"172 325 CURVE SMOOTH",
"197 325 LINE SMOOTH",
"216 325 OFFCURVE",
"226 335 OFFCURVE",
"226 353 CURVE SMOOTH",
"226 374 LINE SMOOTH",
"226 392 OFFCURVE",
"216 403 OFFCURVE",
"197 403 CURVE SMOOTH",
"172 403 LINE SMOOTH"
);
}
);
width = 371;
}
);
unicode = 2022;
},
{
glyphname = breve;
layers = (
{
layerId = "ACB831E3-B1BC-4748-8FBD-8E58483131F2";
paths = (
{
closed = 1;
nodes = (
"194 937 OFFCURVE",
"194 935 OFFCURVE",
"194 933 CURVE SMOOTH",
"194 916 OFFCURVE",
"189 905 OFFCURVE",
"173 905 CURVE SMOOTH",
"93 905 LINE SMOOTH",
"75 905 OFFCURVE",
"72 918 OFFCURVE",
"72 939 CURVE",
"40 939 LINE",
"41 906 OFFCURVE",
"62 872 OFFCURVE",
"105 872 CURVE SMOOTH",
"160 872 LINE SMOOTH",
"204 872 OFFCURVE",
"224 906 OFFCURVE",
"225 939 CURVE",
"194 939 LINE"
);
}
);
width = 287;
}
);
unicode = 02D8;
},
{
glyphname = c.sc;
layers = (
{
layerId = "ACB831E3-B1BC-4748-8FBD-8E58483131F2";
paths = (
{
closed = 1;
nodes = (
"640 581 LINE",
"172 581 LINE SMOOTH",
"105 581 OFFCURVE",
"51 527 OFFCURVE",
"51 460 CURVE SMOOTH",
"51 121 LINE SMOOTH",
"51 54 OFFCURVE",
"105 0 OFFCURVE",
"172 0 CURVE SMOOTH",
"640 0 LINE",
"640 82 LINE",
"172 82 LINE SMOOTH",
"151 82 OFFCURVE",
"133 100 OFFCURVE",
"133 121 CURVE SMOOTH",
"133 460 LINE SMOOTH",
"133 481 OFFCURVE",
"151 499 OFFCURVE",
"172 499 CURVE SMOOTH",
"640 499 LINE"
);
}
);
width = 693;
}
);
},
{
glyphname = c;
layers = (
{
layerId = "ACB831E3-B1BC-4748-8FBD-8E58483131F2";
paths = (
{
closed = 1;
nodes = (
"151 82 OFFCURVE",
"133 100 OFFCURVE",
"133 121 CURVE SMOOTH",
"133 459 LINE SMOOTH",
"133 480 OFFCURVE",
"151 498 OFFCURVE",
"172 498 CURVE SMOOTH",
"640 498 LINE",
"640 580 LINE",
"172 580 LINE SMOOTH",
"105 580 OFFCURVE",
"51 526 OFFCURVE",
"51 459 CURVE SMOOTH",
"51 121 LINE SMOOTH",
"51 54 OFFCURVE",
"105 0 OFFCURVE",
"172 0 CURVE SMOOTH",
"642 0 LINE",
"642 82 LINE",
"172 82 LINE SMOOTH"
);
}
);
width = 695;
}
);
unicode = 0063;
},
{
glyphname = C.alt;
layers = (
{
layerId = "ACB831E3-B1BC-4748-8FBD-8E58483131F2";
paths = (
{
closed = 1;
nodes = (
"755 671 OFFCURVE",
"706 720 OFFCURVE",
"652 720 CURVE SMOOTH",
"172 720 LINE SMOOTH",
"105 720 OFFCURVE",
"52 667 OFFCURVE",
"52 600 CURVE SMOOTH",
"52 120 LINE SMOOTH",
"52 53 OFFCURVE",
"105 0 OFFCURVE",
"172 0 CURVE SMOOTH",
"652 0 LINE SMOOTH",
"706 0 OFFCURVE",
"755 49 OFFCURVE",
"770 100 CURVE",
"770 194 LINE",
"692 194 LINE",
"692 81 LINE",
"172 81 LINE SMOOTH",
"151 81 OFFCURVE",
"133 99 OFFCURVE",
"133 120 CURVE SMOOTH",
"133 600 LINE SMOOTH",
"133 621 OFFCURVE",
"151 639 OFFCURVE",
"172 639 CURVE SMOOTH",
"692 639 LINE",
"692 526 LINE",
"773 526 LINE",
"770 620 LINE"
);
}
);
width = 822;
}
);
},
{
glyphname = caron;
layers = (
{
layerId = "ACB831E3-B1BC-4748-8FBD-8E58483131F2";
paths = (
{
closed = 1;
nodes = (
"99 871 LINE",
"158 871 LINE",
"228 988 LINE",
"187 988 LINE",
"129 903 LINE",
"69 988 LINE",
"27 988 LINE"
);
}
);
width = 297;
}
);
unicode = 02C7;
},
{
glyphname = ccedilla;
layers = (
{
layerId = "ACB831E3-B1BC-4748-8FBD-8E58483131F2";
paths = (
{
closed = 1;
nodes = (
"151 82 OFFCURVE",
"133 100 OFFCURVE",
"133 121 CURVE SMOOTH",
"133 459 LINE SMOOTH",
"133 480 OFFCURVE",
"151 498 OFFCURVE",
"172 498 CURVE SMOOTH",
"640 498 LINE",
"640 580 LINE",
"172 580 LINE SMOOTH",
"105 580 OFFCURVE",
"51 526 OFFCURVE",
"51 459 CURVE SMOOTH",
"51 121 LINE SMOOTH",
"51 54 OFFCURVE",
"105 0 OFFCURVE",
"172 0 CURVE SMOOTH",
"307 0 LINE",
"272 -139 LINE",
"352 -139 LINE",
"386 0 LINE",
"642 0 LINE",
"642 82 LINE",
"172 82 LINE SMOOTH"
);
}
);
width = 693;
}
);
unicode = 00E7;
},
{
glyphname = C;
layers = (
{
layerId = "ACB831E3-B1BC-4748-8FBD-8E58483131F2";
paths = (
{
closed = 1;
nodes = (
"774 720 LINE",
"176 720 LINE SMOOTH",
"109 720 OFFCURVE",
"56 667 OFFCURVE",
"56 600 CURVE SMOOTH",
"56 120 LINE SMOOTH",
"56 53 OFFCURVE",
"109 0 OFFCURVE",
"176 0 CURVE SMOOTH",
"774 0 LINE",
"774 81 LINE",
"176 81 LINE SMOOTH",
"155 81 OFFCURVE",
"137 99 OFFCURVE",
"137 120 CURVE SMOOTH",
"137 600 LINE SMOOTH",
"137 621 OFFCURVE",
"155 639 OFFCURVE",
"176 639 CURVE SMOOTH",
"774 639 LINE"
);
}
);
width = 822;
}
);
unicode = 0043;
},
{
glyphname = cedilla;
layers = (
{
layerId = "ACB831E3-B1BC-4748-8FBD-8E58483131F2";
paths = (
{
closed = 1;
nodes = (
"113 -171 LINE",
"147 -32 LINE",
"68 -32 LINE",
"33 -171 LINE"
);
}
);
width = 213;
}
);
unicode = 00B8;
},
{
glyphname = Ccedilla;
layers = (
{
layerId = "ACB831E3-B1BC-4748-8FBD-8E58483131F2";
paths = (
{
closed = 1;
nodes = (
"774 720 LINE",
"176 720 LINE SMOOTH",
"109 720 OFFCURVE",
"56 667 OFFCURVE",
"56 600 CURVE SMOOTH",
"56 120 LINE SMOOTH",
"56 53 OFFCURVE",
"109 0 OFFCURVE",
"176 0 CURVE SMOOTH",
"372 0 LINE",
"337 -139 LINE",
"417 -139 LINE",
"451 0 LINE",
"774 0 LINE",
"774 81 LINE",
"176 81 LINE SMOOTH",
"155 81 OFFCURVE",
"137 99 OFFCURVE",
"137 120 CURVE SMOOTH",
"137 600 LINE SMOOTH",
"137 621 OFFCURVE",
"155 639 OFFCURVE",
"176 639 CURVE SMOOTH",
"774 639 LINE"
);
}
);
width = 822;
}
);
unicode = 00C7;
},
{
glyphname = circumflex;
layers = (
{
layerId = "ACB831E3-B1BC-4748-8FBD-8E58483131F2";
paths = (
{
closed = 1;
nodes = (
"129 956 LINE",
"187 871 LINE",
"229 871 LINE",
"158 988 LINE",
"99 988 LINE",
"28 871 LINE",
"69 871 LINE"
);
}
);
width = 300;
}
);
unicode = 02C6;
},
{
glyphname = colon;
layers = (
{
layerId = "ACB831E3-B1BC-4748-8FBD-8E58483131F2";
paths = (
{
closed = 1;
nodes = (
"54 0 LINE",
"136 0 LINE",
"136 82 LINE",
"54 82 LINE"
);
},
{
closed = 1;
nodes = (
"54 588 LINE",
"54 506 LINE",
"136 506 LINE",
"136 588 LINE"
);
}
);
width = 214;
}
);
unicode = 003A;
},
{
glyphname = comma;
layers = (
{
layerId = "ACB831E3-B1BC-4748-8FBD-8E58483131F2";
paths = (
{
closed = 1;
nodes = (
"54 -131 LINE",
"102 -115 OFFCURVE",
"136 -70 OFFCURVE",
"136 -16 CURVE SMOOTH",
"136 82 LINE",
"54 82 LINE"
);
}
);
width = 193;
}
);
unicode = 002C;
},
{
glyphname = d;
layers = (
{
layerId = "ACB831E3-B1BC-4748-8FBD-8E58483131F2";
paths = (
{
closed = 1;
nodes = (
"532 580 LINE",
"145 580 LINE SMOOTH",
"77 580 OFFCURVE",
"23 526 OFFCURVE",
"23 459 CURVE SMOOTH",
"23 121 LINE SMOOTH",
"23 54 OFFCURVE",
"77 0 OFFCURVE",
"145 0 CURVE SMOOTH",
"614 0 LINE",
"614 770 LINE",
"532 770 LINE"
);
},
{
closed = 1;
nodes = (
"124 82 OFFCURVE",
"106 100 OFFCURVE",
"106 121 CURVE SMOOTH",
"106 459 LINE SMOOTH",
"106 480 OFFCURVE",
"124 498 OFFCURVE",
"145 498 CURVE SMOOTH",
"493 498 LINE SMOOTH",
"514 498 OFFCURVE",
"532 480 OFFCURVE",
"532 459 CURVE SMOOTH",
"532 121 LINE SMOOTH",
"532 100 OFFCURVE",
"514 82 OFFCURVE",
"493 82 CURVE SMOOTH",
"145 82 LINE SMOOTH"
);
}
);
width = 667;
}
);
unicode = 0064;
},
{
glyphname = cent;
layers = (
{
layerId = "ACB831E3-B1BC-4748-8FBD-8E58483131F2";
paths = (
{
closed = 1;
nodes = (
"621 591 LINE",
"369 591 LINE",
"369 726 LINE",
"287 726 LINE",
"287 591 LINE",
"154 591 LINE SMOOTH",
"86 591 OFFCURVE",
"33 537 OFFCURVE",
"33 469 CURVE SMOOTH",
"33 121 LINE SMOOTH",
"33 54 OFFCURVE",
"86 0 OFFCURVE",
"154 0 CURVE SMOOTH",
"287 0 LINE",
"287 -115 LINE",
"369 -115 LINE",
"369 0 LINE",
"621 0 LINE",
"621 82 LINE",
"369 82 LINE",
"369 508 LINE",
"621 508 LINE"
);
},
{
closed = 1;
nodes = (
"154 82 LINE SMOOTH",
"133 82 OFFCURVE",
"115 100 OFFCURVE",
"115 121 CURVE SMOOTH",
"115 469 LINE SMOOTH",
"115 490 OFFCURVE",
"133 508 OFFCURVE",
"154 508 CURVE SMOOTH",
"287 508 LINE",
"287 82 LINE"
);
}
);
width = 636;
}
);
unicode = 00A2;
},
{
glyphname = d.sc;
layers = (
{
layerId = "ACB831E3-B1BC-4748-8FBD-8E58483131F2";
paths = (
{
closed = 1;
nodes = (
"54 0 LINE",
"534 0 LINE SMOOTH",
"601 0 OFFCURVE",
"655 54 OFFCURVE",
"655 121 CURVE SMOOTH",
"655 460 LINE SMOOTH",
"655 527 OFFCURVE",
"601 581 OFFCURVE",
"534 581 CURVE SMOOTH",
"54 581 LINE"
);
},
{
closed = 1;
nodes = (
"573 100 OFFCURVE",
"555 82 OFFCURVE",
"534 82 CURVE SMOOTH",
"175 82 LINE SMOOTH",
"154 82 OFFCURVE",
"136 100 OFFCURVE",
"136 121 CURVE SMOOTH",
"136 460 LINE SMOOTH",
"136 481 OFFCURVE",
"154 499 OFFCURVE",
"175 499 CURVE SMOOTH",
"534 499 LINE SMOOTH",
"555 499 OFFCURVE",
"573 481 OFFCURVE",
"573 460 CURVE SMOOTH",
"573 121 LINE SMOOTH"
);
}
);
width = 705;
}
);
},
{
glyphname = D;
layers = (
{
layerId = "ACB831E3-B1BC-4748-8FBD-8E58483131F2";
paths = (
{
closed = 1;
nodes = (
"58 0 LINE",
"658 0 LINE SMOOTH",
"725 0 OFFCURVE",
"778 53 OFFCURVE",
"778 120 CURVE SMOOTH",
"778 600 LINE SMOOTH",
"778 667 OFFCURVE",
"725 720 OFFCURVE",
"658 720 CURVE SMOOTH",
"58 720 LINE"
);
},
{
closed = 1;
nodes = (
"697 99 OFFCURVE",
"679 81 OFFCURVE",
"658 81 CURVE SMOOTH",
"178 81 LINE SMOOTH",
"157 81 OFFCURVE",
"139 99 OFFCURVE",
"139 120 CURVE SMOOTH",
"139 600 LINE SMOOTH",
"139 621 OFFCURVE",
"157 639 OFFCURVE",
"178 639 CURVE SMOOTH",
"658 639 LINE SMOOTH",
"679 639 OFFCURVE",
"697 621 OFFCURVE",
"697 600 CURVE SMOOTH",
"697 120 LINE SMOOTH"
);
}
);
width = 834;
}
);
unicode = 0044;
},
{
glyphname = dieresis;
layers = (
{
layerId = "ACB831E3-B1BC-4748-8FBD-8E58483131F2";
paths = (
{
closed = 1;
nodes = (
"234 954 LINE",
"234 872 LINE",
"316 872 LINE",
"316 954 LINE"
);
},
{
closed = 1;
nodes = (
"54 954 LINE",
"54 872 LINE",
"137 872 LINE",
"137 954 LINE"
);
}
);
width = 385;
}
);
unicode = 00A8;
},
{
glyphname = degree;
layers = (
{
layerId = "ACB831E3-B1BC-4748-8FBD-8E58483131F2";
paths = (
{
closed = 1;
nodes = (
"99 728 OFFCURVE",
"45 674 OFFCURVE",
"45 606 CURVE SMOOTH",
"45 522 LINE SMOOTH",
"45 455 OFFCURVE",
"99 401 OFFCURVE",
"167 401 CURVE SMOOTH",
"261 401 LINE SMOOTH",
"329 401 OFFCURVE",
"383 455 OFFCURVE",
"383 522 CURVE SMOOTH",
"383 606 LINE SMOOTH",
"383 674 OFFCURVE",
"329 728 OFFCURVE",
"261 728 CURVE SMOOTH",
"167 728 LINE SMOOTH"
);
},
{
closed = 1;
nodes = (
"124 462 OFFCURVE",
"106 480 OFFCURVE",
"106 501 CURVE SMOOTH",
"106 627 LINE SMOOTH",
"106 649 OFFCURVE",
"124 666 OFFCURVE",
"145 666 CURVE SMOOTH",
"283 666 LINE SMOOTH",
"304 666 OFFCURVE",
"322 649 OFFCURVE",
"322 627 CURVE SMOOTH",
"322 501 LINE SMOOTH",
"322 480 OFFCURVE",
"304 462 OFFCURVE",
"283 462 CURVE SMOOTH",
"145 462 LINE SMOOTH"
);
}
);
width = 439;
}
);
unicode = 00B0;
},
{
glyphname = divide;
layers = (
{
layerId = "ACB831E3-B1BC-4748-8FBD-8E58483131F2";
paths = (
{
closed = 1;
nodes = (
"18 337 LINE",
"18 255 LINE",
"492 255 LINE",
"492 337 LINE"
);
},
{
closed = 1;
nodes = (
"215 1 LINE",
"297 1 LINE",
"297 83 LINE",
"215 83 LINE"
);
},
{
closed = 1;
nodes = (
"215 579 LINE",
"215 497 LINE",
"297 497 LINE",
"297 579 LINE"
);
}
);
width = 508;
}
);
unicode = 00F7;
},
{
glyphname = dotaccent;
layers = (
{
layerId = "ACB831E3-B1BC-4748-8FBD-8E58483131F2";
paths = (
{
closed = 1;
nodes = (
"63 989 OFFCURVE",
"45 971 OFFCURVE",
"45 949 CURVE SMOOTH",
"45 913 LINE SMOOTH",
"45 891 OFFCURVE",
"63 873 OFFCURVE",
"86 873 CURVE SMOOTH",
"124 873 LINE SMOOTH",
"147 873 OFFCURVE",
"165 891 OFFCURVE",
"165 913 CURVE SMOOTH",
"165 949 LINE SMOOTH",
"165 971 OFFCURVE",
"147 989 OFFCURVE",
"124 989 CURVE SMOOTH",
"86 989 LINE SMOOTH"
);
}
);
width = 233;
}
);
unicode = 02D9;
},
{
glyphname = dotlessi;
layers = (
{
layerId = "ACB831E3-B1BC-4748-8FBD-8E58483131F2";
paths = (
{
closed = 1;
nodes = (
"134 0 LINE",
"134 580 LINE",
"52 580 LINE",
"52 0 LINE"
);
}
);
width = 214;
}
);
unicode = 0131;
},
{
glyphname = dollar;
layers = (
{
layerId = "ACB831E3-B1BC-4748-8FBD-8E58483131F2";
paths = (
{
closed = 1;
nodes = (
"762 667 OFFCURVE",
"708 721 OFFCURVE",
"640 721 CURVE SMOOTH",
"439 721 LINE",
"439 835 LINE",
"357 835 LINE",
"357 721 LINE",
"155 721 LINE SMOOTH",
"88 721 OFFCURVE",
"34 667 OFFCURVE",
"34 599 CURVE SMOOTH",
"34 441 LINE SMOOTH",
"34 373 OFFCURVE",
"88 320 OFFCURVE",
"155 320 CURVE SMOOTH",
"357 320 LINE",
"357 82 LINE",
"155 82 LINE SMOOTH",
"134 82 OFFCURVE",
"116 100 OFFCURVE",
"116 121 CURVE SMOOTH",
"116 150 LINE",
"34 150 LINE",
"34 121 LINE SMOOTH",
"34 54 OFFCURVE",
"88 0 OFFCURVE",
"155 0 CURVE SMOOTH",
"357 0 LINE",
"357 -114 LINE",
"439 -114 LINE",
"439 0 LINE",
"640 0 LINE SMOOTH",
"708 0 OFFCURVE",
"762 54 OFFCURVE",
"762 121 CURVE SMOOTH",
"762 281 LINE SMOOTH",
"762 348 OFFCURVE",
"708 402 OFFCURVE",
"640 402 CURVE SMOOTH",
"439 402 LINE",
"439 638 LINE",
"640 638 LINE SMOOTH",
"661 638 OFFCURVE",
"679 620 OFFCURVE",
"679 599 CURVE SMOOTH",
"679 571 LINE",
"762 571 LINE",
"762 599 LINE SMOOTH"
);
},
{
closed = 1;
nodes = (
"661 320 OFFCURVE",
"679 302 OFFCURVE",
"679 281 CURVE SMOOTH",
"679 121 LINE SMOOTH",
"679 100 OFFCURVE",
"661 82 OFFCURVE",
"640 82 CURVE SMOOTH",
"439 82 LINE",
"439 320 LINE",
"640 320 LINE SMOOTH"
);
},
{
closed = 1;
nodes = (
"155 402 LINE SMOOTH",
"134 402 OFFCURVE",
"116 420 OFFCURVE",
"116 441 CURVE SMOOTH",
"116 599 LINE SMOOTH",
"116 620 OFFCURVE",
"134 638 OFFCURVE",
"155 638 CURVE SMOOTH",
"357 638 LINE",
"357 402 LINE"
);
}
);
width = 788;
}
);
unicode = 0024;
},
{
glyphname = e;
layers = (
{
layerId = "ACB831E3-B1BC-4748-8FBD-8E58483131F2";
paths = (
{
closed = 1;
nodes = (
"105 580 OFFCURVE",
"51 526 OFFCURVE",
"51 459 CURVE SMOOTH",
"51 121 LINE SMOOTH",
"51 54 OFFCURVE",
"105 0 OFFCURVE",
"172 0 CURVE SMOOTH",
"642 0 LINE",
"642 82 LINE",
"172 82 LINE SMOOTH",
"151 82 OFFCURVE",
"133 100 OFFCURVE",
"133 121 CURVE SMOOTH",
"133 249 LINE",
"642 249 LINE",
"642 459 LINE SMOOTH",
"642 526 OFFCURVE",
"588 580 OFFCURVE",
"520 580 CURVE SMOOTH",
"172 580 LINE SMOOTH"
);
},
{
closed = 1;
nodes = (
"133 459 LINE SMOOTH",
"133 480 OFFCURVE",
"151 498 OFFCURVE",
"172 498 CURVE SMOOTH",
"520 498 LINE SMOOTH",
"542 498 OFFCURVE",
"559 480 OFFCURVE",
"559 459 CURVE SMOOTH",
"559 331 LINE",
"133 331 LINE"
);
}
);
width = 692;
}
);
unicode = 0065;
},
{
glyphname = E;
layers = (
{
layerId = "ACB831E3-B1BC-4748-8FBD-8E58483131F2";
paths = (
{
closed = 1;
nodes = (
"58 720 LINE",
"58 0 LINE",
"715 0 LINE",
"715 81 LINE",
"139 81 LINE",
"139 319 LINE",
"602 319 LINE",
"602 401 LINE",
"139 401 LINE",
"139 639 LINE",
"715 639 LINE",
"715 720 LINE"
);
}
);
width = 766;
}
);
unicode = 0045;
},
{
glyphname = e.sc;
layers = (
{
layerId = "ACB831E3-B1BC-4748-8FBD-8E58483131F2";
paths = (
{
closed = 1;
nodes = (
"54 581 LINE",
"54 0 LINE",
"581 0 LINE",
"581 82 LINE",
"136 82 LINE",
"136 249 LINE",
"467 249 LINE",
"467 331 LINE",
"136 331 LINE",
"136 499 LINE",
"581 499 LINE",
"581 581 LINE"
);
}
);
width = 638;
}
);
},
{
glyphname = Eacute;
layers = (
{
layerId = "ACB831E3-B1BC-4748-8FBD-8E58483131F2";
paths = (
{
closed = 1;
nodes = (
"58 720 LINE",
"58 0 LINE",
"715 0 LINE",
"715 81 LINE",
"139 81 LINE",
"139 319 LINE",
"602 319 LINE",
"602 401 LINE",
"139 401 LINE",
"139 639 LINE",
"715 639 LINE",
"715 720 LINE"
);
},
{
closed = 1;
nodes = (
"389 865 LINE",
"423 1004 LINE",
"344 1004 LINE",
"309 865 LINE"
);
}
);
width = 766;
}
);
unicode = 00C9;
},
{
glyphname = ecircumflex;
layers = (
{
layerId = "ACB831E3-B1BC-4748-8FBD-8E58483131F2";
paths = (
{
closed = 1;
nodes = (
"105 580 OFFCURVE",
"51 526 OFFCURVE",
"51 459 CURVE SMOOTH",
"51 121 LINE SMOOTH",
"51 54 OFFCURVE",
"105 0 OFFCURVE",
"172 0 CURVE SMOOTH",
"642 0 LINE",
"642 82 LINE",
"172 82 LINE SMOOTH",
"151 82 OFFCURVE",
"133 100 OFFCURVE",
"133 121 CURVE SMOOTH",
"133 249 LINE",
"642 249 LINE",
"642 459 LINE SMOOTH",
"642 526 OFFCURVE",
"588 580 OFFCURVE",
"520 580 CURVE SMOOTH",
"172 580 LINE SMOOTH"
);
},
{
closed = 1;
nodes = (
"133 459 LINE SMOOTH",
"133 480 OFFCURVE",
"151 498 OFFCURVE",
"172 498 CURVE SMOOTH",
"520 498 LINE SMOOTH",
"542 498 OFFCURVE",
"559 480 OFFCURVE",
"559 459 CURVE SMOOTH",
"559 331 LINE",
"133 331 LINE"
);
},
{
closed = 1;
nodes = (
"298 848 LINE",
"356 763 LINE",
"398 763 LINE",
"327 880 LINE",
"268 880 LINE",
"197 763 LINE",
"238 763 LINE"
);
}
);
width = 638;
}
);
unicode = 00EA;
},
{
glyphname = eacute;
layers = (
{
layerId = "ACB831E3-B1BC-4748-8FBD-8E58483131F2";
paths = (
{
closed = 1;
nodes = (
"105 580 OFFCURVE",
"51 526 OFFCURVE",
"51 459 CURVE SMOOTH",
"51 121 LINE SMOOTH",
"51 54 OFFCURVE",
"105 0 OFFCURVE",
"172 0 CURVE SMOOTH",
"642 0 LINE",
"642 82 LINE",
"172 82 LINE SMOOTH",
"151 82 OFFCURVE",
"133 100 OFFCURVE",
"133 121 CURVE SMOOTH",
"133 249 LINE",
"642 249 LINE",
"642 459 LINE SMOOTH",
"642 526 OFFCURVE",
"588 580 OFFCURVE",
"520 580 CURVE SMOOTH",
"172 580 LINE SMOOTH"
);
},
{
closed = 1;
nodes = (
"133 459 LINE SMOOTH",
"133 480 OFFCURVE",
"151 498 OFFCURVE",
"172 498 CURVE SMOOTH",
"520 498 LINE SMOOTH",
"542 498 OFFCURVE",
"559 480 OFFCURVE",
"559 459 CURVE SMOOTH",
"559 331 LINE",
"133 331 LINE"
);
},
{
closed = 1;
nodes = (
"325 764 LINE",
"359 903 LINE",
"280 903 LINE",
"245 764 LINE"
);
}
);
width = 638;
}
);
unicode = 00E9;
},
{
glyphname = Ecircumflex;
layers = (
{
layerId = "ACB831E3-B1BC-4748-8FBD-8E58483131F2";
paths = (
{
closed = 1;
nodes = (
"58 720 LINE",
"58 0 LINE",
"715 0 LINE",
"715 81 LINE",
"139 81 LINE",
"139 319 LINE",
"602 319 LINE",
"602 401 LINE",
"139 401 LINE",
"139 639 LINE",
"715 639 LINE",
"715 720 LINE"
);
},
{
closed = 1;
nodes = (
"362 949 LINE",
"420 864 LINE",
"462 864 LINE",
"391 981 LINE",
"332 981 LINE",
"261 864 LINE",
"302 864 LINE"
);
}
);
width = 766;
}
);
unicode = 00CA;
},
{
glyphname = Edieresis;
layers = (
{
layerId = "ACB831E3-B1BC-4748-8FBD-8E58483131F2";
paths = (
{
closed = 1;
nodes = (
"58 720 LINE",
"58 0 LINE",
"715 0 LINE",
"715 81 LINE",
"139 81 LINE",
"139 319 LINE",
"602 319 LINE",
"602 401 LINE",
"139 401 LINE",
"139 639 LINE",
"715 639 LINE",
"715 720 LINE"
);
},
{
closed = 1;
nodes = (
"424 947 LINE",
"424 865 LINE",
"506 865 LINE",
"506 947 LINE"
);
},
{
closed = 1;
nodes = (
"244 947 LINE",
"244 865 LINE",
"327 865 LINE",
"327 947 LINE"
);
}
);
width = 766;
}
);
unicode = 00CB;
},
{
glyphname = egrave;
layers = (
{
layerId = "ACB831E3-B1BC-4748-8FBD-8E58483131F2";
paths = (
{
closed = 1;
nodes = (
"105 580 OFFCURVE",
"51 526 OFFCURVE",
"51 459 CURVE SMOOTH",
"51 121 LINE SMOOTH",
"51 54 OFFCURVE",
"105 0 OFFCURVE",
"172 0 CURVE SMOOTH",
"642 0 LINE",
"642 82 LINE",
"172 82 LINE SMOOTH",
"151 82 OFFCURVE",
"133 100 OFFCURVE",
"133 121 CURVE SMOOTH",
"133 249 LINE",
"642 249 LINE",
"642 459 LINE SMOOTH",
"642 526 OFFCURVE",
"588 580 OFFCURVE",
"520 580 CURVE SMOOTH",
"172 580 LINE SMOOTH"
);
},
{
closed = 1;
nodes = (
"133 459 LINE SMOOTH",
"133 480 OFFCURVE",
"151 498 OFFCURVE",
"172 498 CURVE SMOOTH",
"520 498 LINE SMOOTH",
"542 498 OFFCURVE",
"559 480 OFFCURVE",
"559 459 CURVE SMOOTH",
"559 331 LINE",
"133 331 LINE"
);
},
{
closed = 1;
nodes = (
"245 902 LINE",
"258 851 OFFCURVE",
"267 817 OFFCURVE",
"280 763 CURVE",
"360 763 LINE",
"326 902 LINE"
);
}
);
width = 638;
}
);
unicode = 00E8;
},
{
glyphname = Egrave;
layers = (
{
layerId = "ACB831E3-B1BC-4748-8FBD-8E58483131F2";
paths = (
{
closed = 1;
nodes = (
"58 720 LINE",
"58 0 LINE",
"715 0 LINE",
"715 81 LINE",
"139 81 LINE",
"139 319 LINE",
"602 319 LINE",
"602 401 LINE",
"139 401 LINE",
"139 639 LINE",
"715 639 LINE",
"715 720 LINE"
);
},
{
closed = 1;
nodes = (
"309 1004 LINE",
"322 953 OFFCURVE",
"331 919 OFFCURVE",
"344 865 CURVE",
"424 865 LINE",
"390 1004 LINE"
);
}
);
width = 766;
}
);
unicode = 00C8;
},
{
glyphname = edieresis;
layers = (
{
layerId = "ACB831E3-B1BC-4748-8FBD-8E58483131F2";
paths = (
{
closed = 1;
nodes = (
"105 580 OFFCURVE",
"51 526 OFFCURVE",
"51 459 CURVE SMOOTH",
"51 121 LINE SMOOTH",
"51 54 OFFCURVE",
"105 0 OFFCURVE",
"172 0 CURVE SMOOTH",
"642 0 LINE",
"642 82 LINE",
"172 82 LINE SMOOTH",
"151 82 OFFCURVE",
"133 100 OFFCURVE",
"133 121 CURVE SMOOTH",
"133 249 LINE",
"642 249 LINE",
"642 459 LINE SMOOTH",
"642 526 OFFCURVE",
"588 580 OFFCURVE",
"520 580 CURVE SMOOTH",
"172 580 LINE SMOOTH"
);
},
{
closed = 1;
nodes = (
"133 459 LINE SMOOTH",
"133 480 OFFCURVE",
"151 498 OFFCURVE",
"172 498 CURVE SMOOTH",
"520 498 LINE SMOOTH",
"542 498 OFFCURVE",
"559 480 OFFCURVE",
"559 459 CURVE SMOOTH",
"559 331 LINE",
"133 331 LINE"
);
},
{
closed = 1;
nodes = (
"360 845 LINE",
"360 763 LINE",
"442 763 LINE",
"442 845 LINE"
);
},
{
closed = 1;
nodes = (
"180 845 LINE",
"180 763 LINE",
"263 763 LINE",
"263 845 LINE"
);
}
);
width = 638;
}
);
unicode = 00EB;
},
{
glyphname = eight;
layers = (
{
layerId = "ACB831E3-B1BC-4748-8FBD-8E58483131F2";
paths = (
{
closed = 1;
nodes = (
"769 671 OFFCURVE",
"719 721 OFFCURVE",
"663 721 CURVE SMOOTH",
"178 721 LINE SMOOTH",
"110 721 OFFCURVE",
"57 667 OFFCURVE",
"57 599 CURVE SMOOTH",
"57 452 LINE SMOOTH",
"57 425 OFFCURVE",
"68 397 OFFCURVE",
"87 371 CURVE",
"68 346 OFFCURVE",
"57 318 OFFCURVE",
"57 291 CURVE SMOOTH",
"57 121 LINE SMOOTH",
"57 54 OFFCURVE",
"110 0 OFFCURVE",
"178 0 CURVE SMOOTH",
"663 0 LINE SMOOTH",
"730 0 OFFCURVE",
"784 54 OFFCURVE",
"784 121 CURVE SMOOTH",
"784 291 LINE SMOOTH",
"784 318 OFFCURVE",
"773 346 OFFCURVE",
"754 371 CURVE",
"773 397 OFFCURVE",
"784 425 OFFCURVE",
"784 452 CURVE SMOOTH",
"784 619 LINE"
);
},
{
closed = 1;
nodes = (
"702 100 OFFCURVE",
"684 82 OFFCURVE",
"663 82 CURVE SMOOTH",
"178 82 LINE SMOOTH",
"157 82 OFFCURVE",
"139 100 OFFCURVE",
"139 121 CURVE SMOOTH",
"139 291 LINE SMOOTH",
"139 312 OFFCURVE",
"157 330 OFFCURVE",
"178 330 CURVE SMOOTH",
"663 330 LINE SMOOTH",
"684 330 OFFCURVE",
"702 312 OFFCURVE",
"702 291 CURVE SMOOTH",
"702 121 LINE SMOOTH"
);
},
{
closed = 1;
nodes = (
"702 419 OFFCURVE",
"684 401 OFFCURVE",
"663 401 CURVE SMOOTH",
"178 401 LINE SMOOTH",
"157 401 OFFCURVE",
"139 419 OFFCURVE",
"139 440 CURVE SMOOTH",
"139 598 LINE SMOOTH",
"139 619 OFFCURVE",
"157 637 OFFCURVE",
"178 637 CURVE SMOOTH",
"663 637 LINE SMOOTH",
"684 637 OFFCURVE",
"702 619 OFFCURVE",
"702 598 CURVE SMOOTH",
"702 440 LINE SMOOTH"
);
}
);
width = 834;
}
);
unicode = 0038;
},
{
glyphname = emdash;
layers = (
{
layerId = "ACB831E3-B1BC-4748-8FBD-8E58483131F2";
paths = (
{
closed = 1;
nodes = (
"54 336 LINE",
"54 254 LINE",
"775 254 LINE",
"775 336 LINE"
);
}
);
width = 822;
}
);
unicode = 2014;
},
{
glyphname = ellipsis;
layers = (
{
layerId = "ACB831E3-B1BC-4748-8FBD-8E58483131F2";
paths = (
{
closed = 1;
nodes = (
"54 82 LINE",
"54 0 LINE",
"136 0 LINE",
"136 82 LINE"
);
},
{
closed = 1;
nodes = (
"431 82 LINE",
"431 0 LINE",
"514 0 LINE",
"514 82 LINE"
);
},
{
closed = 1;
nodes = (
"243 82 LINE",
"243 0 LINE",
"325 0 LINE",
"325 82 LINE"
);
}
);
width = 574;
}
);
unicode = 2026;
},
{
glyphname = endash;
layers = (
{
layerId = "ACB831E3-B1BC-4748-8FBD-8E58483131F2";
paths = (
{
closed = 1;
nodes = (
"54 336 LINE",
"54 254 LINE",
"655 254 LINE",
"655 336 LINE"
);
}
);
width = 708;
}
);
unicode = 2013;
},
{
glyphname = equal;
layers = (
{
layerId = "ACB831E3-B1BC-4748-8FBD-8E58483131F2";
paths = (
{
closed = 1;
nodes = (
"59 233 LINE",
"59 151 LINE",
"576 151 LINE",
"576 233 LINE"
);
},
{
closed = 1;
nodes = (
"59 433 LINE",
"59 351 LINE",
"576 351 LINE",
"576 433 LINE"
);
}
);
width = 638;
}
);
unicode = 003D;
},
{
glyphname = exclam;
layers = (
{
layerId = "ACB831E3-B1BC-4748-8FBD-8E58483131F2";
paths = (
{
closed = 1;
nodes = (
"140 82 LINE",
"58 82 LINE",
"58 0 LINE",
"140 0 LINE"
);
},
{
closed = 1;
nodes = (
"140 203 LINE",
"140 720 LINE",
"58 720 LINE",
"58 203 LINE"
);
}
);
width = 220;
}
);
unicode = 0021;
},
{
glyphname = Euro;
layers = (
{
layerId = "ACB831E3-B1BC-4748-8FBD-8E58483131F2";
paths = (
{
closed = 1;
nodes = (
"241 82 OFFCURVE",
"223 100 OFFCURVE",
"223 121 CURVE SMOOTH",
"223 230 LINE",
"647 230 LINE",
"647 312 LINE",
"223 312 LINE",
"223 415 LINE",
"647 415 LINE",
"647 498 LINE",
"223 498 LINE",
"223 599 LINE SMOOTH",
"223 620 OFFCURVE",
"241 638 OFFCURVE",
"262 638 CURVE SMOOTH",
"761 638 LINE",
"761 721 LINE",
"262 721 LINE SMOOTH",
"194 721 OFFCURVE",
"140 667 OFFCURVE",
"140 599 CURVE SMOOTH",
"140 498 LINE",
"35 498 LINE",
"35 415 LINE",
"140 415 LINE",
"140 312 LINE",
"35 312 LINE",
"35 230 LINE",
"140 230 LINE",
"140 121 LINE SMOOTH",
"140 54 OFFCURVE",
"194 0 OFFCURVE",
"262 0 CURVE SMOOTH",
"761 0 LINE",
"761 82 LINE",
"262 82 LINE SMOOTH"
);
}
);
width = 799;
}
);
unicode = 20AC;
},
{
glyphname = exclamdown;
layers = (
{
layerId = "ACB831E3-B1BC-4748-8FBD-8E58483131F2";
paths = (
{
closed = 1;
nodes = (
"53 728 LINE",
"53 645 LINE",
"135 645 LINE",
"135 728 LINE"
);
},
{
closed = 1;
nodes = (
"135 517 LINE",
"53 517 LINE",
"53 0 LINE",
"135 0 LINE"
);
}
);
width = 210;
}
);
unicode = 00A1;
},
{
glyphname = f;
layers = (
{
layerId = "ACB831E3-B1BC-4748-8FBD-8E58483131F2";
paths = (
{
closed = 1;
nodes = (
"386 770 LINE",
"174 770 LINE SMOOTH",
"106 770 OFFCURVE",
"53 717 OFFCURVE",
"53 649 CURVE SMOOTH",
"53 0 LINE",
"135 0 LINE",
"135 498 LINE",
"386 498 LINE",
"386 580 LINE",
"135 580 LINE",
"135 649 LINE SMOOTH",
"135 670 OFFCURVE",
"153 688 OFFCURVE",
"174 688 CURVE SMOOTH",
"386 688 LINE"
);
}
);
width = 407;
}
);
unicode = 0066;
},
{
glyphname = f.sc;
layers = (
{
layerId = "ACB831E3-B1BC-4748-8FBD-8E58483131F2";
paths = (
{
closed = 1;
nodes = (
"54 0 LINE",
"136 0 LINE",
"136 249 LINE",
"467 249 LINE",
"467 331 LINE",
"136 331 LINE",
"136 499 LINE",
"581 499 LINE",
"581 581 LINE",
"54 581 LINE"
);
}
);
width = 591;
}
);
},
{
glyphname = F;
layers = (
{
layerId = "ACB831E3-B1BC-4748-8FBD-8E58483131F2";
paths = (
{
closed = 1;
nodes = (
"58 0 LINE",
"139 0 LINE",
"139 319 LINE",
"602 319 LINE",
"602 401 LINE",
"139 401 LINE",
"139 639 LINE",
"715 639 LINE",
"715 720 LINE",
"58 720 LINE"
);
}
);
width = 723;
}
);
unicode = 0046;
},
{
glyphname = four.alt;
layers = (
{
layerId = "ACB831E3-B1BC-4748-8FBD-8E58483131F2";
paths = (
{
closed = 1;
nodes = (
"593 425 LINE",
"511 425 LINE",
"511 268 LINE",
"95 268 LINE",
"477 690 LINE",
"477 721 LINE",
"386 721 LINE",
"9 279 LINE",
"9 186 LINE",
"511 186 LINE",
"511 0 LINE",
"593 0 LINE",
"593 186 LINE",
"705 186 LINE",
"705 268 LINE",
"593 268 LINE"
);
}
);
width = 723;
}
);
},
{
glyphname = four;
layers = (
{
layerId = "ACB831E3-B1BC-4748-8FBD-8E58483131F2";
paths = (
{
closed = 1;
nodes = (
"590 721 LINE",
"498 721 LINE",
"334 571 OFFCURVE",
"171 427 OFFCURVE",
"6 278 CURVE",
"6 186 LINE",
"508 186 LINE",
"508 0 LINE",
"590 0 LINE",
"590 186 LINE",
"702 186 LINE",
"702 268 LINE",
"590 268 LINE"
);
},
{
closed = 1;
nodes = (
"508 268 LINE",
"111 268 LINE",
"508 590 LINE"
);
}
);
width = 730;
}
);
unicode = 0034;
},
{
glyphname = five;
layers = (
{
layerId = "ACB831E3-B1BC-4748-8FBD-8E58483131F2";
paths = (
{
closed = 1;
nodes = (
"139 620 OFFCURVE",
"157 638 OFFCURVE",
"178 638 CURVE SMOOTH",
"784 638 LINE",
"784 721 LINE",
"57 721 LINE",
"57 330 LINE",
"663 330 LINE SMOOTH",
"684 330 OFFCURVE",
"702 312 OFFCURVE",
"702 291 CURVE SMOOTH",
"702 121 LINE SMOOTH",
"702 100 OFFCURVE",
"684 82 OFFCURVE",
"663 82 CURVE SMOOTH",
"178 82 LINE SMOOTH",
"157 82 OFFCURVE",
"139 100 OFFCURVE",
"139 121 CURVE SMOOTH",
"139 150 LINE",
"57 150 LINE",
"57 121 LINE SMOOTH",
"57 54 OFFCURVE",
"110 0 OFFCURVE",
"178 0 CURVE SMOOTH",
"663 0 LINE SMOOTH",
"730 0 OFFCURVE",
"784 54 OFFCURVE",
"784 121 CURVE SMOOTH",
"784 291 LINE SMOOTH",
"784 359 OFFCURVE",
"730 412 OFFCURVE",
"663 412 CURVE SMOOTH",
"178 412 LINE SMOOTH",
"157 412 OFFCURVE",
"139 430 OFFCURVE",
"139 452 CURVE SMOOTH",
"139 599 LINE SMOOTH"
);
}
);
width = 830;
}
);
unicode = 0035;
},
{
glyphname = g.sc;
layers = (
{
layerId = "ACB831E3-B1BC-4748-8FBD-8E58483131F2";
paths = (
{
closed = 1;
nodes = (
"642 527 OFFCURVE",
"588 581 OFFCURVE",
"520 581 CURVE SMOOTH",
"172 581 LINE SMOOTH",
"105 581 OFFCURVE",
"51 527 OFFCURVE",
"51 460 CURVE SMOOTH",
"51 121 LINE SMOOTH",
"51 54 OFFCURVE",
"105 0 OFFCURVE",
"172 0 CURVE SMOOTH",
"520 0 LINE SMOOTH",
"588 0 OFFCURVE",
"642 54 OFFCURVE",
"642 121 CURVE SMOOTH",
"642 299 LINE",
"380 299 LINE",
"380 217 LINE",
"559 217 LINE",
"559 121 LINE SMOOTH",
"559 100 OFFCURVE",
"542 82 OFFCURVE",
"520 82 CURVE SMOOTH",
"172 82 LINE SMOOTH",
"151 82 OFFCURVE",
"133 100 OFFCURVE",
"133 121 CURVE SMOOTH",
"133 460 LINE SMOOTH",
"133 481 OFFCURVE",
"151 499 OFFCURVE",
"172 499 CURVE SMOOTH",
"520 499 LINE SMOOTH",
"542 499 OFFCURVE",
"559 481 OFFCURVE",
"559 460 CURVE SMOOTH",
"559 446 LINE",
"642 446 LINE",
"642 460 LINE SMOOTH"
);
}
);
width = 690;
}
);
},
{
glyphname = g;
layers = (
{
layerId = "ACB831E3-B1BC-4748-8FBD-8E58483131F2";
paths = (
{
closed = 1;
nodes = (
"631 526 OFFCURVE",
"578 580 OFFCURVE",
"510 580 CURVE SMOOTH",
"162 580 LINE SMOOTH",
"95 580 OFFCURVE",
"41 526 OFFCURVE",
"41 459 CURVE SMOOTH",
"41 121 LINE SMOOTH",
"41 54 OFFCURVE",
"95 0 OFFCURVE",
"162 0 CURVE SMOOTH",
"549 0 LINE",
"549 -107 LINE SMOOTH",
"549 -128 OFFCURVE",
"531 -146 OFFCURVE",
"510 -146 CURVE SMOOTH",
"148 -146 LINE",
"148 -229 LINE",
"510 -229 LINE SMOOTH",
"578 -229 OFFCURVE",
"631 -175 OFFCURVE",
"631 -107 CURVE SMOOTH",
"631 459 LINE SMOOTH"
);
},
{
closed = 1;
nodes = (
"141 82 OFFCURVE",
"123 100 OFFCURVE",
"123 121 CURVE SMOOTH",
"123 459 LINE SMOOTH",
"123 480 OFFCURVE",
"141 498 OFFCURVE",
"162 498 CURVE SMOOTH",
"510 498 LINE SMOOTH",
"531 498 OFFCURVE",
"549 480 OFFCURVE",
"549 459 CURVE SMOOTH",
"549 121 LINE SMOOTH",
"549 100 OFFCURVE",
"531 82 OFFCURVE",
"510 82 CURVE SMOOTH",
"162 82 LINE SMOOTH"
);
}
);
width = 683;
}
);
unicode = 0067;
},
{
glyphname = germandbls;
layers = (
{
layerId = "ACB831E3-B1BC-4748-8FBD-8E58483131F2";
paths = (
{
closed = 1;
nodes = (
"769 678 OFFCURVE",
"719 728 OFFCURVE",
"663 728 CURVE SMOOTH",
"178 728 LINE SMOOTH",
"110 728 OFFCURVE",
"57 674 OFFCURVE",
"57 606 CURVE SMOOTH",
"57 0 LINE",
"139 0 LINE",
"139 605 LINE SMOOTH",
"139 626 OFFCURVE",
"157 644 OFFCURVE",
"178 644 CURVE SMOOTH",
"663 644 LINE SMOOTH",
"684 644 OFFCURVE",
"702 626 OFFCURVE",
"702 605 CURVE SMOOTH",
"702 443 LINE SMOOTH",
"702 422 OFFCURVE",
"684 404 OFFCURVE",
"663 404 CURVE SMOOTH",
"284 404 LINE",
"284 333 LINE",
"663 333 LINE SMOOTH",
"684 333 OFFCURVE",
"702 315 OFFCURVE",
"702 294 CURVE SMOOTH",
"702 121 LINE SMOOTH",
"702 100 OFFCURVE",
"684 82 OFFCURVE",
"663 82 CURVE SMOOTH",
"284 82 LINE",
"284 0 LINE",
"663 0 LINE SMOOTH",
"730 0 OFFCURVE",
"784 54 OFFCURVE",
"784 121 CURVE SMOOTH",
"784 294 LINE SMOOTH",
"784 321 OFFCURVE",
"773 349 OFFCURVE",
"754 374 CURVE",
"773 400 OFFCURVE",
"784 428 OFFCURVE",
"784 455 CURVE SMOOTH",
"784 626 LINE"
);
}
);
width = 833;
}
);
unicode = 00DF;
},
{
glyphname = grave;
layers = (
{
layerId = "ACB831E3-B1BC-4748-8FBD-8E58483131F2";
paths = (
{
closed = 1;
nodes = (
"32 1011 LINE",
"45 960 OFFCURVE",
"54 926 OFFCURVE",
"67 872 CURVE",
"147 872 LINE",
"113 1011 LINE"
);
}
);
width = 213;
}
);
unicode = 0060;
},
{
glyphname = G;
layers = (
{
layerId = "ACB831E3-B1BC-4748-8FBD-8E58483131F2";
paths = (
{
closed = 1;
nodes = (
"776 667 OFFCURVE",
"723 720 OFFCURVE",
"656 720 CURVE SMOOTH",
"176 720 LINE SMOOTH",
"109 720 OFFCURVE",
"56 667 OFFCURVE",
"56 600 CURVE SMOOTH",
"56 120 LINE SMOOTH",
"56 53 OFFCURVE",
"109 0 OFFCURVE",
"176 0 CURVE SMOOTH",
"656 0 LINE SMOOTH",
"723 0 OFFCURVE",
"776 53 OFFCURVE",
"776 120 CURVE SMOOTH",
"776 380 LINE",
"517 380 LINE",
"517 298 LINE",
"695 298 LINE",
"695 120 LINE SMOOTH",
"695 99 OFFCURVE",
"677 81 OFFCURVE",
"656 81 CURVE SMOOTH",
"176 81 LINE SMOOTH",
"155 81 OFFCURVE",
"137 99 OFFCURVE",
"137 120 CURVE SMOOTH",
"137 600 LINE SMOOTH",
"137 621 OFFCURVE",
"155 639 OFFCURVE",
"176 639 CURVE SMOOTH",
"656 639 LINE SMOOTH",
"677 639 OFFCURVE",
"695 621 OFFCURVE",
"695 600 CURVE SMOOTH",
"695 571 LINE",
"776 571 LINE",
"776 600 LINE SMOOTH"
);
}
);
width = 830;
}
);
unicode = 0047;
},
{
glyphname = greater;
layers = (
{
layerId = "ACB831E3-B1BC-4748-8FBD-8E58483131F2";
paths = (
{
closed = 1;
nodes = (
"196 93 OFFCURVE",
"322 167 OFFCURVE",
"461 246 CURVE",
"461 343 LINE",
"59 574 LINE",
"59 479 LINE",
"379 294 LINE",
"59 109 LINE",
"59 14 LINE"
);
}
);
width = 475;
}
);
unicode = 003E;
},
{
glyphname = h;
layers = (
{
layerId = "ACB831E3-B1BC-4748-8FBD-8E58483131F2";
paths = (
{
closed = 1;
nodes = (
"136 770 LINE",
"54 770 LINE",
"54 0 LINE",
"136 0 LINE",
"136 459 LINE SMOOTH",
"136 480 OFFCURVE",
"154 498 OFFCURVE",
"176 498 CURVE SMOOTH",
"524 498 LINE SMOOTH",
"545 498 OFFCURVE",
"563 480 OFFCURVE",
"563 459 CURVE SMOOTH",
"563 0 LINE",
"645 0 LINE",
"645 459 LINE SMOOTH",
"645 526 OFFCURVE",
"590 580 OFFCURVE",
"524 580 CURVE SMOOTH",
"136 580 LINE"
);
}
);
width = 668;
}
);
unicode = 0068;
},
{
glyphname = H;
layers = (
{
layerId = "ACB831E3-B1BC-4748-8FBD-8E58483131F2";
paths = (
{
closed = 1;
nodes = (
"713 401 LINE",
"138 401 LINE",
"138 720 LINE",
"57 720 LINE",
"57 0 LINE",
"138 0 LINE",
"138 319 LINE",
"713 319 LINE",
"713 0 LINE",
"795 0 LINE",
"795 720 LINE",
"713 720 LINE"
);
}
);
width = 851;
}
);
unicode = 0048;
},
{
glyphname = hyphen;
layers = (
{
layerId = "ACB831E3-B1BC-4748-8FBD-8E58483131F2";
paths = (
{
closed = 1;
nodes = (
"59 337 LINE",
"59 255 LINE",
"449 255 LINE",
"449 337 LINE"
);
}
);
width = 517;
}
);
unicode = 002D;
},
{
glyphname = h.sc;
layers = (
{
layerId = "ACB831E3-B1BC-4748-8FBD-8E58483131F2";
paths = (
{
closed = 1;
nodes = (
"580 331 LINE",
"136 331 LINE",
"136 580 LINE",
"54 580 LINE",
"54 0 LINE",
"136 0 LINE",
"136 249 LINE",
"580 249 LINE",
"580 0 LINE",
"662 0 LINE",
"662 580 LINE",
"580 580 LINE"
);
}
);
width = 715;
}
);
},
{
glyphname = i.sc;
layers = (
{
layerId = "ACB831E3-B1BC-4748-8FBD-8E58483131F2";
paths = (
{
closed = 1;
nodes = (
"136 0 LINE",
"136 580 LINE",
"54 580 LINE",
"54 0 LINE"
);
}
);
width = 214;
}
);
},
{
glyphname = I.alt;
layers = (
{
layerId = "ACB831E3-B1BC-4748-8FBD-8E58483131F2";
paths = (
{
closed = 1;
nodes = (
"49 720 LINE",
"49 639 LINE",
"368 639 LINE",
"368 81 LINE",
"49 81 LINE",
"49 0 LINE",
"769 0 LINE",
"769 81 LINE",
"450 81 LINE",
"450 639 LINE",
"769 639 LINE",
"769 720 LINE"
);
}
);
width = 818;
}
);
},
{
glyphname = i;
layers = (
{
layerId = "ACB831E3-B1BC-4748-8FBD-8E58483131F2";
paths = (
{
closed = 1;
nodes = (
"134 0 LINE",
"134 580 LINE",
"52 580 LINE",
"52 0 LINE"
);
},
{
closed = 1;
nodes = (
"52 688 LINE",
"134 688 LINE",
"134 770 LINE",
"52 770 LINE"
);
}
);
width = 208;
}
);
unicode = 0069;
},
{
glyphname = I;
layers = (
{
layerId = "ACB831E3-B1BC-4748-8FBD-8E58483131F2";
paths = (
{
closed = 1;
nodes = (
"138 0 LINE",
"138 720 LINE",
"57 720 LINE",
"57 0 LINE"
);
}
);
width = 220;
}
);
unicode = 0049;
},
{
glyphname = Iacute;
layers = (
{
layerId = "ACB831E3-B1BC-4748-8FBD-8E58483131F2";
paths = (
{
closed = 1;
nodes = (
"138 0 LINE",
"138 720 LINE",
"57 720 LINE",
"57 0 LINE"
);
},
{
closed = 1;
nodes = (
"116 865 LINE",
"150 1004 LINE",
"71 1004 LINE",
"36 865 LINE"
);
}
);
width = 220;
}
);
unicode = 00CD;
},
{
glyphname = icircumflex;
layers = (
{
layerId = "ACB831E3-B1BC-4748-8FBD-8E58483131F2";
paths = (
{
closed = 1;
nodes = (
"133 0 LINE",
"133 580 LINE",
"51 580 LINE",
"51 0 LINE"
);
},
{
closed = 1;
nodes = (
"86 848 LINE",
"144 763 LINE",
"186 763 LINE",
"115 880 LINE",
"56 880 LINE",
"-15 763 LINE",
"26 763 LINE"
);
}
);
width = 214;
}
);
unicode = 00EE;
},
{
glyphname = Icircumflex;
layers = (
{
layerId = "ACB831E3-B1BC-4748-8FBD-8E58483131F2";
paths = (
{
closed = 1;
nodes = (
"138 0 LINE",
"138 720 LINE",
"57 720 LINE",
"57 0 LINE"
);
},
{
closed = 1;
nodes = (
"89 949 LINE",
"147 864 LINE",
"189 864 LINE",
"118 981 LINE",
"59 981 LINE",
"-12 864 LINE",
"29 864 LINE"
);
}
);
width = 220;
}
);
unicode = 00CE;
},
{
glyphname = iacute;
layers = (
{
layerId = "ACB831E3-B1BC-4748-8FBD-8E58483131F2";
paths = (
{
closed = 1;
nodes = (
"133 0 LINE",
"133 580 LINE",
"51 580 LINE",
"51 0 LINE"
);
},
{
closed = 1;
nodes = (
"129 763 LINE",
"163 902 LINE",
"84 902 LINE",
"49 763 LINE"
);
}
);
width = 214;
}
);
unicode = 00ED;
},
{
glyphname = Idieresis;
layers = (
{
layerId = "ACB831E3-B1BC-4748-8FBD-8E58483131F2";
paths = (
{
closed = 1;
nodes = (
"138 0 LINE",
"138 720 LINE",
"57 720 LINE",
"57 0 LINE"
);
},
{
closed = 1;
nodes = (
"151 947 LINE",
"151 865 LINE",
"233 865 LINE",
"233 947 LINE"
);
},
{
closed = 1;
nodes = (
"-29 947 LINE",
"-29 865 LINE",
"54 865 LINE",
"54 947 LINE"
);
}
);
width = 220;
}
);
unicode = 00CF;
},
{
glyphname = igrave;
layers = (
{
layerId = "ACB831E3-B1BC-4748-8FBD-8E58483131F2";
paths = (
{
closed = 1;
nodes = (
"138 0 LINE",
"138 580 LINE",
"56 580 LINE",
"56 0 LINE"
);
},
{
closed = 1;
nodes = (
"16 903 LINE",
"29 852 OFFCURVE",
"38 818 OFFCURVE",
"51 764 CURVE",
"131 764 LINE",
"97 903 LINE"
);
}
);
width = 214;
}
);
unicode = 00EC;
},
{
glyphname = Igrave;
layers = (
{
layerId = "ACB831E3-B1BC-4748-8FBD-8E58483131F2";
paths = (
{
closed = 1;
nodes = (
"138 0 LINE",
"138 720 LINE",
"57 720 LINE",
"57 0 LINE"
);
},
{
closed = 1;
nodes = (
"36 1004 LINE",
"49 953 OFFCURVE",
"58 919 OFFCURVE",
"71 865 CURVE",
"151 865 LINE",
"117 1004 LINE"
);
}
);
width = 220;
}
);
unicode = 00CC;
},
{
glyphname = idieresis;
layers = (
{
layerId = "ACB831E3-B1BC-4748-8FBD-8E58483131F2";
paths = (
{
closed = 1;
nodes = (
"137 0 LINE",
"137 580 LINE",
"55 580 LINE",
"55 0 LINE"
);
},
{
closed = 1;
nodes = (
"148 847 LINE",
"148 765 LINE",
"230 765 LINE",
"230 847 LINE"
);
},
{
closed = 1;
nodes = (
"-32 847 LINE",
"-32 765 LINE",
"51 765 LINE",
"51 847 LINE"
);
}
);
width = 214;
}
);
unicode = 00EF;
},
{
glyphname = j.sc;
layers = (
{
layerId = "ACB831E3-B1BC-4748-8FBD-8E58483131F2";
paths = (
{
closed = 1;
nodes = (
"524 100 OFFCURVE",
"506 82 OFFCURVE",
"485 82 CURVE SMOOTH",
"126 82 LINE SMOOTH",
"105 82 OFFCURVE",
"87 100 OFFCURVE",
"87 121 CURVE SMOOTH",
"87 169 LINE",
"5 169 LINE",
"5 121 LINE SMOOTH",
"5 54 OFFCURVE",
"59 0 OFFCURVE",
"126 0 CURVE SMOOTH",
"485 0 LINE SMOOTH",
"552 0 OFFCURVE",
"606 54 OFFCURVE",
"606 121 CURVE SMOOTH",
"606 580 LINE",
"524 580 LINE",
"524 121 LINE SMOOTH"
);
}
);
width = 657;
}
);
},
{
glyphname = J.alt;
layers = (
{
layerId = "ACB831E3-B1BC-4748-8FBD-8E58483131F2";
paths = (
{
closed = 1;
nodes = (
"506 99 OFFCURVE",
"489 81 OFFCURVE",
"468 81 CURVE SMOOTH",
"3 81 LINE",
"3 0 LINE",
"468 0 LINE SMOOTH",
"534 0 OFFCURVE",
"588 53 OFFCURVE",
"588 120 CURVE SMOOTH",
"588 720 LINE",
"506 720 LINE",
"506 120 LINE SMOOTH"
);
}
);
width = 645;
}
);
},
{
glyphname = J;
layers = (
{
layerId = "ACB831E3-B1BC-4748-8FBD-8E58483131F2";
paths = (
{
closed = 1;
nodes = (
"643 99 OFFCURVE",
"625 81 OFFCURVE",
"604 81 CURVE SMOOTH",
"124 81 LINE SMOOTH",
"103 81 OFFCURVE",
"85 99 OFFCURVE",
"85 120 CURVE SMOOTH",
"85 177 LINE",
"4 177 LINE",
"4 120 LINE SMOOTH",
"4 53 OFFCURVE",
"57 0 OFFCURVE",
"124 0 CURVE SMOOTH",
"604 0 LINE SMOOTH",
"671 0 OFFCURVE",
"724 53 OFFCURVE",
"724 120 CURVE SMOOTH",
"724 720 LINE",
"643 720 LINE",
"643 120 LINE SMOOTH"
);
}
);
width = 780;
}
);
unicode = 004A;
},
{
glyphname = j;
layers = (
{
layerId = "ACB831E3-B1BC-4748-8FBD-8E58483131F2";
paths = (
{
closed = 1;
nodes = (
"97 688 LINE",
"180 688 LINE",
"180 770 LINE",
"97 770 LINE"
);
},
{
closed = 1;
nodes = (
"97 580 LINE",
"97 -121 LINE SMOOTH",
"97 -142 OFFCURVE",
"79 -160 OFFCURVE",
"58 -160 CURVE SMOOTH",
"-187 -160 LINE",
"-187 -243 LINE",
"58 -243 LINE SMOOTH",
"126 -243 OFFCURVE",
"180 -189 OFFCURVE",
"180 -121 CURVE SMOOTH",
"180 580 LINE"
);
}
);
width = 239;
}
);
unicode = 006A;
},
{
glyphname = k;
layers = (
{
layerId = "ACB831E3-B1BC-4748-8FBD-8E58483131F2";
paths = (
{
closed = 1;
nodes = (
"296 331 LINE",
"136 331 LINE",
"136 770 LINE",
"54 770 LINE",
"54 0 LINE",
"136 0 LINE",
"136 249 LINE",
"296 249 LINE",
"524 0 LINE",
"631 0 LINE",
"369 290 LINE",
"632 580 LINE",
"524 580 LINE"
);
}
);
width = 646;
}
);
unicode = 006B;
},
{
glyphname = k.alt;
layers = (
{
layerId = "ACB831E3-B1BC-4748-8FBD-8E58483131F2";
paths = (
{
closed = 1;
nodes = (
"563 580 LINE",
"563 370 LINE SMOOTH",
"563 349 OFFCURVE",
"545 331 OFFCURVE",
"524 331 CURVE SMOOTH",
"136 331 LINE",
"136 770 LINE",
"54 770 LINE",
"54 0 LINE",
"136 0 LINE",
"136 249 LINE",
"524 249 LINE SMOOTH",
"545 249 OFFCURVE",
"563 231 OFFCURVE",
"563 210 CURVE SMOOTH",
"563 0 LINE",
"645 0 LINE",
"645 210 LINE SMOOTH",
"645 236 OFFCURVE",
"634 265 OFFCURVE",
"616 290 CURVE",
"634 315 OFFCURVE",
"645 344 OFFCURVE",
"645 370 CURVE SMOOTH",
"645 580 LINE"
);
}
);
width = 669;
}
);
},
{
glyphname = k.sc;
layers = (
{
layerId = "ACB831E3-B1BC-4748-8FBD-8E58483131F2";
paths = (
{
closed = 1;
nodes = (
"296 331 LINE",
"136 331 LINE",
"136 580 LINE",
"54 580 LINE",
"54 0 LINE",
"136 0 LINE",
"136 249 LINE",
"296 249 LINE",
"524 0 LINE",
"631 0 LINE",
"369 290 LINE",
"632 580 LINE",
"524 580 LINE"
);
}
);
width = 682;
}
);
},
{
glyphname = K;
layers = (
{
layerId = "ACB831E3-B1BC-4748-8FBD-8E58483131F2";
paths = (
{
closed = 1;
nodes = (
"552 616 OFFCURVE",
"458 505 OFFCURVE",
"371 401 CURVE",
"139 401 LINE",
"139 720 LINE",
"57 720 LINE",
"57 0 LINE",
"139 0 LINE",
"139 319 LINE",
"371 319 LINE",
"639 0 LINE",
"744 0 LINE",
"442 360 LINE",
"743 720 LINE",
"639 720 LINE"
);
}
);
width = 797;
}
);
unicode = 004B;
},
{
glyphname = l;
layers = (
{
layerId = "ACB831E3-B1BC-4748-8FBD-8E58483131F2";
paths = (
{
closed = 1;
nodes = (
"52 121 LINE SMOOTH",
"52 54 OFFCURVE",
"106 0 OFFCURVE",
"173 0 CURVE SMOOTH",
"271 0 LINE",
"271 82 LINE",
"173 82 LINE SMOOTH",
"152 82 OFFCURVE",
"134 100 OFFCURVE",
"134 121 CURVE SMOOTH",
"134 770 LINE",
"52 770 LINE"
);
}
);
width = 302;
}
);
unicode = 006C;
},
{
glyphname = l.sc;
layers = (
{
layerId = "ACB831E3-B1BC-4748-8FBD-8E58483131F2";
paths = (
{
closed = 1;
nodes = (
"655 0 LINE",
"655 82 LINE",
"136 82 LINE",
"136 580 LINE",
"54 580 LINE",
"54 0 LINE"
);
}
);
width = 659;
}
);
},
{
glyphname = K.alt;
layers = (
{
layerId = "ACB831E3-B1BC-4748-8FBD-8E58483131F2";
paths = (
{
closed = 1;
nodes = (
"694 415 OFFCURVE",
"676 398 OFFCURVE",
"655 398 CURVE SMOOTH",
"174 398 LINE SMOOTH",
"153 398 OFFCURVE",
"135 415 OFFCURVE",
"135 436 CURVE SMOOTH",
"135 720 LINE",
"54 720 LINE",
"54 0 LINE",
"135 0 LINE",
"135 278 LINE SMOOTH",
"135 298 OFFCURVE",
"153 316 OFFCURVE",
"174 316 CURVE SMOOTH",
"654 316 LINE SMOOTH",
"675 316 OFFCURVE",
"693 298 OFFCURVE",
"693 278 CURVE SMOOTH",
"693 0 LINE",
"774 0 LINE",
"774 257 LINE SMOOTH",
"774 298 OFFCURVE",
"718 357 OFFCURVE",
"636 357 CURVE",
"718 357 OFFCURVE",
"775 414 OFFCURVE",
"775 457 CURVE SMOOTH",
"775 720 LINE",
"694 720 LINE",
"694 436 LINE SMOOTH"
);
}
);
width = 829;
}
);
},
{
glyphname = less;
layers = (
{
layerId = "ACB831E3-B1BC-4748-8FBD-8E58483131F2";
paths = (
{
closed = 1;
nodes = (
"407 481 LINE",
"407 576 LINE",
"5 345 LINE",
"5 248 LINE",
"407 16 LINE",
"407 111 LINE",
"87 296 LINE"
);
}
);
width = 473;
}
);
unicode = 003C;
},
{
glyphname = m;
layers = (
{
layerId = "ACB831E3-B1BC-4748-8FBD-8E58483131F2";
paths = (
{
closed = 1;
nodes = (
"54 0 LINE",
"137 0 LINE",
"137 459 LINE SMOOTH",
"137 480 OFFCURVE",
"155 498 OFFCURVE",
"176 498 CURVE SMOOTH",
"418 498 LINE SMOOTH",
"439 498 OFFCURVE",
"457 480 OFFCURVE",
"457 459 CURVE SMOOTH",
"457 0 LINE",
"540 0 LINE",
"540 459 LINE SMOOTH",
"540 480 OFFCURVE",
"557 498 OFFCURVE",
"579 498 CURVE SMOOTH",
"820 498 LINE SMOOTH",
"842 498 OFFCURVE",
"860 480 OFFCURVE",
"860 459 CURVE SMOOTH",
"860 0 LINE",
"941 0 LINE",
"941 459 LINE SMOOTH",
"941 526 OFFCURVE",
"888 580 OFFCURVE",
"820 580 CURVE SMOOTH",
"54 580 LINE"
);
}
);
width = 978;
}
);
unicode = 006D;
},
{
glyphname = L;
layers = (
{
layerId = "ACB831E3-B1BC-4748-8FBD-8E58483131F2";
paths = (
{
closed = 1;
nodes = (
"777 0 LINE",
"777 81 LINE",
"138 81 LINE",
"138 721 LINE",
"57 721 LINE",
"57 0 LINE"
);
}
);
width = 779;
}
);
unicode = 004C;
},
{
glyphname = m.sc;
layers = (
{
layerId = "ACB831E3-B1BC-4748-8FBD-8E58483131F2";
paths = (
{
closed = 1;
nodes = (
"164 581 LINE",
"54 581 LINE",
"54 0 LINE",
"136 0 LINE",
"136 505 LINE",
"415 107 LINE",
"502 230 OFFCURVE",
"610 384 OFFCURVE",
"695 505 CURVE",
"695 0 LINE",
"777 0 LINE",
"777 581 LINE",
"664 581 LINE",
"415 223 LINE"
);
}
);
width = 824;
}
);
},
{
glyphname = M;
layers = (
{
layerId = "ACB831E3-B1BC-4748-8FBD-8E58483131F2";
paths = (
{
closed = 1;
nodes = (
"167 720 LINE",
"56 720 LINE",
"56 0 LINE",
"137 0 LINE",
"137 628 LINE",
"466 237 LINE",
"795 628 LINE",
"795 0 LINE",
"876 0 LINE",
"876 720 LINE",
"765 720 LINE",
"466 364 LINE"
);
}
);
width = 928;
}
);
unicode = 004D;
},
{
glyphname = minus;
layers = (
{
layerId = "ACB831E3-B1BC-4748-8FBD-8E58483131F2";
paths = (
{
closed = 1;
nodes = (
"59 337 LINE",
"59 255 LINE",
"449 255 LINE",
"449 337 LINE"
);
}
);
width = 517;
}
);
unicode = 2212;
},
{
glyphname = multiply;
layers = (
{
layerId = "ACB831E3-B1BC-4748-8FBD-8E58483131F2";
paths = (
{
closed = 1;
nodes = (
"53 506 LINE",
"104 440 OFFCURVE",
"162 366 OFFCURVE",
"212 301 CURVE",
"54 95 LINE",
"161 95 LINE",
"193 139 OFFCURVE",
"236 197 OFFCURVE",
"266 239 CURVE",
"372 95 LINE",
"478 95 LINE",
"320 301 LINE",
"478 506 LINE",
"372 506 LINE",
"340 462 OFFCURVE",
"297 404 OFFCURVE",
"266 362 CURVE",
"161 506 LINE"
);
}
);
width = 546;
}
);
unicode = 00D7;
},
{
glyphname = M.alt;
layers = (
{
layerId = "ACB831E3-B1BC-4748-8FBD-8E58483131F2";
paths = (
{
closed = 1;
nodes = (
"54 0 LINE",
"136 0 LINE",
"136 639 LINE",
"494 639 LINE SMOOTH",
"515 639 OFFCURVE",
"532 621 OFFCURVE",
"532 600 CURVE SMOOTH",
"532 0 LINE",
"614 0 LINE",
"614 639 LINE",
"997 639 LINE SMOOTH",
"1018 639 OFFCURVE",
"1035 621 OFFCURVE",
"1035 600 CURVE SMOOTH",
"1035 0 LINE",
"1117 0 LINE",
"1117 600 LINE SMOOTH",
"1117 667 OFFCURVE",
"1063 720 OFFCURVE",
"997 720 CURVE SMOOTH",
"54 720 LINE"
);
}
);
width = 1155;
}
);
},
{
glyphname = n;
layers = (
{
layerId = "ACB831E3-B1BC-4748-8FBD-8E58483131F2";
paths = (
{
closed = 1;
nodes = (
"54 0 LINE",
"136 0 LINE",
"136 459 LINE SMOOTH",
"136 480 OFFCURVE",
"154 498 OFFCURVE",
"176 498 CURVE SMOOTH",
"524 498 LINE SMOOTH",
"545 498 OFFCURVE",
"563 480 OFFCURVE",
"563 459 CURVE SMOOTH",
"563 0 LINE",
"645 0 LINE",
"645 459 LINE SMOOTH",
"645 526 OFFCURVE",
"591 580 OFFCURVE",
"524 580 CURVE SMOOTH",
"54 580 LINE"
);
}
);
width = 696;
}
);
unicode = 006E;
},
{
glyphname = n.sc;
layers = (
{
layerId = "ACB831E3-B1BC-4748-8FBD-8E58483131F2";
paths = (
{
closed = 1;
nodes = (
"165 580 LINE",
"54 580 LINE",
"54 0 LINE",
"136 0 LINE",
"136 489 LINE",
"544 0 LINE",
"655 0 LINE",
"655 580 LINE",
"573 580 LINE",
"573 92 LINE"
);
}
);
width = 708;
}
);
},
{
glyphname = N.alt;
layers = (
{
layerId = "ACB831E3-B1BC-4748-8FBD-8E58483131F2";
paths = (
{
closed = 1;
nodes = (
"135 639 LINE",
"654 639 LINE SMOOTH",
"675 639 OFFCURVE",
"693 621 OFFCURVE",
"693 600 CURVE SMOOTH",
"693 0 LINE",
"774 0 LINE",
"774 600 LINE SMOOTH",
"774 667 OFFCURVE",
"721 720 OFFCURVE",
"654 720 CURVE SMOOTH",
"54 720 LINE",
"54 0 LINE",
"135 0 LINE"
);
}
);
width = 827;
}
);
},
{
glyphname = N;
layers = (
{
layerId = "ACB831E3-B1BC-4748-8FBD-8E58483131F2";
paths = (
{
closed = 1;
nodes = (
"167 720 LINE",
"56 720 LINE",
"56 0 LINE",
"137 0 LINE",
"137 628 LINE",
"665 0 LINE",
"776 0 LINE",
"776 720 LINE",
"695 720 LINE",
"695 92 LINE"
);
}
);
width = 832;
}
);
unicode = 004E;
},
{
glyphname = nine.alt;
layers = (
{
layerId = "ACB831E3-B1BC-4748-8FBD-8E58483131F2";
paths = (
{
closed = 1;
nodes = (
"66 719 OFFCURVE",
"12 665 OFFCURVE",
"12 597 CURVE SMOOTH",
"12 424 LINE SMOOTH",
"12 357 OFFCURVE",
"66 303 OFFCURVE",
"134 303 CURVE SMOOTH",
"619 303 LINE SMOOTH",
"640 303 OFFCURVE",
"658 285 OFFCURVE",
"658 264 CURVE SMOOTH",
"658 0 LINE",
"740 0 LINE",
"740 597 LINE SMOOTH",
"740 665 OFFCURVE",
"686 719 OFFCURVE",
"619 719 CURVE SMOOTH",
"134 719 LINE SMOOTH"
);
},
{
closed = 1;
nodes = (
"134 385 LINE SMOOTH",
"113 385 OFFCURVE",
"95 403 OFFCURVE",
"95 424 CURVE SMOOTH",
"95 597 LINE SMOOTH",
"95 618 OFFCURVE",
"113 636 OFFCURVE",
"134 636 CURVE SMOOTH",
"619 636 LINE SMOOTH",
"640 636 OFFCURVE",
"658 618 OFFCURVE",
"658 597 CURVE SMOOTH",
"658 385 LINE"
);
}
);
width = 784;
}
);
},
{
glyphname = ntilde;
layers = (
{
layerId = "ACB831E3-B1BC-4748-8FBD-8E58483131F2";
paths = (
{
closed = 1;
nodes = (
"54 0 LINE",
"136 0 LINE",
"136 459 LINE SMOOTH",
"136 480 OFFCURVE",
"154 498 OFFCURVE",
"176 498 CURVE SMOOTH",
"524 498 LINE SMOOTH",
"545 498 OFFCURVE",
"563 480 OFFCURVE",
"563 459 CURVE SMOOTH",
"563 0 LINE",
"645 0 LINE",
"645 459 LINE SMOOTH",
"645 526 OFFCURVE",
"591 580 OFFCURVE",
"524 580 CURVE SMOOTH",
"54 580 LINE"
);
},
{
closed = 1;
nodes = (
"373 823 OFFCURVE",
"315 885 OFFCURVE",
"240 885 CURVE SMOOTH",
"216 885 OFFCURVE",
"196 882 OFFCURVE",
"178 876 CURVE",
"178 829 LINE",
"198 836 OFFCURVE",
"224 837 OFFCURVE",
"240 837 CURVE SMOOTH",
"322 837 OFFCURVE",
"379 765 OFFCURVE",
"451 765 CURVE SMOOTH",
"475 765 OFFCURVE",
"498 772 OFFCURVE",
"517 779 CURVE",
"517 830 LINE",
"496 820 OFFCURVE",
"474 813 OFFCURVE",
"451 813 CURVE SMOOTH",
"449 813 LINE"
);
}
);
width = 708;
}
);
unicode = 00F1;
},
{
glyphname = Ntilde;
layers = (
{
layerId = "ACB831E3-B1BC-4748-8FBD-8E58483131F2";
paths = (
{
closed = 1;
nodes = (
"167 720 LINE",
"56 720 LINE",
"56 0 LINE",
"137 0 LINE",
"137 628 LINE",
"665 0 LINE",
"776 0 LINE",
"776 720 LINE",
"695 720 LINE",
"695 92 LINE"
);
},
{
closed = 1;
nodes = (
"435 927 OFFCURVE",
"377 989 OFFCURVE",
"302 989 CURVE SMOOTH",
"278 989 OFFCURVE",
"258 986 OFFCURVE",
"240 980 CURVE",
"240 933 LINE",
"260 940 OFFCURVE",
"286 941 OFFCURVE",
"302 941 CURVE SMOOTH",
"384 941 OFFCURVE",
"441 869 OFFCURVE",
"513 869 CURVE SMOOTH",
"537 869 OFFCURVE",
"560 876 OFFCURVE",
"579 883 CURVE",
"579 934 LINE",
"558 924 OFFCURVE",
"536 917 OFFCURVE",
"513 917 CURVE SMOOTH",
"511 917 LINE"
);
}
);
width = 832;
}
);
unicode = 00D1;
},
{
glyphname = numbersign;
layers = (
{
layerId = "ACB831E3-B1BC-4748-8FBD-8E58483131F2";
paths = (
{
closed = 1;
nodes = (
"677 555 LINE",
"734 719 LINE",
"653 719 LINE",
"597 555 LINE",
"336 555 LINE",
"393 719 LINE",
"312 719 LINE",
"256 555 LINE",
"64 555 LINE",
"64 473 LINE",
"230 473 LINE",
"159 253 LINE",
"32 253 LINE",
"32 171 LINE",
"133 171 LINE",
"79 0 LINE",
"161 0 LINE",
"178 55 OFFCURVE",
"198 117 OFFCURVE",
"214 171 CURVE",
"474 171 LINE",
"420 0 LINE",
"502 0 LINE",
"519 55 OFFCURVE",
"539 117 OFFCURVE",
"555 171 CURVE",
"740 171 LINE",
"740 253 LINE",
"581 253 LINE",
"652 473 LINE",
"773 473 LINE",
"773 555 LINE"
);
},
{
closed = 1;
nodes = (
"311 473 LINE",
"571 473 LINE",
"500 253 LINE",
"241 253 LINE"
);
}
);
width = 797;
}
);
unicode = 0023;
},
{
glyphname = o;
layers = (
{
layerId = "ACB831E3-B1BC-4748-8FBD-8E58483131F2";
paths = (
{
closed = 1;
nodes = (
"105 580 OFFCURVE",
"51 526 OFFCURVE",
"51 459 CURVE SMOOTH",
"51 121 LINE SMOOTH",
"51 54 OFFCURVE",
"105 0 OFFCURVE",
"172 0 CURVE SMOOTH",
"520 0 LINE SMOOTH",
"588 0 OFFCURVE",
"642 54 OFFCURVE",
"642 121 CURVE SMOOTH",
"642 459 LINE SMOOTH",
"642 526 OFFCURVE",
"588 580 OFFCURVE",
"520 580 CURVE SMOOTH",
"172 580 LINE SMOOTH"
);
},
{
closed = 1;
nodes = (
"542 498 OFFCURVE",
"559 480 OFFCURVE",
"559 459 CURVE SMOOTH",
"559 121 LINE SMOOTH",
"559 100 OFFCURVE",
"542 82 OFFCURVE",
"520 82 CURVE SMOOTH",
"172 82 LINE SMOOTH",
"151 82 OFFCURVE",
"133 100 OFFCURVE",
"133 121 CURVE SMOOTH",
"133 459 LINE SMOOTH",
"133 480 OFFCURVE",
"151 498 OFFCURVE",
"172 498 CURVE SMOOTH",
"520 498 LINE SMOOTH"
);
}
);
width = 692;
}
);
unicode = 006F;
},
{
glyphname = nine;
layers = (
{
layerId = "ACB831E3-B1BC-4748-8FBD-8E58483131F2";
paths = (
{
closed = 1;
nodes = (
"679 305 OFFCURVE",
"697 287 OFFCURVE",
"697 266 CURVE SMOOTH",
"697 121 LINE SMOOTH",
"697 100 OFFCURVE",
"679 82 OFFCURVE",
"658 82 CURVE SMOOTH",
"58 82 LINE",
"74 34 OFFCURVE",
"120 0 OFFCURVE",
"173 0 CURVE SMOOTH",
"658 0 LINE SMOOTH",
"725 0 OFFCURVE",
"779 54 OFFCURVE",
"779 121 CURVE SMOOTH",
"779 599 LINE SMOOTH",
"779 667 OFFCURVE",
"725 721 OFFCURVE",
"658 721 CURVE SMOOTH",
"173 721 LINE SMOOTH",
"105 721 OFFCURVE",
"51 667 OFFCURVE",
"51 599 CURVE SMOOTH",
"51 426 LINE SMOOTH",
"51 359 OFFCURVE",
"105 305 OFFCURVE",
"173 305 CURVE SMOOTH",
"658 305 LINE SMOOTH"
);
},
{
closed = 1;
nodes = (
"134 620 OFFCURVE",
"152 638 OFFCURVE",
"173 638 CURVE SMOOTH",
"658 638 LINE SMOOTH",
"679 638 OFFCURVE",
"697 620 OFFCURVE",
"697 599 CURVE SMOOTH",
"697 387 LINE",
"173 387 LINE SMOOTH",
"152 387 OFFCURVE",
"134 405 OFFCURVE",
"134 426 CURVE SMOOTH",
"134 599 LINE SMOOTH"
);
}
);
width = 828;
}
);
unicode = 0039;
},
{
glyphname = O.alt;
layers = (
{
layerId = "ACB831E3-B1BC-4748-8FBD-8E58483131F2";
paths = (
{
closed = 1;
nodes = (
"105 720 OFFCURVE",
"52 667 OFFCURVE",
"52 600 CURVE SMOOTH",
"52 120 LINE SMOOTH",
"52 53 OFFCURVE",
"105 0 OFFCURVE",
"172 0 CURVE SMOOTH",
"652 0 LINE SMOOTH",
"719 0 OFFCURVE",
"772 53 OFFCURVE",
"772 120 CURVE SMOOTH",
"772 600 LINE SMOOTH",
"772 667 OFFCURVE",
"719 720 OFFCURVE",
"652 720 CURVE SMOOTH",
"172 720 LINE SMOOTH"
);
},
{
closed = 1;
nodes = (
"691 99 OFFCURVE",
"673 81 OFFCURVE",
"652 81 CURVE SMOOTH",
"172 81 LINE SMOOTH",
"151 81 OFFCURVE",
"133 99 OFFCURVE",
"133 120 CURVE SMOOTH",
"133 600 LINE SMOOTH",
"133 621 OFFCURVE",
"151 639 OFFCURVE",
"172 639 CURVE SMOOTH",
"652 639 LINE SMOOTH",
"673 639 OFFCURVE",
"691 621 OFFCURVE",
"691 600 CURVE SMOOTH",
"691 120 LINE SMOOTH"
);
},
{
closed = 1;
nodes = (
"453 401 LINE",
"371 401 LINE",
"371 319 LINE",
"453 319 LINE"
);
}
);
width = 824;
}
);
},
{
glyphname = O;
layers = (
{
layerId = "ACB831E3-B1BC-4748-8FBD-8E58483131F2";
paths = (
{
closed = 1;
nodes = (
"107 720 OFFCURVE",
"54 667 OFFCURVE",
"54 600 CURVE SMOOTH",
"54 120 LINE SMOOTH",
"54 53 OFFCURVE",
"107 0 OFFCURVE",
"174 0 CURVE SMOOTH",
"654 0 LINE SMOOTH",
"721 0 OFFCURVE",
"774 53 OFFCURVE",
"774 120 CURVE SMOOTH",
"774 600 LINE SMOOTH",
"774 667 OFFCURVE",
"721 720 OFFCURVE",
"654 720 CURVE SMOOTH",
"174 720 LINE SMOOTH"
);
},
{
closed = 1;
nodes = (
"153 81 OFFCURVE",
"135 99 OFFCURVE",
"135 120 CURVE SMOOTH",
"135 600 LINE SMOOTH",
"135 621 OFFCURVE",
"153 639 OFFCURVE",
"174 639 CURVE SMOOTH",
"654 639 LINE SMOOTH",
"675 639 OFFCURVE",
"693 621 OFFCURVE",
"693 600 CURVE SMOOTH",
"693 120 LINE SMOOTH",
"693 99 OFFCURVE",
"675 81 OFFCURVE",
"654 81 CURVE SMOOTH",
"174 81 LINE SMOOTH"
);
}
);
width = 828;
}
);
unicode = 004F;
},
{
glyphname = oacute;
layers = (
{
layerId = "ACB831E3-B1BC-4748-8FBD-8E58483131F2";
paths = (
{
closed = 1;
nodes = (
"105 580 OFFCURVE",
"51 526 OFFCURVE",
"51 459 CURVE SMOOTH",
"51 121 LINE SMOOTH",
"51 54 OFFCURVE",
"105 0 OFFCURVE",
"172 0 CURVE SMOOTH",
"520 0 LINE SMOOTH",
"588 0 OFFCURVE",
"642 54 OFFCURVE",
"642 121 CURVE SMOOTH",
"642 459 LINE SMOOTH",
"642 526 OFFCURVE",
"588 580 OFFCURVE",
"520 580 CURVE SMOOTH",
"172 580 LINE SMOOTH"
);
},
{
closed = 1;
nodes = (
"542 498 OFFCURVE",
"559 480 OFFCURVE",
"559 459 CURVE SMOOTH",
"559 121 LINE SMOOTH",
"559 100 OFFCURVE",
"542 82 OFFCURVE",
"520 82 CURVE SMOOTH",
"172 82 LINE SMOOTH",
"151 82 OFFCURVE",
"133 100 OFFCURVE",
"133 121 CURVE SMOOTH",
"133 459 LINE SMOOTH",
"133 480 OFFCURVE",
"151 498 OFFCURVE",
"172 498 CURVE SMOOTH",
"520 498 LINE SMOOTH"
);
},
{
closed = 1;
nodes = (
"352 764 LINE",
"386 903 LINE",
"307 903 LINE",
"272 764 LINE"
);
}
);
width = 692;
}
);
unicode = 00F3;
},
{
glyphname = o.sc;
layers = (
{
layerId = "ACB831E3-B1BC-4748-8FBD-8E58483131F2";
paths = (
{
closed = 1;
nodes = (
"105 580 OFFCURVE",
"51 526 OFFCURVE",
"51 459 CURVE SMOOTH",
"51 121 LINE SMOOTH",
"51 54 OFFCURVE",
"105 0 OFFCURVE",
"172 0 CURVE SMOOTH",
"520 0 LINE SMOOTH",
"588 0 OFFCURVE",
"642 54 OFFCURVE",
"642 121 CURVE SMOOTH",
"642 459 LINE SMOOTH",
"642 526 OFFCURVE",
"588 580 OFFCURVE",
"520 580 CURVE SMOOTH",
"172 580 LINE SMOOTH"
);
},
{
closed = 1;
nodes = (
"151 82 OFFCURVE",
"133 100 OFFCURVE",
"133 121 CURVE SMOOTH",
"133 459 LINE SMOOTH",
"133 480 OFFCURVE",
"151 498 OFFCURVE",
"172 498 CURVE SMOOTH",
"520 498 LINE SMOOTH",
"542 498 OFFCURVE",
"559 480 OFFCURVE",
"559 459 CURVE SMOOTH",
"559 121 LINE SMOOTH",
"559 100 OFFCURVE",
"542 82 OFFCURVE",
"520 82 CURVE SMOOTH",
"172 82 LINE SMOOTH"
);
}
);
width = 692;
}
);
},
{
glyphname = ocircumflex;
layers = (
{
layerId = "ACB831E3-B1BC-4748-8FBD-8E58483131F2";
paths = (
{
closed = 1;
nodes = (
"105 580 OFFCURVE",
"51 526 OFFCURVE",
"51 459 CURVE SMOOTH",
"51 121 LINE SMOOTH",
"51 54 OFFCURVE",
"105 0 OFFCURVE",
"172 0 CURVE SMOOTH",
"520 0 LINE SMOOTH",
"588 0 OFFCURVE",
"642 54 OFFCURVE",
"642 121 CURVE SMOOTH",
"642 459 LINE SMOOTH",
"642 526 OFFCURVE",
"588 580 OFFCURVE",
"520 580 CURVE SMOOTH",
"172 580 LINE SMOOTH"
);
},
{
closed = 1;
nodes = (
"542 498 OFFCURVE",
"559 480 OFFCURVE",
"559 459 CURVE SMOOTH",
"559 121 LINE SMOOTH",
"559 100 OFFCURVE",
"542 82 OFFCURVE",
"520 82 CURVE SMOOTH",
"172 82 LINE SMOOTH",
"151 82 OFFCURVE",
"133 100 OFFCURVE",
"133 121 CURVE SMOOTH",
"133 459 LINE SMOOTH",
"133 480 OFFCURVE",
"151 498 OFFCURVE",
"172 498 CURVE SMOOTH",
"520 498 LINE SMOOTH"
);
},
{
closed = 1;
nodes = (
"325 848 LINE",
"383 763 LINE",
"425 763 LINE",
"354 880 LINE",
"295 880 LINE",
"224 763 LINE",
"265 763 LINE"
);
}
);
width = 692;
}
);
unicode = 00F4;
},
{
glyphname = Ocircumflex;
layers = (
{
layerId = "ACB831E3-B1BC-4748-8FBD-8E58483131F2";
paths = (
{
closed = 1;
nodes = (
"107 720 OFFCURVE",
"54 667 OFFCURVE",
"54 600 CURVE SMOOTH",
"54 120 LINE SMOOTH",
"54 53 OFFCURVE",
"107 0 OFFCURVE",
"174 0 CURVE SMOOTH",
"654 0 LINE SMOOTH",
"721 0 OFFCURVE",
"774 53 OFFCURVE",
"774 120 CURVE SMOOTH",
"774 600 LINE SMOOTH",
"774 667 OFFCURVE",
"721 720 OFFCURVE",
"654 720 CURVE SMOOTH",
"174 720 LINE SMOOTH"
);
},
{
closed = 1;
nodes = (
"153 81 OFFCURVE",
"135 99 OFFCURVE",
"135 120 CURVE SMOOTH",
"135 600 LINE SMOOTH",
"135 621 OFFCURVE",
"153 639 OFFCURVE",
"174 639 CURVE SMOOTH",
"654 639 LINE SMOOTH",
"675 639 OFFCURVE",
"693 621 OFFCURVE",
"693 600 CURVE SMOOTH",
"693 120 LINE SMOOTH",
"693 99 OFFCURVE",
"675 81 OFFCURVE",
"654 81 CURVE SMOOTH",
"174 81 LINE SMOOTH"
);
},
{
closed = 1;
nodes = (
"393 949 LINE",
"451 864 LINE",
"493 864 LINE",
"422 981 LINE",
"363 981 LINE",
"292 864 LINE",
"333 864 LINE"
);
}
);
width = 828;
}
);
unicode = 00D4;
},
{
glyphname = Oacute;
layers = (
{
layerId = "ACB831E3-B1BC-4748-8FBD-8E58483131F2";
paths = (
{
closed = 1;
nodes = (
"107 720 OFFCURVE",
"54 667 OFFCURVE",
"54 600 CURVE SMOOTH",
"54 120 LINE SMOOTH",
"54 53 OFFCURVE",
"107 0 OFFCURVE",
"174 0 CURVE SMOOTH",
"654 0 LINE SMOOTH",
"721 0 OFFCURVE",
"774 53 OFFCURVE",
"774 120 CURVE SMOOTH",
"774 600 LINE SMOOTH",
"774 667 OFFCURVE",
"721 720 OFFCURVE",
"654 720 CURVE SMOOTH",
"174 720 LINE SMOOTH"
);
},
{
closed = 1;
nodes = (
"153 81 OFFCURVE",
"135 99 OFFCURVE",
"135 120 CURVE SMOOTH",
"135 600 LINE SMOOTH",
"135 621 OFFCURVE",
"153 639 OFFCURVE",
"174 639 CURVE SMOOTH",
"654 639 LINE SMOOTH",
"675 639 OFFCURVE",
"693 621 OFFCURVE",
"693 600 CURVE SMOOTH",
"693 120 LINE SMOOTH",
"693 99 OFFCURVE",
"675 81 OFFCURVE",
"654 81 CURVE SMOOTH",
"174 81 LINE SMOOTH"
);
},
{
closed = 1;
nodes = (
"420 865 LINE",
"454 1004 LINE",
"375 1004 LINE",
"340 865 LINE"
);
}
);
width = 828;
}
);
unicode = 00D3;
},
{
glyphname = Odieresis;
layers = (
{
layerId = "ACB831E3-B1BC-4748-8FBD-8E58483131F2";
paths = (
{
closed = 1;
nodes = (
"107 720 OFFCURVE",
"54 667 OFFCURVE",
"54 600 CURVE SMOOTH",
"54 120 LINE SMOOTH",
"54 53 OFFCURVE",
"107 0 OFFCURVE",
"174 0 CURVE SMOOTH",
"654 0 LINE SMOOTH",
"721 0 OFFCURVE",
"774 53 OFFCURVE",
"774 120 CURVE SMOOTH",
"774 600 LINE SMOOTH",
"774 667 OFFCURVE",
"721 720 OFFCURVE",
"654 720 CURVE SMOOTH",
"174 720 LINE SMOOTH"
);
},
{
closed = 1;
nodes = (
"153 81 OFFCURVE",
"135 99 OFFCURVE",
"135 120 CURVE SMOOTH",
"135 600 LINE SMOOTH",
"135 621 OFFCURVE",
"153 639 OFFCURVE",
"174 639 CURVE SMOOTH",
"654 639 LINE SMOOTH",
"675 639 OFFCURVE",
"693 621 OFFCURVE",
"693 600 CURVE SMOOTH",
"693 120 LINE SMOOTH",
"693 99 OFFCURVE",
"675 81 OFFCURVE",
"654 81 CURVE SMOOTH",
"174 81 LINE SMOOTH"
);
},
{
closed = 1;
nodes = (
"455 947 LINE",
"455 865 LINE",
"537 865 LINE",
"537 947 LINE"
);
},
{
closed = 1;
nodes = (
"275 947 LINE",
"275 865 LINE",
"358 865 LINE",
"358 947 LINE"
);
}
);
width = 828;
}
);
unicode = 00D6;
},
{
glyphname = odieresis;
layers = (
{
layerId = "ACB831E3-B1BC-4748-8FBD-8E58483131F2";
paths = (
{
closed = 1;
nodes = (
"105 580 OFFCURVE",
"51 526 OFFCURVE",
"51 459 CURVE SMOOTH",
"51 121 LINE SMOOTH",
"51 54 OFFCURVE",
"105 0 OFFCURVE",
"172 0 CURVE SMOOTH",
"520 0 LINE SMOOTH",
"588 0 OFFCURVE",
"642 54 OFFCURVE",
"642 121 CURVE SMOOTH",
"642 459 LINE SMOOTH",
"642 526 OFFCURVE",
"588 580 OFFCURVE",
"520 580 CURVE SMOOTH",
"172 580 LINE SMOOTH"
);
},
{
closed = 1;
nodes = (
"542 498 OFFCURVE",
"559 480 OFFCURVE",
"559 459 CURVE SMOOTH",
"559 121 LINE SMOOTH",
"559 100 OFFCURVE",
"542 82 OFFCURVE",
"520 82 CURVE SMOOTH",
"172 82 LINE SMOOTH",
"151 82 OFFCURVE",
"133 100 OFFCURVE",
"133 121 CURVE SMOOTH",
"133 459 LINE SMOOTH",
"133 480 OFFCURVE",
"151 498 OFFCURVE",
"172 498 CURVE SMOOTH",
"520 498 LINE SMOOTH"
);
},
{
closed = 1;
nodes = (
"387 847 LINE",
"387 765 LINE",
"469 765 LINE",
"469 847 LINE"
);
},
{
closed = 1;
nodes = (
"207 847 LINE",
"207 765 LINE",
"290 765 LINE",
"290 847 LINE"
);
}
);
width = 692;
}
);
unicode = 00F6;
},
{
glyphname = OE;
layers = (
{
layerId = "ACB831E3-B1BC-4748-8FBD-8E58483131F2";
paths = (
{
closed = 1;
nodes = (
"1349 639 LINE",
"1349 720 LINE",
"173 720 LINE SMOOTH",
"106 720 OFFCURVE",
"53 667 OFFCURVE",
"53 600 CURVE SMOOTH",
"53 120 LINE SMOOTH",
"53 53 OFFCURVE",
"106 0 OFFCURVE",
"173 0 CURVE SMOOTH",
"1349 0 LINE",
"1349 81 LINE",
"773 81 LINE",
"773 319 LINE",
"1236 319 LINE",
"1236 401 LINE",
"773 401 LINE",
"773 639 LINE"
);
},
{
closed = 1;
nodes = (
"152 81 OFFCURVE",
"134 99 OFFCURVE",
"134 120 CURVE SMOOTH",
"134 600 LINE SMOOTH",
"134 621 OFFCURVE",
"152 639 OFFCURVE",
"173 639 CURVE SMOOTH",
"653 639 LINE SMOOTH",
"674 639 OFFCURVE",
"692 621 OFFCURVE",
"692 600 CURVE SMOOTH",
"692 120 LINE SMOOTH",
"692 99 OFFCURVE",
"674 81 OFFCURVE",
"653 81 CURVE SMOOTH",
"173 81 LINE SMOOTH"
);
}
);
width = 1374;
}
);
unicode = 0152;
},
{
glyphname = oe;
layers = (
{
layerId = "ACB831E3-B1BC-4748-8FBD-8E58483131F2";
paths = (
{
closed = 1;
nodes = (
"1150 459 LINE SMOOTH",
"1150 526 OFFCURVE",
"1097 580 OFFCURVE",
"1029 580 CURVE SMOOTH",
"173 580 LINE SMOOTH",
"105 580 OFFCURVE",
"52 526 OFFCURVE",
"52 459 CURVE SMOOTH",
"52 121 LINE SMOOTH",
"52 54 OFFCURVE",
"105 0 OFFCURVE",
"173 0 CURVE SMOOTH",
"1150 0 LINE",
"1150 82 LINE",
"681 82 LINE SMOOTH",
"660 82 OFFCURVE",
"642 100 OFFCURVE",
"642 121 CURVE SMOOTH",
"642 249 LINE",
"1150 249 LINE"
);
},
{
closed = 1;
nodes = (
"1050 498 OFFCURVE",
"1068 480 OFFCURVE",
"1068 459 CURVE SMOOTH",
"1068 331 LINE",
"642 331 LINE",
"642 459 LINE SMOOTH",
"642 480 OFFCURVE",
"660 498 OFFCURVE",
"681 498 CURVE SMOOTH",
"1029 498 LINE SMOOTH"
);
},
{
closed = 1;
nodes = (
"152 82 OFFCURVE",
"134 100 OFFCURVE",
"134 121 CURVE SMOOTH",
"134 459 LINE SMOOTH",
"134 480 OFFCURVE",
"152 498 OFFCURVE",
"173 498 CURVE SMOOTH",
"521 498 LINE SMOOTH",
"542 498 OFFCURVE",
"560 480 OFFCURVE",
"560 459 CURVE SMOOTH",
"560 121 LINE SMOOTH",
"560 100 OFFCURVE",
"542 82 OFFCURVE",
"521 82 CURVE SMOOTH",
"173 82 LINE SMOOTH"
);
}
);
width = 1177;
}
);
unicode = 0153;
},
{
glyphname = ograve;
layers = (
{
layerId = "ACB831E3-B1BC-4748-8FBD-8E58483131F2";
paths = (
{
closed = 1;
nodes = (
"105 580 OFFCURVE",
"51 526 OFFCURVE",
"51 459 CURVE SMOOTH",
"51 121 LINE SMOOTH",
"51 54 OFFCURVE",
"105 0 OFFCURVE",
"172 0 CURVE SMOOTH",
"520 0 LINE SMOOTH",
"588 0 OFFCURVE",
"642 54 OFFCURVE",
"642 121 CURVE SMOOTH",
"642 459 LINE SMOOTH",
"642 526 OFFCURVE",
"588 580 OFFCURVE",
"520 580 CURVE SMOOTH",
"172 580 LINE SMOOTH"
);
},
{
closed = 1;
nodes = (
"542 498 OFFCURVE",
"559 480 OFFCURVE",
"559 459 CURVE SMOOTH",
"559 121 LINE SMOOTH",
"559 100 OFFCURVE",
"542 82 OFFCURVE",
"520 82 CURVE SMOOTH",
"172 82 LINE SMOOTH",
"151 82 OFFCURVE",
"133 100 OFFCURVE",
"133 121 CURVE SMOOTH",
"133 459 LINE SMOOTH",
"133 480 OFFCURVE",
"151 498 OFFCURVE",
"172 498 CURVE SMOOTH",
"520 498 LINE SMOOTH"
);
},
{
closed = 1;
nodes = (
"272 903 LINE",
"285 852 OFFCURVE",
"294 818 OFFCURVE",
"307 764 CURVE",
"387 764 LINE",
"353 903 LINE"
);
}
);
width = 692;
}
);
unicode = 00F2;
},
{
glyphname = one;
layers = (
{
layerId = "ACB831E3-B1BC-4748-8FBD-8E58483131F2";
paths = (
{
closed = 1;
nodes = (
"108 495 LINE",
"137 531 OFFCURVE",
"192 594 OFFCURVE",
"219 628 CURVE",
"219 0 LINE",
"302 0 LINE",
"302 720 LINE",
"190 720 LINE",
"1 495 LINE"
);
}
);
width = 391;
}
);
unicode = 0031;
},
{
glyphname = Ograve;
layers = (
{
layerId = "ACB831E3-B1BC-4748-8FBD-8E58483131F2";
paths = (
{
closed = 1;
nodes = (
"107 720 OFFCURVE",
"54 667 OFFCURVE",
"54 600 CURVE SMOOTH",
"54 120 LINE SMOOTH",
"54 53 OFFCURVE",
"107 0 OFFCURVE",
"174 0 CURVE SMOOTH",
"654 0 LINE SMOOTH",
"721 0 OFFCURVE",
"774 53 OFFCURVE",
"774 120 CURVE SMOOTH",
"774 600 LINE SMOOTH",
"774 667 OFFCURVE",
"721 720 OFFCURVE",
"654 720 CURVE SMOOTH",
"174 720 LINE SMOOTH"
);
},
{
closed = 1;
nodes = (
"153 81 OFFCURVE",
"135 99 OFFCURVE",
"135 120 CURVE SMOOTH",
"135 600 LINE SMOOTH",
"135 621 OFFCURVE",
"153 639 OFFCURVE",
"174 639 CURVE SMOOTH",
"654 639 LINE SMOOTH",
"675 639 OFFCURVE",
"693 621 OFFCURVE",
"693 600 CURVE SMOOTH",
"693 120 LINE SMOOTH",
"693 99 OFFCURVE",
"675 81 OFFCURVE",
"654 81 CURVE SMOOTH",
"174 81 LINE SMOOTH"
);
},
{
closed = 1;
nodes = (
"340 1004 LINE",
"353 953 OFFCURVE",
"362 919 OFFCURVE",
"375 865 CURVE",
"455 865 LINE",
"421 1004 LINE"
);
}
);
width = 828;
}
);
unicode = 00D2;
},
{
glyphname = otilde;
layers = (
{
layerId = "ACB831E3-B1BC-4748-8FBD-8E58483131F2";
paths = (
{
closed = 1;
nodes = (
"105 580 OFFCURVE",
"51 526 OFFCURVE",
"51 459 CURVE SMOOTH",
"51 121 LINE SMOOTH",
"51 54 OFFCURVE",
"105 0 OFFCURVE",
"172 0 CURVE SMOOTH",
"520 0 LINE SMOOTH",
"588 0 OFFCURVE",
"642 54 OFFCURVE",
"642 121 CURVE SMOOTH",
"642 459 LINE SMOOTH",
"642 526 OFFCURVE",
"588 580 OFFCURVE",
"520 580 CURVE SMOOTH",
"172 580 LINE SMOOTH"
);
},
{
closed = 1;
nodes = (
"542 498 OFFCURVE",
"559 480 OFFCURVE",
"559 459 CURVE SMOOTH",
"559 121 LINE SMOOTH",
"559 100 OFFCURVE",
"542 82 OFFCURVE",
"520 82 CURVE SMOOTH",
"172 82 LINE SMOOTH",
"151 82 OFFCURVE",
"133 100 OFFCURVE",
"133 121 CURVE SMOOTH",
"133 459 LINE SMOOTH",
"133 480 OFFCURVE",
"151 498 OFFCURVE",
"172 498 CURVE SMOOTH",
"520 498 LINE SMOOTH"
);
},
{
closed = 1;
nodes = (
"365 823 OFFCURVE",
"307 885 OFFCURVE",
"232 885 CURVE SMOOTH",
"208 885 OFFCURVE",
"188 882 OFFCURVE",
"170 876 CURVE",
"170 829 LINE",
"190 836 OFFCURVE",
"216 837 OFFCURVE",
"232 837 CURVE SMOOTH",
"314 837 OFFCURVE",
"371 765 OFFCURVE",
"443 765 CURVE SMOOTH",
"467 765 OFFCURVE",
"490 772 OFFCURVE",
"509 779 CURVE",
"509 830 LINE",
"488 820 OFFCURVE",
"466 813 OFFCURVE",
"443 813 CURVE SMOOTH",
"441 813 LINE"
);
}
);
width = 692;
}
);
unicode = 00F5;
},
{
glyphname = p;
layers = (
{
layerId = "ACB831E3-B1BC-4748-8FBD-8E58483131F2";
paths = (
{
closed = 1;
nodes = (
"54 -230 LINE",
"136 -230 LINE",
"136 0 LINE",
"524 0 LINE SMOOTH",
"591 0 OFFCURVE",
"645 54 OFFCURVE",
"645 121 CURVE SMOOTH",
"645 459 LINE SMOOTH",
"645 526 OFFCURVE",
"591 580 OFFCURVE",
"524 580 CURVE SMOOTH",
"54 580 LINE"
);
},
{
closed = 1;
nodes = (
"563 100 OFFCURVE",
"545 82 OFFCURVE",
"524 82 CURVE SMOOTH",
"176 82 LINE SMOOTH",
"154 82 OFFCURVE",
"136 100 OFFCURVE",
"136 121 CURVE SMOOTH",
"136 459 LINE SMOOTH",
"136 480 OFFCURVE",
"154 498 OFFCURVE",
"176 498 CURVE SMOOTH",
"524 498 LINE SMOOTH",
"545 498 OFFCURVE",
"563 480 OFFCURVE",
"563 459 CURVE SMOOTH",
"563 121 LINE SMOOTH"
);
}
);
width = 664;
}
);
unicode = 0070;
},
{
glyphname = p.sc;
layers = (
{
layerId = "ACB831E3-B1BC-4748-8FBD-8E58483131F2";
paths = (
{
closed = 1;
nodes = (
"54 0 LINE",
"136 0 LINE",
"136 212 LINE",
"151 210 OFFCURVE",
"166 208 OFFCURVE",
"176 208 CURVE SMOOTH",
"524 208 LINE SMOOTH",
"591 208 OFFCURVE",
"645 263 OFFCURVE",
"645 329 CURVE SMOOTH",
"645 459 LINE SMOOTH",
"645 525 OFFCURVE",
"591 580 OFFCURVE",
"524 580 CURVE SMOOTH",
"54 580 LINE"
);
},
{
closed = 1;
nodes = (
"563 308 OFFCURVE",
"545 290 OFFCURVE",
"524 290 CURVE SMOOTH",
"176 290 LINE SMOOTH",
"154 290 OFFCURVE",
"136 308 OFFCURVE",
"136 329 CURVE SMOOTH",
"136 459 LINE SMOOTH",
"136 480 OFFCURVE",
"154 498 OFFCURVE",
"176 498 CURVE SMOOTH",
"524 498 LINE SMOOTH",
"545 498 OFFCURVE",
"563 480 OFFCURVE",
"563 459 CURVE SMOOTH",
"563 329 LINE SMOOTH"
);
}
);
width = 660;
}
);
},
{
glyphname = Otilde;
layers = (
{
layerId = "ACB831E3-B1BC-4748-8FBD-8E58483131F2";
paths = (
{
closed = 1;
nodes = (
"107 720 OFFCURVE",
"54 667 OFFCURVE",
"54 600 CURVE SMOOTH",
"54 120 LINE SMOOTH",
"54 53 OFFCURVE",
"107 0 OFFCURVE",
"174 0 CURVE SMOOTH",
"654 0 LINE SMOOTH",
"721 0 OFFCURVE",
"774 53 OFFCURVE",
"774 120 CURVE SMOOTH",
"774 600 LINE SMOOTH",
"774 667 OFFCURVE",
"721 720 OFFCURVE",
"654 720 CURVE SMOOTH",
"174 720 LINE SMOOTH"
);
},
{
closed = 1;
nodes = (
"153 81 OFFCURVE",
"135 99 OFFCURVE",
"135 120 CURVE SMOOTH",
"135 600 LINE SMOOTH",
"135 621 OFFCURVE",
"153 639 OFFCURVE",
"174 639 CURVE SMOOTH",
"654 639 LINE SMOOTH",
"675 639 OFFCURVE",
"693 621 OFFCURVE",
"693 600 CURVE SMOOTH",
"693 120 LINE SMOOTH",
"693 99 OFFCURVE",
"675 81 OFFCURVE",
"654 81 CURVE SMOOTH",
"174 81 LINE SMOOTH"
);
},
{
closed = 1;
nodes = (
"433 927 OFFCURVE",
"375 989 OFFCURVE",
"300 989 CURVE SMOOTH",
"276 989 OFFCURVE",
"256 986 OFFCURVE",
"238 980 CURVE",
"238 933 LINE",
"258 940 OFFCURVE",
"284 941 OFFCURVE",
"300 941 CURVE SMOOTH",
"382 941 OFFCURVE",
"439 869 OFFCURVE",
"511 869 CURVE SMOOTH",
"535 869 OFFCURVE",
"558 876 OFFCURVE",
"577 883 CURVE",
"577 934 LINE",
"556 924 OFFCURVE",
"534 917 OFFCURVE",
"511 917 CURVE SMOOTH",
"509 917 LINE"
);
}
);
width = 828;
}
);
unicode = 00D5;
},
{
glyphname = paragraph;
layers = (
{
layerId = "ACB831E3-B1BC-4748-8FBD-8E58483131F2";
paths = (
{
closed = 1;
nodes = (
"56 326 OFFCURVE",
"109 271 OFFCURVE",
"177 271 CURVE SMOOTH",
"481 271 LINE",
"481 0 LINE",
"563 0 LINE",
"563 271 LINE",
"701 271 LINE",
"701 0 LINE",
"783 0 LINE",
"783 727 LINE",
"177 727 LINE SMOOTH",
"109 727 OFFCURVE",
"56 672 OFFCURVE",
"56 605 CURVE SMOOTH",
"56 392 LINE SMOOTH"
);
},
{
closed = 1;
nodes = (
"701 644 LINE",
"701 353 LINE",
"563 353 LINE",
"563 644 LINE"
);
},
{
closed = 1;
nodes = (
"138 626 OFFCURVE",
"156 644 OFFCURVE",
"177 644 CURVE SMOOTH",
"481 644 LINE",
"481 353 LINE",
"177 353 LINE SMOOTH",
"156 353 OFFCURVE",
"138 371 OFFCURVE",
"138 392 CURVE SMOOTH",
"138 605 LINE SMOOTH"
);
}
);
width = 833;
}
);
unicode = 00B6;
},
{
glyphname = P;
layers = (
{
layerId = "ACB831E3-B1BC-4748-8FBD-8E58483131F2";
paths = (
{
closed = 1;
nodes = (
"56 0 LINE",
"137 0 LINE",
"137 272 LINE",
"152 270 OFFCURVE",
"167 268 OFFCURVE",
"176 268 CURVE SMOOTH",
"656 268 LINE SMOOTH",
"723 268 OFFCURVE",
"776 322 OFFCURVE",
"776 388 CURVE SMOOTH",
"776 599 LINE SMOOTH",
"776 665 OFFCURVE",
"723 719 OFFCURVE",
"656 719 CURVE SMOOTH",
"56 719 LINE"
);
},
{
closed = 1;
nodes = (
"695 367 OFFCURVE",
"677 350 OFFCURVE",
"656 350 CURVE SMOOTH",
"176 350 LINE SMOOTH",
"155 350 OFFCURVE",
"137 367 OFFCURVE",
"137 388 CURVE SMOOTH",
"137 599 LINE SMOOTH",
"137 620 OFFCURVE",
"155 638 OFFCURVE",
"176 638 CURVE SMOOTH",
"656 638 LINE SMOOTH",
"677 638 OFFCURVE",
"695 620 OFFCURVE",
"695 599 CURVE SMOOTH",
"695 388 LINE SMOOTH"
);
}
);
width = 791;
}
);
unicode = 0050;
},
{
glyphname = parenright;
layers = (
{
layerId = "ACB831E3-B1BC-4748-8FBD-8E58483131F2";
paths = (
{
closed = 1;
nodes = (
"84 0 LINE SMOOTH",
"151 0 OFFCURVE",
"206 54 OFFCURVE",
"206 121 CURVE SMOOTH",
"206 598 LINE SMOOTH",
"206 666 OFFCURVE",
"151 720 OFFCURVE",
"84 720 CURVE SMOOTH",
"56 720 LINE",
"56 637 LINE",
"84 637 LINE SMOOTH",
"106 637 OFFCURVE",
"123 619 OFFCURVE",
"123 598 CURVE SMOOTH",
"123 121 LINE SMOOTH",
"123 100 OFFCURVE",
"106 82 OFFCURVE",
"84 82 CURVE SMOOTH",
"56 82 LINE",
"56 0 LINE"
);
}
);
width = 278;
}
);
unicode = 0029;
},
{
glyphname = percent;
layers = (
{
layerId = "ACB831E3-B1BC-4748-8FBD-8E58483131F2";
paths = (
{
closed = 1;
nodes = (
"865 614 LINE",
"865 721 LINE",
"137 108 LINE",
"137 0 LINE"
);
},
{
closed = 1;
nodes = (
"102 720 OFFCURVE",
"48 666 OFFCURVE",
"48 598 CURVE SMOOTH",
"48 514 LINE SMOOTH",
"48 447 OFFCURVE",
"102 393 OFFCURVE",
"170 393 CURVE SMOOTH",
"264 393 LINE SMOOTH",
"332 393 OFFCURVE",
"386 447 OFFCURVE",
"386 514 CURVE SMOOTH",
"386 598 LINE SMOOTH",
"386 666 OFFCURVE",
"332 720 OFFCURVE",
"264 720 CURVE SMOOTH",
"170 720 LINE SMOOTH"
);
},
{
closed = 1;
nodes = (
"127 454 OFFCURVE",
"109 472 OFFCURVE",
"109 493 CURVE SMOOTH",
"109 619 LINE SMOOTH",
"109 641 OFFCURVE",
"127 658 OFFCURVE",
"148 658 CURVE SMOOTH",
"286 658 LINE SMOOTH",
"307 658 OFFCURVE",
"325 641 OFFCURVE",
"325 619 CURVE SMOOTH",
"325 493 LINE SMOOTH",
"325 472 OFFCURVE",
"307 454 OFFCURVE",
"286 454 CURVE SMOOTH",
"148 454 LINE SMOOTH"
);
},
{
closed = 1;
nodes = (
"648 326 OFFCURVE",
"595 272 OFFCURVE",
"595 205 CURVE SMOOTH",
"595 120 LINE SMOOTH",
"595 53 OFFCURVE",
"648 -1 OFFCURVE",
"716 -1 CURVE SMOOTH",
"811 -1 LINE SMOOTH",
"878 -1 OFFCURVE",
"932 53 OFFCURVE",
"932 120 CURVE SMOOTH",
"932 205 LINE SMOOTH",
"932 272 OFFCURVE",
"878 326 OFFCURVE",
"811 326 CURVE SMOOTH",
"716 326 LINE SMOOTH"
);
},
{
closed = 1;
nodes = (
"674 60 OFFCURVE",
"656 78 OFFCURVE",
"656 99 CURVE SMOOTH",
"656 226 LINE SMOOTH",
"656 247 OFFCURVE",
"674 265 OFFCURVE",
"695 265 CURVE SMOOTH",
"832 265 LINE SMOOTH",
"853 265 OFFCURVE",
"871 247 OFFCURVE",
"871 226 CURVE SMOOTH",
"871 99 LINE SMOOTH",
"871 78 OFFCURVE",
"853 60 OFFCURVE",
"832 60 CURVE SMOOTH",
"695 60 LINE SMOOTH"
);
}
);
width = 966;
}
);
unicode = 0025;
},
{
glyphname = period;
layers = (
{
layerId = "ACB831E3-B1BC-4748-8FBD-8E58483131F2";
paths = (
{
closed = 1;
nodes = (
"54 82 LINE",
"54 0 LINE",
"136 0 LINE",
"136 82 LINE"
);
}
);
width = 214;
}
);
unicode = 002E;
},
{
glyphname = plus;
layers = (
{
layerId = "ACB831E3-B1BC-4748-8FBD-8E58483131F2";
paths = (
{
closed = 1;
nodes = (
"169 337 LINE",
"17 337 LINE",
"17 255 LINE",
"169 255 LINE",
"169 100 LINE",
"251 100 LINE",
"251 255 LINE",
"407 255 LINE",
"407 337 LINE",
"251 337 LINE",
"251 490 LINE",
"169 490 LINE"
);
}
);
width = 433;
}
);
unicode = 002B;
},
{
glyphname = parenleft;
layers = (
{
layerId = "ACB831E3-B1BC-4748-8FBD-8E58483131F2";
paths = (
{
closed = 1;
nodes = (
"152 82 OFFCURVE",
"134 100 OFFCURVE",
"134 121 CURVE SMOOTH",
"134 598 LINE SMOOTH",
"134 619 OFFCURVE",
"152 637 OFFCURVE",
"173 637 CURVE SMOOTH",
"202 637 LINE",
"202 720 LINE",
"173 720 LINE SMOOTH",
"106 720 OFFCURVE",
"52 666 OFFCURVE",
"52 598 CURVE SMOOTH",
"52 121 LINE SMOOTH",
"52 54 OFFCURVE",
"106 0 OFFCURVE",
"173 0 CURVE SMOOTH",
"202 0 LINE",
"202 82 LINE",
"173 82 LINE SMOOTH"
);
}
);
width = 277;
}
);
unicode = 0028;
},
{
glyphname = q.sc;
layers = (
{
layerId = "ACB831E3-B1BC-4748-8FBD-8E58483131F2";
paths = (
{
closed = 1;
nodes = (
"640 97 OFFCURVE",
"643 112 OFFCURVE",
"643 121 CURVE SMOOTH",
"643 459 LINE SMOOTH",
"643 526 OFFCURVE",
"589 580 OFFCURVE",
"521 580 CURVE SMOOTH",
"173 580 LINE SMOOTH",
"106 580 OFFCURVE",
"52 526 OFFCURVE",
"52 459 CURVE SMOOTH",
"52 121 LINE SMOOTH",
"52 54 OFFCURVE",
"106 0 OFFCURVE",
"173 0 CURVE SMOOTH",
"737 0 LINE",
"737 82 LINE",
"638 82 LINE"
);
},
{
closed = 1;
nodes = (
"152 82 OFFCURVE",
"134 100 OFFCURVE",
"134 121 CURVE SMOOTH",
"134 459 LINE SMOOTH",
"134 480 OFFCURVE",
"152 498 OFFCURVE",
"173 498 CURVE SMOOTH",
"521 498 LINE SMOOTH",
"542 498 OFFCURVE",
"560 480 OFFCURVE",
"560 459 CURVE SMOOTH",
"560 121 LINE SMOOTH",
"560 100 OFFCURVE",
"542 82 OFFCURVE",
"521 82 CURVE SMOOTH",
"173 82 LINE SMOOTH"
);
}
);
width = 770;
}
);
},
{
glyphname = q;
layers = (
{
layerId = "ACB831E3-B1BC-4748-8FBD-8E58483131F2";
paths = (
{
closed = 1;
nodes = (
"20 54 OFFCURVE",
"74 0 OFFCURVE",
"142 0 CURVE SMOOTH",
"529 0 LINE",
"529 -230 LINE",
"611 -230 LINE",
"611 580 LINE",
"142 580 LINE SMOOTH",
"74 580 OFFCURVE",
"20 526 OFFCURVE",
"20 459 CURVE SMOOTH",
"20 121 LINE SMOOTH"
);
},
{
closed = 1;
nodes = (
"103 480 OFFCURVE",
"120 498 OFFCURVE",
"142 498 CURVE SMOOTH",
"490 498 LINE SMOOTH",
"511 498 OFFCURVE",
"529 480 OFFCURVE",
"529 459 CURVE SMOOTH",
"529 121 LINE SMOOTH",
"529 100 OFFCURVE",
"511 82 OFFCURVE",
"490 82 CURVE SMOOTH",
"142 82 LINE SMOOTH",
"120 82 OFFCURVE",
"103 100 OFFCURVE",
"103 121 CURVE SMOOTH",
"103 459 LINE SMOOTH"
);
}
);
width = 664;
}
);
unicode = 0071;
},
{
glyphname = Q.alt;
layers = (
{
layerId = "ACB831E3-B1BC-4748-8FBD-8E58483131F2";
paths = (
{
closed = 1;
nodes = (
"107 720 OFFCURVE",
"54 667 OFFCURVE",
"54 600 CURVE SMOOTH",
"54 120 LINE SMOOTH",
"54 53 OFFCURVE",
"107 0 OFFCURVE",
"174 0 CURVE SMOOTH",
"373 0 LINE",
"373 -113 LINE",
"455 -113 LINE",
"455 0 LINE",
"654 0 LINE SMOOTH",
"721 0 OFFCURVE",
"774 53 OFFCURVE",
"774 120 CURVE SMOOTH",
"774 600 LINE SMOOTH",
"774 667 OFFCURVE",
"721 720 OFFCURVE",
"654 720 CURVE SMOOTH",
"174 720 LINE SMOOTH"
);
},
{
closed = 1;
nodes = (
"693 99 OFFCURVE",
"675 81 OFFCURVE",
"654 81 CURVE SMOOTH",
"174 81 LINE SMOOTH",
"153 81 OFFCURVE",
"135 99 OFFCURVE",
"135 120 CURVE SMOOTH",
"135 600 LINE SMOOTH",
"135 621 OFFCURVE",
"153 639 OFFCURVE",
"174 639 CURVE SMOOTH",
"654 639 LINE SMOOTH",
"675 639 OFFCURVE",
"693 621 OFFCURVE",
"693 600 CURVE SMOOTH",
"693 120 LINE SMOOTH"
);
}
);
width = 868;
}
);
},
{
glyphname = question.alt;
layers = (
{
layerId = "ACB831E3-B1BC-4748-8FBD-8E58483131F2";
paths = (
{
closed = 1;
nodes = (
"90 720 OFFCURVE",
"41 671 OFFCURVE",
"27 619 CURVE",
"27 523 LINE",
"109 523 LINE",
"109 637 LINE",
"526 637 LINE SMOOTH",
"547 637 OFFCURVE",
"565 619 OFFCURVE",
"565 598 CURVE SMOOTH",
"565 404 LINE SMOOTH",
"565 383 OFFCURVE",
"547 365 OFFCURVE",
"526 365 CURVE SMOOTH",
"326 365 LINE SMOOTH",
"258 365 OFFCURVE",
"204 312 OFFCURVE",
"204 244 CURVE SMOOTH",
"204 151 LINE",
"287 151 LINE",
"287 244 LINE SMOOTH",
"287 265 OFFCURVE",
"304 283 OFFCURVE",
"326 283 CURVE SMOOTH",
"526 283 LINE SMOOTH",
"593 283 OFFCURVE",
"647 337 OFFCURVE",
"647 404 CURVE SMOOTH",
"647 598 LINE SMOOTH",
"647 666 OFFCURVE",
"593 720 OFFCURVE",
"526 720 CURVE SMOOTH",
"146 720 LINE SMOOTH"
);
},
{
closed = 1;
nodes = (
"287 82 LINE",
"204 82 LINE",
"204 0 LINE",
"287 0 LINE"
);
}
);
width = 667;
}
);
},
{
glyphname = Q;
layers = (
{
layerId = "ACB831E3-B1BC-4748-8FBD-8E58483131F2";
paths = (
{
closed = 1;
nodes = (
"772 96 OFFCURVE",
"774 111 OFFCURVE",
"774 120 CURVE SMOOTH",
"774 600 LINE SMOOTH",
"774 667 OFFCURVE",
"721 720 OFFCURVE",
"654 720 CURVE SMOOTH",
"174 720 LINE SMOOTH",
"107 720 OFFCURVE",
"54 667 OFFCURVE",
"54 600 CURVE SMOOTH",
"54 120 LINE SMOOTH",
"54 53 OFFCURVE",
"107 0 OFFCURVE",
"174 0 CURVE SMOOTH",
"868 0 LINE",
"868 81 LINE",
"770 81 LINE"
);
},
{
closed = 1;
nodes = (
"153 81 OFFCURVE",
"135 99 OFFCURVE",
"135 120 CURVE SMOOTH",
"135 600 LINE SMOOTH",
"135 621 OFFCURVE",
"153 639 OFFCURVE",
"174 639 CURVE SMOOTH",
"654 639 LINE SMOOTH",
"675 639 OFFCURVE",
"693 621 OFFCURVE",
"693 600 CURVE SMOOTH",
"693 120 LINE SMOOTH",
"693 99 OFFCURVE",
"675 81 OFFCURVE",
"654 81 CURVE SMOOTH",
"174 81 LINE SMOOTH"
);
}
);
width = 884;
}
);
unicode = 0051;
},
{
glyphname = questiondown;
layers = (
{
layerId = "ACB831E3-B1BC-4748-8FBD-8E58483131F2";
paths = (
{
closed = 1;
nodes = (
"656 -8 OFFCURVE",
"648 16 OFFCURVE",
"648 82 CURVE",
"140 82 LINE SMOOTH",
"119 82 OFFCURVE",
"101 100 OFFCURVE",
"101 121 CURVE SMOOTH",
"101 315 LINE SMOOTH",
"101 336 OFFCURVE",
"119 354 OFFCURVE",
"140 354 CURVE SMOOTH",
"413 354 LINE SMOOTH",
"481 354 OFFCURVE",
"534 408 OFFCURVE",
"534 476 CURVE SMOOTH",
"534 524 LINE",
"452 524 LINE",
"452 476 LINE SMOOTH",
"452 455 OFFCURVE",
"434 437 OFFCURVE",
"413 437 CURVE SMOOTH",
"140 437 LINE SMOOTH",
"72 437 OFFCURVE",
"19 383 OFFCURVE",
"19 315 CURVE SMOOTH",
"19 121 LINE SMOOTH",
"19 54 OFFCURVE",
"72 0 OFFCURVE",
"140 0 CURVE SMOOTH",
"656 -8 LINE"
);
},
{
closed = 1;
nodes = (
"452 728 LINE",
"452 645 LINE",
"534 645 LINE",
"534 728 LINE"
);
}
);
width = 675;
}
);
unicode = 00BF;
},
{
glyphname = question;
layers = (
{
layerId = "ACB831E3-B1BC-4748-8FBD-8E58483131F2";
paths = (
{
closed = 1;
nodes = (
"31 720 OFFCURVE",
"31 701 OFFCURVE",
"31 636 CURVE",
"548 636 LINE SMOOTH",
"569 636 OFFCURVE",
"587 618 OFFCURVE",
"587 597 CURVE SMOOTH",
"587 403 LINE SMOOTH",
"587 382 OFFCURVE",
"569 364 OFFCURVE",
"548 364 CURVE SMOOTH",
"274 364 LINE SMOOTH",
"207 364 OFFCURVE",
"153 311 OFFCURVE",
"153 243 CURVE SMOOTH",
"153 201 LINE",
"235 201 LINE",
"235 243 LINE SMOOTH",
"235 264 OFFCURVE",
"253 282 OFFCURVE",
"274 282 CURVE SMOOTH",
"548 282 LINE SMOOTH",
"615 282 OFFCURVE",
"669 336 OFFCURVE",
"669 403 CURVE SMOOTH",
"669 597 LINE SMOOTH",
"669 665 OFFCURVE",
"615 719 OFFCURVE",
"548 719 CURVE SMOOTH",
"31 720 LINE SMOOTH"
);
},
{
closed = 1;
nodes = (
"235 82 LINE",
"153 82 LINE",
"153 0 LINE",
"235 0 LINE"
);
}
);
width = 678;
}
);
unicode = 003F;
},
{
glyphname = quotedbl;
layers = (
{
layerId = "ACB831E3-B1BC-4748-8FBD-8E58483131F2";
paths = (
{
closed = 1;
nodes = (
"59 720 LINE",
"59 580 LINE",
"141 580 LINE",
"141 720 LINE"
);
},
{
closed = 1;
nodes = (
"214 720 LINE",
"214 580 LINE",
"296 580 LINE",
"296 720 LINE"
);
}
);
width = 372;
}
);
unicode = 0022;
},
{
glyphname = quotedblleft;
layers = (
{
layerId = "ACB831E3-B1BC-4748-8FBD-8E58483131F2";
paths = (
{
closed = 1;
nodes = (
"130 715 LINE",
"81 700 OFFCURVE",
"47 654 OFFCURVE",
"47 600 CURVE SMOOTH",
"47 502 LINE",
"130 502 LINE"
);
},
{
closed = 1;
nodes = (
"310 715 LINE",
"261 700 OFFCURVE",
"228 654 OFFCURVE",
"228 600 CURVE SMOOTH",
"228 502 LINE",
"310 502 LINE"
);
}
);
width = 363;
}
);
unicode = 201C;
},
{
glyphname = quoteleft;
layers = (
{
layerId = "ACB831E3-B1BC-4748-8FBD-8E58483131F2";
paths = (
{
closed = 1;
nodes = (
"116 716 LINE",
"67 701 OFFCURVE",
"33 655 OFFCURVE",
"33 601 CURVE SMOOTH",
"33 503 LINE",
"116 503 LINE"
);
}
);
width = 168;
}
);
unicode = 2018;
},
{
glyphname = quoteright;
layers = (
{
layerId = "ACB831E3-B1BC-4748-8FBD-8E58483131F2";
paths = (
{
closed = 1;
nodes = (
"54 508 LINE",
"102 523 OFFCURVE",
"136 569 OFFCURVE",
"136 623 CURVE SMOOTH",
"136 721 LINE",
"54 721 LINE"
);
}
);
width = 166;
}
);
unicode = 2019;
},
{
glyphname = quotesingle;
layers = (
{
layerId = "ACB831E3-B1BC-4748-8FBD-8E58483131F2";
paths = (
{
closed = 1;
nodes = (
"59 720 LINE",
"59 580 LINE",
"141 580 LINE",
"141 720 LINE"
);
}
);
width = 224;
}
);
unicode = 0027;
},
{
glyphname = quotedblright;
layers = (
{
layerId = "ACB831E3-B1BC-4748-8FBD-8E58483131F2";
paths = (
{
closed = 1;
nodes = (
"235 508 LINE",
"283 523 OFFCURVE",
"317 569 OFFCURVE",
"317 623 CURVE SMOOTH",
"317 721 LINE",
"235 721 LINE"
);
},
{
closed = 1;
nodes = (
"54 508 LINE",
"103 523 OFFCURVE",
"137 569 OFFCURVE",
"137 623 CURVE SMOOTH",
"137 721 LINE",
"54 721 LINE"
);
}
);
width = 363;
}
);
unicode = 201D;
},
{
glyphname = r;
layers = (
{
layerId = "ACB831E3-B1BC-4748-8FBD-8E58483131F2";
paths = (
{
closed = 1;
nodes = (
"106 580 OFFCURVE",
"52 526 OFFCURVE",
"52 459 CURVE SMOOTH",
"52 0 LINE",
"134 0 LINE",
"134 459 LINE SMOOTH",
"134 480 OFFCURVE",
"152 498 OFFCURVE",
"173 498 CURVE SMOOTH",
"499 498 LINE",
"499 580 LINE",
"173 580 LINE SMOOTH"
);
}
);
width = 512;
}
);
unicode = 0072;
},
{
glyphname = R.alt;
layers = (
{
layerId = "ACB831E3-B1BC-4748-8FBD-8E58483131F2";
paths = (
{
closed = 1;
nodes = (
"774 665 OFFCURVE",
"721 719 OFFCURVE",
"654 719 CURVE SMOOTH",
"54 720 LINE",
"54 0 LINE",
"135 0 LINE",
"135 230 LINE SMOOTH",
"135 250 OFFCURVE",
"153 268 OFFCURVE",
"174 268 CURVE SMOOTH",
"654 268 LINE SMOOTH",
"675 268 OFFCURVE",
"693 250 OFFCURVE",
"693 230 CURVE SMOOTH",
"693 0 LINE",
"774 0 LINE",
"774 230 LINE SMOOTH",
"774 287 OFFCURVE",
"696 309 OFFCURVE",
"667 309 CURVE",
"695 309 OFFCURVE",
"774 331 OFFCURVE",
"774 388 CURVE SMOOTH",
"774 599 LINE SMOOTH"
);
},
{
closed = 1;
nodes = (
"675 638 OFFCURVE",
"693 620 OFFCURVE",
"693 599 CURVE SMOOTH",
"693 388 LINE SMOOTH",
"693 367 OFFCURVE",
"675 350 OFFCURVE",
"654 350 CURVE SMOOTH",
"174 350 LINE SMOOTH",
"153 350 OFFCURVE",
"135 367 OFFCURVE",
"135 388 CURVE SMOOTH",
"135 599 LINE SMOOTH",
"135 620 OFFCURVE",
"153 638 OFFCURVE",
"174 638 CURVE SMOOTH",
"654 638 LINE SMOOTH"
);
}
);
width = 826;
}
);
},
{
glyphname = R;
layers = (
{
layerId = "ACB831E3-B1BC-4748-8FBD-8E58483131F2";
paths = (
{
closed = 1;
nodes = (
"775 665 OFFCURVE",
"722 719 OFFCURVE",
"655 719 CURVE SMOOTH",
"55 719 LINE",
"55 0 LINE",
"136 0 LINE",
"136 272 LINE",
"151 270 OFFCURVE",
"165 268 OFFCURVE",
"175 268 CURVE SMOOTH",
"439 268 LINE",
"664 0 LINE",
"771 0 LINE",
"545 268 LINE",
"655 268 LINE SMOOTH",
"722 268 OFFCURVE",
"775 322 OFFCURVE",
"775 388 CURVE SMOOTH",
"775 599 LINE SMOOTH"
);
},
{
closed = 1;
nodes = (
"154 350 OFFCURVE",
"136 367 OFFCURVE",
"136 388 CURVE SMOOTH",
"136 599 LINE SMOOTH",
"136 620 OFFCURVE",
"154 638 OFFCURVE",
"175 638 CURVE SMOOTH",
"655 638 LINE SMOOTH",
"676 638 OFFCURVE",
"693 620 OFFCURVE",
"693 599 CURVE SMOOTH",
"693 388 LINE SMOOTH",
"693 367 OFFCURVE",
"676 350 OFFCURVE",
"655 350 CURVE SMOOTH",
"175 350 LINE SMOOTH"
);
}
);
width = 825;
}
);
unicode = 0052;
},
{
glyphname = r.sc;
layers = (
{
layerId = "ACB831E3-B1BC-4748-8FBD-8E58483131F2";
paths = (
{
closed = 1;
nodes = (
"644 525 OFFCURVE",
"591 580 OFFCURVE",
"523 580 CURVE SMOOTH",
"54 580 LINE",
"54 0 LINE",
"136 0 LINE",
"136 208 LINE",
"314 208 LINE",
"542 0 LINE",
"647 0 LINE",
"416 208 LINE",
"523 208 LINE SMOOTH",
"591 208 OFFCURVE",
"644 263 OFFCURVE",
"644 329 CURVE SMOOTH",
"644 459 LINE SMOOTH"
);
},
{
closed = 1;
nodes = (
"154 290 OFFCURVE",
"136 308 OFFCURVE",
"136 329 CURVE SMOOTH",
"136 459 LINE SMOOTH",
"136 480 OFFCURVE",
"154 498 OFFCURVE",
"175 498 CURVE SMOOTH",
"523 498 LINE SMOOTH",
"544 498 OFFCURVE",
"562 480 OFFCURVE",
"562 459 CURVE SMOOTH",
"562 329 LINE SMOOTH",
"562 308 OFFCURVE",
"544 290 OFFCURVE",
"523 290 CURVE SMOOTH",
"175 290 LINE SMOOTH"
);
}
);
width = 700;
}
);
},
{
glyphname = ring;
layers = (
{
layerId = "ACB831E3-B1BC-4748-8FBD-8E58483131F2";
paths = (
{
closed = 1;
nodes = (
"59 988 OFFCURVE",
"35 964 OFFCURVE",
"35 935 CURVE SMOOTH",
"35 881 LINE SMOOTH",
"35 852 OFFCURVE",
"59 828 OFFCURVE",
"89 828 CURVE SMOOTH",
"145 828 LINE SMOOTH",
"175 828 OFFCURVE",
"199 852 OFFCURVE",
"199 881 CURVE SMOOTH",
"199 935 LINE SMOOTH",
"199 964 OFFCURVE",
"175 988 OFFCURVE",
"145 988 CURVE SMOOTH",
"89 988 LINE SMOOTH"
);
},
{
closed = 1;
nodes = (
"79 868 OFFCURVE",
"75 872 OFFCURVE",
"75 878 CURVE SMOOTH",
"75 938 LINE SMOOTH",
"75 944 OFFCURVE",
"79 948 OFFCURVE",
"84 948 CURVE SMOOTH",
"150 948 LINE SMOOTH",
"155 948 OFFCURVE",
"159 944 OFFCURVE",
"159 938 CURVE SMOOTH",
"159 878 LINE SMOOTH",
"159 872 OFFCURVE",
"155 868 OFFCURVE",
"150 868 CURVE SMOOTH",
"84 868 LINE SMOOTH"
);
}
);
width = 233;
}
);
unicode = 02DA;
},
{
glyphname = s.sc;
layers = (
{
layerId = "ACB831E3-B1BC-4748-8FBD-8E58483131F2";
paths = (
{
closed = 1;
nodes = (
"640 526 OFFCURVE",
"586 580 OFFCURVE",
"518 580 CURVE SMOOTH",
"170 580 LINE SMOOTH",
"103 580 OFFCURVE",
"49 526 OFFCURVE",
"49 459 CURVE SMOOTH",
"49 370 LINE SMOOTH",
"49 303 OFFCURVE",
"103 249 OFFCURVE",
"170 249 CURVE SMOOTH",
"518 249 LINE SMOOTH",
"539 249 OFFCURVE",
"557 231 OFFCURVE",
"557 210 CURVE SMOOTH",
"557 121 LINE SMOOTH",
"557 100 OFFCURVE",
"539 82 OFFCURVE",
"518 82 CURVE SMOOTH",
"170 82 LINE SMOOTH",
"149 82 OFFCURVE",
"131 100 OFFCURVE",
"131 121 CURVE SMOOTH",
"131 139 LINE",
"49 139 LINE",
"49 121 LINE SMOOTH",
"49 54 OFFCURVE",
"103 0 OFFCURVE",
"170 0 CURVE SMOOTH",
"518 0 LINE SMOOTH",
"586 0 OFFCURVE",
"640 54 OFFCURVE",
"640 121 CURVE SMOOTH",
"640 210 LINE SMOOTH",
"640 277 OFFCURVE",
"586 331 OFFCURVE",
"518 331 CURVE SMOOTH",
"170 331 LINE SMOOTH",
"149 331 OFFCURVE",
"131 349 OFFCURVE",
"131 370 CURVE SMOOTH",
"131 459 LINE SMOOTH",
"131 480 OFFCURVE",
"149 498 OFFCURVE",
"170 498 CURVE SMOOTH",
"518 498 LINE SMOOTH",
"539 498 OFFCURVE",
"557 480 OFFCURVE",
"557 459 CURVE SMOOTH",
"557 441 LINE",
"640 441 LINE",
"640 459 LINE SMOOTH"
);
}
);
width = 687;
}
);
},
{
glyphname = s;
layers = (
{
layerId = "ACB831E3-B1BC-4748-8FBD-8E58483131F2";
paths = (
{
closed = 1;
nodes = (
"639 526 OFFCURVE",
"585 580 OFFCURVE",
"517 580 CURVE SMOOTH",
"169 580 LINE SMOOTH",
"102 580 OFFCURVE",
"48 526 OFFCURVE",
"48 459 CURVE SMOOTH",
"48 370 LINE SMOOTH",
"48 303 OFFCURVE",
"102 249 OFFCURVE",
"169 249 CURVE SMOOTH",
"517 249 LINE SMOOTH",
"538 249 OFFCURVE",
"556 231 OFFCURVE",
"556 210 CURVE SMOOTH",
"556 121 LINE SMOOTH",
"556 100 OFFCURVE",
"538 82 OFFCURVE",
"517 82 CURVE SMOOTH",
"169 82 LINE SMOOTH",
"148 82 OFFCURVE",
"130 100 OFFCURVE",
"130 121 CURVE SMOOTH",
"130 129 LINE",
"48 129 LINE",
"48 121 LINE SMOOTH",
"48 54 OFFCURVE",
"102 0 OFFCURVE",
"169 0 CURVE SMOOTH",
"517 0 LINE SMOOTH",
"585 0 OFFCURVE",
"639 54 OFFCURVE",
"639 121 CURVE SMOOTH",
"639 210 LINE SMOOTH",
"639 277 OFFCURVE",
"585 331 OFFCURVE",
"517 331 CURVE SMOOTH",
"169 331 LINE SMOOTH",
"148 331 OFFCURVE",
"130 349 OFFCURVE",
"130 370 CURVE SMOOTH",
"130 459 LINE SMOOTH",
"130 480 OFFCURVE",
"148 498 OFFCURVE",
"169 498 CURVE SMOOTH",
"517 498 LINE SMOOTH",
"538 498 OFFCURVE",
"556 480 OFFCURVE",
"556 459 CURVE SMOOTH",
"556 451 LINE",
"639 451 LINE",
"639 459 LINE SMOOTH"
);
}
);
width = 686;
}
);
unicode = 0073;
},
{
glyphname = S;
layers = (
{
layerId = "ACB831E3-B1BC-4748-8FBD-8E58483131F2";
paths = (
{
closed = 1;
nodes = (
"771 667 OFFCURVE",
"718 720 OFFCURVE",
"651 720 CURVE SMOOTH",
"171 720 LINE SMOOTH",
"104 720 OFFCURVE",
"51 667 OFFCURVE",
"51 600 CURVE SMOOTH",
"51 439 LINE SMOOTH",
"51 373 OFFCURVE",
"104 319 OFFCURVE",
"171 319 CURVE SMOOTH",
"651 319 LINE SMOOTH",
"672 319 OFFCURVE",
"690 302 OFFCURVE",
"690 281 CURVE SMOOTH",
"690 120 LINE SMOOTH",
"690 99 OFFCURVE",
"672 81 OFFCURVE",
"651 81 CURVE SMOOTH",
"171 81 LINE SMOOTH",
"150 81 OFFCURVE",
"132 99 OFFCURVE",
"132 120 CURVE SMOOTH",
"132 148 LINE",
"51 148 LINE",
"51 120 LINE SMOOTH",
"51 53 OFFCURVE",
"104 0 OFFCURVE",
"171 0 CURVE SMOOTH",
"651 0 LINE SMOOTH",
"718 0 OFFCURVE",
"771 53 OFFCURVE",
"771 120 CURVE SMOOTH",
"771 281 LINE SMOOTH",
"771 347 OFFCURVE",
"718 401 OFFCURVE",
"651 401 CURVE SMOOTH",
"171 401 LINE SMOOTH",
"150 401 OFFCURVE",
"132 418 OFFCURVE",
"132 439 CURVE SMOOTH",
"132 600 LINE SMOOTH",
"132 621 OFFCURVE",
"150 639 OFFCURVE",
"171 639 CURVE SMOOTH",
"651 639 LINE SMOOTH",
"672 639 OFFCURVE",
"690 621 OFFCURVE",
"690 600 CURVE SMOOTH",
"690 572 LINE",
"771 572 LINE",
"771 600 LINE SMOOTH"
);
}
);
width = 822;
}
);
unicode = 0053;
},
{
glyphname = scaron;
layers = (
{
layerId = "ACB831E3-B1BC-4748-8FBD-8E58483131F2";
paths = (
{
closed = 1;
nodes = (
"639 526 OFFCURVE",
"585 580 OFFCURVE",
"517 580 CURVE SMOOTH",
"169 580 LINE SMOOTH",
"102 580 OFFCURVE",
"48 526 OFFCURVE",
"48 459 CURVE SMOOTH",
"48 370 LINE SMOOTH",
"48 303 OFFCURVE",
"102 249 OFFCURVE",
"169 249 CURVE SMOOTH",
"517 249 LINE SMOOTH",
"538 249 OFFCURVE",
"556 231 OFFCURVE",
"556 210 CURVE SMOOTH",
"556 121 LINE SMOOTH",
"556 100 OFFCURVE",
"538 82 OFFCURVE",
"517 82 CURVE SMOOTH",
"169 82 LINE SMOOTH",
"148 82 OFFCURVE",
"130 100 OFFCURVE",
"130 121 CURVE SMOOTH",
"130 129 LINE",
"48 129 LINE",
"48 121 LINE SMOOTH",
"48 54 OFFCURVE",
"102 0 OFFCURVE",
"169 0 CURVE SMOOTH",
"517 0 LINE SMOOTH",
"585 0 OFFCURVE",
"639 54 OFFCURVE",
"639 121 CURVE SMOOTH",
"639 210 LINE SMOOTH",
"639 277 OFFCURVE",
"585 331 OFFCURVE",
"517 331 CURVE SMOOTH",
"169 331 LINE SMOOTH",
"148 331 OFFCURVE",
"130 349 OFFCURVE",
"130 370 CURVE SMOOTH",
"130 459 LINE SMOOTH",
"130 480 OFFCURVE",
"148 498 OFFCURVE",
"169 498 CURVE SMOOTH",
"517 498 LINE SMOOTH",
"538 498 OFFCURVE",
"556 480 OFFCURVE",
"556 459 CURVE SMOOTH",
"556 451 LINE",
"639 451 LINE",
"639 459 LINE SMOOTH"
);
},
{
closed = 1;
nodes = (
"293 763 LINE",
"352 763 LINE",
"422 880 LINE",
"381 880 LINE",
"323 795 LINE",
"263 880 LINE",
"221 880 LINE"
);
}
);
width = 687;
}
);
unicode = 0161;
},
{
glyphname = S.alt;
layers = (
{
layerId = "ACB831E3-B1BC-4748-8FBD-8E58483131F2";
paths = (
{
closed = 1;
nodes = (
"145 401 OFFCURVE",
"127 418 OFFCURVE",
"127 439 CURVE SMOOTH",
"127 600 LINE SMOOTH",
"127 621 OFFCURVE",
"145 639 OFFCURVE",
"166 639 CURVE SMOOTH",
"766 639 LINE",
"766 720 LINE",
"166 720 LINE SMOOTH",
"99 720 OFFCURVE",
"46 667 OFFCURVE",
"46 600 CURVE SMOOTH",
"46 439 LINE SMOOTH",
"46 373 OFFCURVE",
"99 319 OFFCURVE",
"166 319 CURVE SMOOTH",
"646 319 LINE SMOOTH",
"667 319 OFFCURVE",
"684 302 OFFCURVE",
"684 281 CURVE SMOOTH",
"684 120 LINE SMOOTH",
"684 99 OFFCURVE",
"667 81 OFFCURVE",
"646 81 CURVE SMOOTH",
"46 81 LINE",
"46 0 LINE",
"646 0 LINE SMOOTH",
"713 0 OFFCURVE",
"766 53 OFFCURVE",
"766 120 CURVE SMOOTH",
"766 281 LINE SMOOTH",
"766 347 OFFCURVE",
"713 401 OFFCURVE",
"646 401 CURVE SMOOTH",
"166 401 LINE SMOOTH"
);
}
);
width = 812;
}
);
},
{
glyphname = semicolon;
layers = (
{
layerId = "ACB831E3-B1BC-4748-8FBD-8E58483131F2";
paths = (
{
closed = 1;
nodes = (
"51 588 LINE",
"51 506 LINE",
"133 506 LINE",
"133 588 LINE"
);
},
{
closed = 1;
nodes = (
"51 -131 LINE",
"99 -115 OFFCURVE",
"133 -70 OFFCURVE",
"133 -16 CURVE SMOOTH",
"133 82 LINE",
"51 82 LINE"
);
}
);
width = 193;
}
);
unicode = 003B;
},
{
glyphname = seven.alt;
layers = (
{
layerId = "ACB831E3-B1BC-4748-8FBD-8E58483131F2";
paths = (
{
closed = 1;
nodes = (
"54 0 LINE",
"50 0 LINE",
"46 -11 LINE"
);
},
{
closed = 1;
nodes = (
"50 638 LINE",
"597 638 LINE",
"54 0 LINE",
"162 0 LINE",
"773 721 LINE",
"50 721 LINE"
);
}
);
width = 771;
}
);
},
{
glyphname = seven;
layers = (
{
layerId = "ACB831E3-B1BC-4748-8FBD-8E58483131F2";
paths = (
{
closed = 1;
nodes = (
"504 638 OFFCURVE",
"522 620 OFFCURVE",
"522 599 CURVE SMOOTH",
"522 0 LINE",
"604 0 LINE",
"604 599 LINE SMOOTH",
"604 667 OFFCURVE",
"550 721 OFFCURVE",
"483 721 CURVE SMOOTH",
"3 721 LINE",
"3 638 LINE",
"483 638 LINE SMOOTH"
);
}
);
width = 660;
}
);
unicode = 0037;
},
{
glyphname = six;
layers = (
{
layerId = "ACB831E3-B1BC-4748-8FBD-8E58483131F2";
paths = (
{
closed = 1;
nodes = (
"157 415 OFFCURVE",
"139 433 OFFCURVE",
"139 455 CURVE SMOOTH",
"139 599 LINE SMOOTH",
"139 620 OFFCURVE",
"157 638 OFFCURVE",
"178 638 CURVE SMOOTH",
"658 638 LINE",
"658 721 LINE",
"178 721 LINE SMOOTH",
"110 721 OFFCURVE",
"57 667 OFFCURVE",
"57 599 CURVE SMOOTH",
"57 121 LINE SMOOTH",
"57 54 OFFCURVE",
"110 0 OFFCURVE",
"178 0 CURVE SMOOTH",
"663 0 LINE SMOOTH",
"730 0 OFFCURVE",
"784 54 OFFCURVE",
"784 121 CURVE SMOOTH",
"784 294 LINE SMOOTH",
"784 362 OFFCURVE",
"730 415 OFFCURVE",
"663 415 CURVE SMOOTH",
"178 415 LINE SMOOTH"
);
},
{
closed = 1;
nodes = (
"702 100 OFFCURVE",
"684 82 OFFCURVE",
"663 82 CURVE SMOOTH",
"178 82 LINE SMOOTH",
"157 82 OFFCURVE",
"139 100 OFFCURVE",
"139 121 CURVE SMOOTH",
"139 333 LINE",
"663 333 LINE SMOOTH",
"684 333 OFFCURVE",
"702 315 OFFCURVE",
"702 294 CURVE SMOOTH",
"702 121 LINE SMOOTH"
);
}
);
width = 820;
}
);
unicode = 0036;
},
{
glyphname = slash;
layers = (
{
layerId = "ACB831E3-B1BC-4748-8FBD-8E58483131F2";
paths = (
{
closed = 1;
nodes = (
"6 0 LINE",
"512 616 LINE",
"512 720 LINE",
"6 106 LINE"
);
}
);
width = 521;
}
);
unicode = 002F;
},
{
glyphname = sterling;
layers = (
{
layerId = "ACB831E3-B1BC-4748-8FBD-8E58483131F2";
paths = (
{
closed = 1;
nodes = (
"691 598 LINE SMOOTH",
"691 666 OFFCURVE",
"637 720 OFFCURVE",
"569 720 CURVE SMOOTH",
"266 720 LINE SMOOTH",
"198 720 OFFCURVE",
"144 666 OFFCURVE",
"144 598 CURVE SMOOTH",
"144 405 LINE",
"39 405 LINE",
"39 323 LINE",
"144 323 LINE",
"144 82 LINE",
"39 82 LINE",
"39 0 LINE",
"691 0 LINE",
"691 82 LINE",
"227 82 LINE",
"227 323 LINE",
"579 323 LINE",
"579 405 LINE",
"227 405 LINE",
"227 598 LINE SMOOTH",
"227 619 OFFCURVE",
"245 637 OFFCURVE",
"266 637 CURVE SMOOTH",
"569 637 LINE SMOOTH",
"591 637 OFFCURVE",
"608 619 OFFCURVE",
"608 598 CURVE SMOOTH",
"608 583 LINE",
"691 583 LINE"
);
}
);
width = 734;
}
);
unicode = 00A3;
},
{
glyphname = t;
layers = (
{
layerId = "ACB831E3-B1BC-4748-8FBD-8E58483131F2";
paths = (
{
closed = 1;
nodes = (
"386 580 LINE",
"135 580 LINE",
"135 770 LINE",
"53 770 LINE",
"53 121 LINE SMOOTH",
"53 54 OFFCURVE",
"106 0 OFFCURVE",
"174 0 CURVE SMOOTH",
"386 0 LINE",
"386 82 LINE",
"174 82 LINE SMOOTH",
"153 82 OFFCURVE",
"135 100 OFFCURVE",
"135 121 CURVE SMOOTH",
"135 498 LINE",
"386 498 LINE"
);
}
);
width = 410;
}
);
unicode = 0074;
},
{
glyphname = Scaron;
layers = (
{
layerId = "ACB831E3-B1BC-4748-8FBD-8E58483131F2";
paths = (
{
closed = 1;
nodes = (
"771 667 OFFCURVE",
"718 720 OFFCURVE",
"651 720 CURVE SMOOTH",
"171 720 LINE SMOOTH",
"104 720 OFFCURVE",
"51 667 OFFCURVE",
"51 600 CURVE SMOOTH",
"51 439 LINE SMOOTH",
"51 373 OFFCURVE",
"104 319 OFFCURVE",
"171 319 CURVE SMOOTH",
"651 319 LINE SMOOTH",
"672 319 OFFCURVE",
"690 302 OFFCURVE",
"690 281 CURVE SMOOTH",
"690 120 LINE SMOOTH",
"690 99 OFFCURVE",
"672 81 OFFCURVE",
"651 81 CURVE SMOOTH",
"171 81 LINE SMOOTH",
"150 81 OFFCURVE",
"132 99 OFFCURVE",
"132 120 CURVE SMOOTH",
"132 148 LINE",
"51 148 LINE",
"51 120 LINE SMOOTH",
"51 53 OFFCURVE",
"104 0 OFFCURVE",
"171 0 CURVE SMOOTH",
"651 0 LINE SMOOTH",
"718 0 OFFCURVE",
"771 53 OFFCURVE",
"771 120 CURVE SMOOTH",
"771 281 LINE SMOOTH",
"771 347 OFFCURVE",
"718 401 OFFCURVE",
"651 401 CURVE SMOOTH",
"171 401 LINE SMOOTH",
"150 401 OFFCURVE",
"132 418 OFFCURVE",
"132 439 CURVE SMOOTH",
"132 600 LINE SMOOTH",
"132 621 OFFCURVE",
"150 639 OFFCURVE",
"171 639 CURVE SMOOTH",
"651 639 LINE SMOOTH",
"672 639 OFFCURVE",
"690 621 OFFCURVE",
"690 600 CURVE SMOOTH",
"690 572 LINE",
"771 572 LINE",
"771 600 LINE SMOOTH"
);
},
{
closed = 1;
nodes = (
"361 864 LINE",
"420 864 LINE",
"490 981 LINE",
"449 981 LINE",
"391 896 LINE",
"331 981 LINE",
"289 981 LINE"
);
}
);
width = 822;
}
);
unicode = 0160;
},
{
glyphname = t.sc;
layers = (
{
layerId = "ACB831E3-B1BC-4748-8FBD-8E58483131F2";
paths = (
{
closed = 1;
nodes = (
"22 498 LINE",
"282 498 LINE",
"282 0 LINE",
"364 0 LINE",
"364 498 LINE",
"623 498 LINE",
"623 580 LINE",
"22 580 LINE"
);
}
);
width = 644;
}
);
},
{
glyphname = T;
layers = (
{
layerId = "ACB831E3-B1BC-4748-8FBD-8E58483131F2";
paths = (
{
closed = 1;
nodes = (
"20 639 LINE",
"340 639 LINE",
"340 0 LINE",
"421 0 LINE",
"421 639 LINE",
"740 639 LINE",
"740 720 LINE",
"20 720 LINE"
);
}
);
width = 759;
}
);
unicode = 0054;
},
{
glyphname = three;
layers = (
{
layerId = "ACB831E3-B1BC-4748-8FBD-8E58483131F2";
paths = (
{
closed = 1;
nodes = (
"744 411 OFFCURVE",
"749 429 OFFCURVE",
"749 448 CURVE SMOOTH",
"749 599 LINE SMOOTH",
"749 667 OFFCURVE",
"696 721 OFFCURVE",
"628 721 CURVE SMOOTH",
"175 721 LINE SMOOTH",
"107 721 OFFCURVE",
"53 667 OFFCURVE",
"53 599 CURVE SMOOTH",
"53 573 LINE",
"136 573 LINE",
"136 599 LINE SMOOTH",
"136 620 OFFCURVE",
"154 638 OFFCURVE",
"175 638 CURVE SMOOTH",
"628 638 LINE SMOOTH",
"649 638 OFFCURVE",
"667 620 OFFCURVE",
"667 599 CURVE SMOOTH",
"667 448 LINE SMOOTH",
"667 427 OFFCURVE",
"649 409 OFFCURVE",
"628 409 CURVE SMOOTH",
"191 409 LINE",
"191 327 LINE",
"660 327 LINE SMOOTH",
"681 327 OFFCURVE",
"699 309 OFFCURVE",
"699 288 CURVE SMOOTH",
"699 121 LINE SMOOTH",
"699 100 OFFCURVE",
"681 82 OFFCURVE",
"660 82 CURVE SMOOTH",
"175 82 LINE SMOOTH",
"154 82 OFFCURVE",
"136 100 OFFCURVE",
"136 121 CURVE SMOOTH",
"136 137 LINE",
"53 137 LINE",
"53 121 LINE SMOOTH",
"53 54 OFFCURVE",
"107 0 OFFCURVE",
"175 0 CURVE SMOOTH",
"660 0 LINE SMOOTH",
"727 0 OFFCURVE",
"781 54 OFFCURVE",
"781 121 CURVE SMOOTH",
"781 288 LINE SMOOTH",
"781 323 OFFCURVE",
"765 356 OFFCURVE",
"741 378 CURVE",
"737 396 LINE"
);
}
);
width = 826;
}
);
unicode = 0033;
},
{
glyphname = two.alt;
layers = (
{
layerId = "ACB831E3-B1BC-4748-8FBD-8E58483131F2";
paths = (
{
closed = 1;
nodes = (
"775 619 LINE",
"760 671 OFFCURVE",
"711 721 OFFCURVE",
"656 721 CURVE SMOOTH",
"171 721 LINE SMOOTH",
"103 721 OFFCURVE",
"49 667 OFFCURVE",
"49 599 CURVE SMOOTH",
"49 557 LINE",
"132 557 LINE",
"132 599 LINE SMOOTH",
"132 620 OFFCURVE",
"150 638 OFFCURVE",
"171 638 CURVE SMOOTH",
"693 638 LINE",
"693 538 LINE",
"49 211 LINE",
"49 172 OFFCURVE",
"50 134 OFFCURVE",
"50 95 CURVE",
"63 43 OFFCURVE",
"112 0 OFFCURVE",
"169 0 CURVE SMOOTH",
"775 0 LINE",
"775 82 LINE",
"132 82 LINE",
"132 160 LINE",
"669 433 LINE",
"775 488 LINE"
);
}
);
width = 815;
}
);
},
{
glyphname = two;
layers = (
{
layerId = "ACB831E3-B1BC-4748-8FBD-8E58483131F2";
paths = (
{
closed = 1;
nodes = (
"110 721 OFFCURVE",
"57 667 OFFCURVE",
"57 599 CURVE SMOOTH",
"57 571 LINE",
"139 571 LINE",
"139 599 LINE SMOOTH",
"139 620 OFFCURVE",
"157 638 OFFCURVE",
"178 638 CURVE SMOOTH",
"663 638 LINE SMOOTH",
"684 638 OFFCURVE",
"702 620 OFFCURVE",
"702 599 CURVE SMOOTH",
"702 430 LINE SMOOTH",
"702 409 OFFCURVE",
"684 391 OFFCURVE",
"663 391 CURVE SMOOTH",
"178 391 LINE SMOOTH",
"110 391 OFFCURVE",
"57 338 OFFCURVE",
"57 270 CURVE SMOOTH",
"57 0 LINE",
"784 0 LINE",
"784 82 LINE",
"178 82 LINE SMOOTH",
"157 82 OFFCURVE",
"139 100 OFFCURVE",
"139 121 CURVE SMOOTH",
"139 270 LINE SMOOTH",
"139 291 OFFCURVE",
"157 309 OFFCURVE",
"178 309 CURVE SMOOTH",
"663 309 LINE SMOOTH",
"730 309 OFFCURVE",
"784 363 OFFCURVE",
"784 430 CURVE SMOOTH",
"784 599 LINE SMOOTH",
"784 667 OFFCURVE",
"730 721 OFFCURVE",
"663 721 CURVE SMOOTH",
"178 721 LINE SMOOTH"
);
}
);
width = 830;
}
);
unicode = 0032;
},
{
glyphname = u;
layers = (
{
layerId = "ACB831E3-B1BC-4748-8FBD-8E58483131F2";
paths = (
{
closed = 1;
nodes = (
"562 121 LINE SMOOTH",
"562 100 OFFCURVE",
"544 82 OFFCURVE",
"522 82 CURVE SMOOTH",
"174 82 LINE SMOOTH",
"153 82 OFFCURVE",
"135 100 OFFCURVE",
"135 121 CURVE SMOOTH",
"135 580 LINE",
"53 580 LINE",
"53 121 LINE SMOOTH",
"53 54 OFFCURVE",
"107 0 OFFCURVE",
"174 0 CURVE SMOOTH",
"522 0 LINE SMOOTH",
"590 0 OFFCURVE",
"644 54 OFFCURVE",
"644 121 CURVE SMOOTH",
"644 580 LINE",
"562 580 LINE"
);
}
);
width = 695;
}
);
unicode = 0075;
},
{
glyphname = u.sc;
layers = (
{
layerId = "ACB831E3-B1BC-4748-8FBD-8E58483131F2";
paths = (
{
closed = 1;
nodes = (
"562 100 OFFCURVE",
"544 82 OFFCURVE",
"522 82 CURVE SMOOTH",
"174 82 LINE SMOOTH",
"153 82 OFFCURVE",
"135 100 OFFCURVE",
"135 121 CURVE SMOOTH",
"135 580 LINE",
"53 580 LINE",
"53 121 LINE SMOOTH",
"53 54 OFFCURVE",
"107 0 OFFCURVE",
"174 0 CURVE SMOOTH",
"522 0 LINE SMOOTH",
"590 0 OFFCURVE",
"644 54 OFFCURVE",
"644 121 CURVE SMOOTH",
"644 580 LINE",
"562 580 LINE",
"562 121 LINE SMOOTH"
);
}
);
width = 695;
}
);
},
{
glyphname = U;
layers = (
{
layerId = "ACB831E3-B1BC-4748-8FBD-8E58483131F2";
paths = (
{
closed = 1;
nodes = (
"693 99 OFFCURVE",
"675 81 OFFCURVE",
"654 81 CURVE SMOOTH",
"174 81 LINE SMOOTH",
"153 81 OFFCURVE",
"135 99 OFFCURVE",
"135 120 CURVE SMOOTH",
"135 720 LINE",
"54 720 LINE",
"54 120 LINE SMOOTH",
"54 53 OFFCURVE",
"107 0 OFFCURVE",
"174 0 CURVE SMOOTH",
"654 0 LINE SMOOTH",
"721 0 OFFCURVE",
"774 53 OFFCURVE",
"774 120 CURVE SMOOTH",
"774 720 LINE",
"693 720 LINE",
"693 120 LINE SMOOTH"
);
}
);
width = 828;
}
);
unicode = 0055;
},
{
glyphname = uacute;
layers = (
{
layerId = "ACB831E3-B1BC-4748-8FBD-8E58483131F2";
paths = (
{
closed = 1;
nodes = (
"562 121 LINE SMOOTH",
"562 100 OFFCURVE",
"544 82 OFFCURVE",
"522 82 CURVE SMOOTH",
"174 82 LINE SMOOTH",
"153 82 OFFCURVE",
"135 100 OFFCURVE",
"135 121 CURVE SMOOTH",
"135 580 LINE",
"53 580 LINE",
"53 121 LINE SMOOTH",
"53 54 OFFCURVE",
"107 0 OFFCURVE",
"174 0 CURVE SMOOTH",
"522 0 LINE SMOOTH",
"590 0 OFFCURVE",
"644 54 OFFCURVE",
"644 121 CURVE SMOOTH",
"644 580 LINE",
"562 580 LINE"
);
},
{
closed = 1;
nodes = (
"353 764 LINE",
"387 903 LINE",
"308 903 LINE",
"273 764 LINE"
);
}
);
width = 695;
}
);
unicode = 00FA;
},
{
glyphname = tilde;
layers = (
{
layerId = "ACB831E3-B1BC-4748-8FBD-8E58483131F2";
paths = (
{
closed = 1;
nodes = (
"218 934 OFFCURVE",
"160 996 OFFCURVE",
"85 996 CURVE SMOOTH",
"61 996 OFFCURVE",
"41 993 OFFCURVE",
"23 987 CURVE",
"23 940 LINE",
"43 947 OFFCURVE",
"69 948 OFFCURVE",
"85 948 CURVE SMOOTH",
"167 948 OFFCURVE",
"224 876 OFFCURVE",
"296 876 CURVE SMOOTH",
"320 876 OFFCURVE",
"343 883 OFFCURVE",
"362 890 CURVE",
"362 941 LINE",
"341 931 OFFCURVE",
"319 924 OFFCURVE",
"296 924 CURVE SMOOTH",
"294 924 LINE"
);
}
);
width = 403;
}
);
unicode = 02DC;
},
{
glyphname = ucircumflex;
layers = (
{
layerId = "ACB831E3-B1BC-4748-8FBD-8E58483131F2";
paths = (
{
closed = 1;
nodes = (
"562 121 LINE SMOOTH",
"562 100 OFFCURVE",
"544 82 OFFCURVE",
"522 82 CURVE SMOOTH",
"174 82 LINE SMOOTH",
"153 82 OFFCURVE",
"135 100 OFFCURVE",
"135 121 CURVE SMOOTH",
"135 580 LINE",
"53 580 LINE",
"53 121 LINE SMOOTH",
"53 54 OFFCURVE",
"107 0 OFFCURVE",
"174 0 CURVE SMOOTH",
"522 0 LINE SMOOTH",
"590 0 OFFCURVE",
"644 54 OFFCURVE",
"644 121 CURVE SMOOTH",
"644 580 LINE",
"562 580 LINE"
);
},
{
closed = 1;
nodes = (
"326 849 LINE",
"384 764 LINE",
"426 764 LINE",
"355 881 LINE",
"296 881 LINE",
"225 764 LINE",
"266 764 LINE"
);
}
);
width = 695;
}
);
unicode = 00FB;
},
{
glyphname = Ucircumflex;
layers = (
{
layerId = "ACB831E3-B1BC-4748-8FBD-8E58483131F2";
paths = (
{
closed = 1;
nodes = (
"693 99 OFFCURVE",
"675 81 OFFCURVE",
"654 81 CURVE SMOOTH",
"174 81 LINE SMOOTH",
"153 81 OFFCURVE",
"135 99 OFFCURVE",
"135 120 CURVE SMOOTH",
"135 720 LINE",
"54 720 LINE",
"54 120 LINE SMOOTH",
"54 53 OFFCURVE",
"107 0 OFFCURVE",
"174 0 CURVE SMOOTH",
"654 0 LINE SMOOTH",
"721 0 OFFCURVE",
"774 53 OFFCURVE",
"774 120 CURVE SMOOTH",
"774 720 LINE",
"693 720 LINE",
"693 120 LINE SMOOTH"
);
},
{
closed = 1;
nodes = (
"393 949 LINE",
"451 864 LINE",
"493 864 LINE",
"422 981 LINE",
"363 981 LINE",
"292 864 LINE",
"333 864 LINE"
);
}
);
width = 828;
}
);
unicode = 00DB;
},
{
glyphname = Uacute;
layers = (
{
layerId = "ACB831E3-B1BC-4748-8FBD-8E58483131F2";
paths = (
{
closed = 1;
nodes = (
"693 99 OFFCURVE",
"675 81 OFFCURVE",
"654 81 CURVE SMOOTH",
"174 81 LINE SMOOTH",
"153 81 OFFCURVE",
"135 99 OFFCURVE",
"135 120 CURVE SMOOTH",
"135 720 LINE",
"54 720 LINE",
"54 120 LINE SMOOTH",
"54 53 OFFCURVE",
"107 0 OFFCURVE",
"174 0 CURVE SMOOTH",
"654 0 LINE SMOOTH",
"721 0 OFFCURVE",
"774 53 OFFCURVE",
"774 120 CURVE SMOOTH",
"774 720 LINE",
"693 720 LINE",
"693 120 LINE SMOOTH"
);
},
{
closed = 1;
nodes = (
"420 865 LINE",
"454 1004 LINE",
"375 1004 LINE",
"340 865 LINE"
);
}
);
width = 828;
}
);
unicode = 00DA;
},
{
glyphname = Udieresis;
layers = (
{
layerId = "ACB831E3-B1BC-4748-8FBD-8E58483131F2";
paths = (
{
closed = 1;
nodes = (
"693 99 OFFCURVE",
"675 81 OFFCURVE",
"654 81 CURVE SMOOTH",
"174 81 LINE SMOOTH",
"153 81 OFFCURVE",
"135 99 OFFCURVE",
"135 120 CURVE SMOOTH",
"135 720 LINE",
"54 720 LINE",
"54 120 LINE SMOOTH",
"54 53 OFFCURVE",
"107 0 OFFCURVE",
"174 0 CURVE SMOOTH",
"654 0 LINE SMOOTH",
"721 0 OFFCURVE",
"774 53 OFFCURVE",
"774 120 CURVE SMOOTH",
"774 720 LINE",
"693 720 LINE",
"693 120 LINE SMOOTH"
);
},
{
closed = 1;
nodes = (
"455 947 LINE",
"455 865 LINE",
"537 865 LINE",
"537 947 LINE"
);
},
{
closed = 1;
nodes = (
"275 947 LINE",
"275 865 LINE",
"358 865 LINE",
"358 947 LINE"
);
}
);
width = 828;
}
);
unicode = 00DC;
},
{
glyphname = ugrave;
layers = (
{
layerId = "ACB831E3-B1BC-4748-8FBD-8E58483131F2";
paths = (
{
closed = 1;
nodes = (
"562 121 LINE SMOOTH",
"562 100 OFFCURVE",
"544 82 OFFCURVE",
"522 82 CURVE SMOOTH",
"174 82 LINE SMOOTH",
"153 82 OFFCURVE",
"135 100 OFFCURVE",
"135 121 CURVE SMOOTH",
"135 580 LINE",
"53 580 LINE",
"53 121 LINE SMOOTH",
"53 54 OFFCURVE",
"107 0 OFFCURVE",
"174 0 CURVE SMOOTH",
"522 0 LINE SMOOTH",
"590 0 OFFCURVE",
"644 54 OFFCURVE",
"644 121 CURVE SMOOTH",
"644 580 LINE",
"562 580 LINE"
);
},
{
closed = 1;
nodes = (
"273 903 LINE",
"286 852 OFFCURVE",
"295 818 OFFCURVE",
"308 764 CURVE",
"388 764 LINE",
"354 903 LINE"
);
}
);
width = 695;
}
);
unicode = 00F9;
},
{
glyphname = Ugrave;
layers = (
{
layerId = "ACB831E3-B1BC-4748-8FBD-8E58483131F2";
paths = (
{
closed = 1;
nodes = (
"693 99 OFFCURVE",
"675 81 OFFCURVE",
"654 81 CURVE SMOOTH",
"174 81 LINE SMOOTH",
"153 81 OFFCURVE",
"135 99 OFFCURVE",
"135 120 CURVE SMOOTH",
"135 720 LINE",
"54 720 LINE",
"54 120 LINE SMOOTH",
"54 53 OFFCURVE",
"107 0 OFFCURVE",
"174 0 CURVE SMOOTH",
"654 0 LINE SMOOTH",
"721 0 OFFCURVE",
"774 53 OFFCURVE",
"774 120 CURVE SMOOTH",
"774 720 LINE",
"693 720 LINE",
"693 120 LINE SMOOTH"
);
},
{
closed = 1;
nodes = (
"340 1004 LINE",
"353 953 OFFCURVE",
"362 919 OFFCURVE",
"375 865 CURVE",
"455 865 LINE",
"421 1004 LINE"
);
}
);
width = 828;
}
);
unicode = 00D9;
},
{
glyphname = underscore;
layers = (
{
layerId = "ACB831E3-B1BC-4748-8FBD-8E58483131F2";
paths = (
{
closed = 1;
nodes = (
"54 0 LINE",
"54 -82 LINE",
"782 -82 LINE",
"782 0 LINE"
);
}
);
width = 828;
}
);
unicode = 005F;
},
{
glyphname = udieresis;
layers = (
{
layerId = "ACB831E3-B1BC-4748-8FBD-8E58483131F2";
paths = (
{
closed = 1;
nodes = (
"562 121 LINE SMOOTH",
"562 100 OFFCURVE",
"544 82 OFFCURVE",
"522 82 CURVE SMOOTH",
"174 82 LINE SMOOTH",
"153 82 OFFCURVE",
"135 100 OFFCURVE",
"135 121 CURVE SMOOTH",
"135 580 LINE",
"53 580 LINE",
"53 121 LINE SMOOTH",
"53 54 OFFCURVE",
"107 0 OFFCURVE",
"174 0 CURVE SMOOTH",
"522 0 LINE SMOOTH",
"590 0 OFFCURVE",
"644 54 OFFCURVE",
"644 121 CURVE SMOOTH",
"644 580 LINE",
"562 580 LINE"
);
},
{
closed = 1;
nodes = (
"388 845 LINE",
"388 763 LINE",
"470 763 LINE",
"470 845 LINE"
);
},
{
closed = 1;
nodes = (
"208 845 LINE",
"208 763 LINE",
"291 763 LINE",
"291 845 LINE"
);
}
);
width = 695;
}
);
unicode = 00FC;
},
{
glyphname = v.alt;
layers = (
{
layerId = "ACB831E3-B1BC-4748-8FBD-8E58483131F2";
paths = (
{
closed = 1;
nodes = (
"562 82 LINE",
"174 82 LINE SMOOTH",
"153 82 OFFCURVE",
"135 100 OFFCURVE",
"135 121 CURVE SMOOTH",
"135 580 LINE",
"53 580 LINE",
"53 121 LINE SMOOTH",
"53 54 OFFCURVE",
"107 0 OFFCURVE",
"174 0 CURVE SMOOTH",
"644 0 LINE",
"644 580 LINE",
"562 580 LINE"
);
}
);
width = 697;
}
);
},
{
glyphname = v;
layers = (
{
layerId = "ACB831E3-B1BC-4748-8FBD-8E58483131F2";
paths = (
{
closed = 1;
nodes = (
"389 80 LINE",
"117 580 LINE",
"21 580 LINE",
"127 386 OFFCURVE",
"235 195 OFFCURVE",
"341 0 CURVE",
"436 0 LINE",
"757 580 LINE",
"661 580 LINE"
);
}
);
width = 790;
}
);
unicode = 0076;
},
{
glyphname = V.alt;
layers = (
{
layerId = "ACB831E3-B1BC-4748-8FBD-8E58483131F2";
paths = (
{
closed = 1;
nodes = (
"54 0 LINE",
"166 0 LINE",
"777 721 LINE",
"670 721 LINE",
"502 519 OFFCURVE",
"304 293 OFFCURVE",
"137 93 CURVE",
"137 721 LINE",
"54 721 LINE"
);
}
);
width = 774;
}
);
},
{
glyphname = V.alt2;
layers = (
{
layerId = "ACB831E3-B1BC-4748-8FBD-8E58483131F2";
paths = (
{
closed = 1;
nodes = (
"107 720 LINE",
"0 720 LINE",
"605 0 LINE",
"716 0 LINE",
"716 720 LINE",
"635 720 LINE",
"635 92 LINE"
);
}
);
width = 774;
}
);
},
{
glyphname = V.alt3;
layers = (
{
layerId = "ACB831E3-B1BC-4748-8FBD-8E58483131F2";
paths = (
{
closed = 1;
nodes = (
"692 81 LINE",
"173 81 LINE SMOOTH",
"152 81 OFFCURVE",
"134 99 OFFCURVE",
"134 120 CURVE SMOOTH",
"134 720 LINE",
"53 720 LINE",
"53 120 LINE SMOOTH",
"53 53 OFFCURVE",
"106 0 OFFCURVE",
"173 0 CURVE SMOOTH",
"773 0 LINE",
"773 720 LINE",
"692 720 LINE"
);
}
);
width = 827;
}
);
},
{
glyphname = v.sc;
layers = (
{
layerId = "ACB831E3-B1BC-4748-8FBD-8E58483131F2";
paths = (
{
closed = 1;
nodes = (
"118 580 LINE",
"21 580 LINE",
"129 386 OFFCURVE",
"239 195 OFFCURVE",
"348 0 CURVE",
"442 0 LINE",
"768 580 LINE",
"672 580 LINE",
"395 81 LINE"
);
}
);
width = 801;
}
);
},
{
glyphname = V;
layers = (
{
layerId = "ACB831E3-B1BC-4748-8FBD-8E58483131F2";
paths = (
{
closed = 1;
nodes = (
"130 720 LINE",
"35 720 LINE",
"173 478 OFFCURVE",
"312 242 OFFCURVE",
"452 0 CURVE",
"546 0 LINE",
"689 248 OFFCURVE",
"819 471 OFFCURVE",
"962 720 CURVE",
"867 720 LINE",
"499 79 LINE"
);
}
);
width = 1003;
}
);
unicode = 0056;
},
{
glyphname = w.alt;
layers = (
{
layerId = "ACB831E3-B1BC-4748-8FBD-8E58483131F2";
paths = (
{
closed = 1;
nodes = (
"940 580 LINE",
"858 580 LINE",
"858 121 LINE SMOOTH",
"858 100 OFFCURVE",
"840 82 OFFCURVE",
"819 82 CURVE SMOOTH",
"576 82 LINE SMOOTH",
"555 82 OFFCURVE",
"537 100 OFFCURVE",
"537 121 CURVE SMOOTH",
"537 580 LINE",
"455 580 LINE",
"455 121 LINE SMOOTH",
"455 100 OFFCURVE",
"437 82 OFFCURVE",
"416 82 CURVE SMOOTH",
"175 82 LINE SMOOTH",
"153 82 OFFCURVE",
"135 100 OFFCURVE",
"135 121 CURVE SMOOTH",
"135 580 LINE",
"53 580 LINE",
"53 121 LINE SMOOTH",
"53 54 OFFCURVE",
"107 0 OFFCURVE",
"175 0 CURVE SMOOTH",
"940 0 LINE"
);
}
);
width = 978;
}
);
},
{
glyphname = w.sc;
layers = (
{
layerId = "ACB831E3-B1BC-4748-8FBD-8E58483131F2";
paths = (
{
closed = 1;
nodes = (
"913 446 OFFCURVE",
"847 282 OFFCURVE",
"796 150 CURVE",
"593 580 LINE",
"493 580 LINE",
"301 149 LINE",
"122 580 LINE",
"34 580 LINE",
"113 381 OFFCURVE",
"186 199 OFFCURVE",
"266 0 CURVE",
"338 0 LINE",
"543 467 LINE",
"759 0 LINE",
"831 0 LINE",
"908 199 OFFCURVE",
"975 380 OFFCURVE",
"1052 580 CURVE",
"964 580 LINE"
);
}
);
width = 1078;
}
);
},
{
glyphname = W.alt;
layers = (
{
layerId = "ACB831E3-B1BC-4748-8FBD-8E58483131F2";
paths = (
{
closed = 1;
nodes = (
"896 518 OFFCURVE",
"699 293 OFFCURVE",
"531 93 CURVE",
"531 442 LINE",
"770 720 LINE",
"665 720 LINE",
"496 518 OFFCURVE",
"299 293 OFFCURVE",
"131 93 CURVE",
"131 720 LINE",
"49 720 LINE",
"49 0 LINE",
"161 0 LINE",
"449 343 LINE",
"449 0 LINE",
"561 0 LINE",
"1171 720 LINE",
"1065 720 LINE"
);
}
);
width = 1171;
}
);
},
{
glyphname = w;
layers = (
{
layerId = "ACB831E3-B1BC-4748-8FBD-8E58483131F2";
paths = (
{
closed = 1;
nodes = (
"793 149 LINE",
"594 580 LINE",
"486 580 LINE",
"299 148 LINE",
"123 580 LINE",
"35 580 LINE",
"112 384 OFFCURVE",
"185 197 OFFCURVE",
"263 0 CURVE",
"335 0 LINE",
"540 479 LINE",
"756 0 LINE",
"827 0 LINE",
"1046 580 LINE",
"957 580 LINE"
);
}
);
width = 1071;
}
);
unicode = 0077;
},
{
glyphname = W.alt3;
layers = (
{
layerId = "ACB831E3-B1BC-4748-8FBD-8E58483131F2";
paths = (
{
closed = 1;
nodes = (
"872 0 LINE",
"983 0 LINE",
"983 720 LINE",
"901 720 LINE",
"901 92 LINE",
"518 549 LINE",
"135 92 LINE",
"135 720 LINE",
"54 720 LINE",
"54 0 LINE",
"164 0 LINE",
"518 421 LINE"
);
}
);
width = 1028;
}
);
},
{
glyphname = W.alt4;
layers = (
{
layerId = "ACB831E3-B1BC-4748-8FBD-8E58483131F2";
paths = (
{
closed = 1;
nodes = (
"1116 720 LINE",
"1034 720 LINE",
"1034 81 LINE",
"676 81 LINE SMOOTH",
"655 81 OFFCURVE",
"638 99 OFFCURVE",
"638 120 CURVE SMOOTH",
"638 720 LINE",
"556 720 LINE",
"556 81 LINE",
"173 81 LINE SMOOTH",
"153 81 OFFCURVE",
"135 99 OFFCURVE",
"135 120 CURVE SMOOTH",
"135 720 LINE",
"53 720 LINE",
"53 120 LINE SMOOTH",
"53 53 OFFCURVE",
"107 0 OFFCURVE",
"173 0 CURVE SMOOTH",
"1116 0 LINE"
);
}
);
width = 1155;
}
);
},
{
glyphname = W;
layers = (
{
layerId = "ACB831E3-B1BC-4748-8FBD-8E58483131F2";
paths = (
{
closed = 1;
nodes = (
"996 541 OFFCURVE",
"914 319 OFFCURVE",
"851 142 CURVE",
"640 720 LINE",
"542 720 LINE",
"477 541 OFFCURVE",
"396 319 OFFCURVE",
"332 142 CURVE",
"121 720 LINE",
"35 720 LINE",
"297 0 LINE",
"367 0 LINE",
"591 615 LINE",
"815 0 LINE",
"886 0 LINE",
"1148 720 LINE",
"1060 720 LINE"
);
}
);
width = 1179;
}
);
unicode = 0057;
},
{
glyphname = W.alt2;
layers = (
{
layerId = "ACB831E3-B1BC-4748-8FBD-8E58483131F2";
paths = (
{
closed = 1;
nodes = (
"724 0 LINE",
"724 343 LINE",
"1012 0 LINE",
"1123 0 LINE",
"1123 720 LINE",
"1041 720 LINE",
"1041 93 LINE",
"507 720 LINE",
"401 720 LINE",
"641 442 LINE",
"641 93 LINE",
"108 720 LINE",
"0 720 LINE",
"612 0 LINE"
);
}
);
width = 1168;
}
);
},
{
glyphname = x.alt;
layers = (
{
layerId = "ACB831E3-B1BC-4748-8FBD-8E58483131F2";
paths = (
{
closed = 1;
nodes = (
"563 580 LINE",
"563 370 LINE SMOOTH",
"563 349 OFFCURVE",
"545 331 OFFCURVE",
"524 331 CURVE SMOOTH",
"176 331 LINE SMOOTH",
"154 331 OFFCURVE",
"136 349 OFFCURVE",
"136 370 CURVE SMOOTH",
"136 580 LINE",
"54 580 LINE",
"54 370 LINE SMOOTH",
"54 344 OFFCURVE",
"65 315 OFFCURVE",
"83 290 CURVE",
"65 265 OFFCURVE",
"54 236 OFFCURVE",
"54 210 CURVE SMOOTH",
"54 0 LINE",
"136 0 LINE",
"136 210 LINE SMOOTH",
"136 231 OFFCURVE",
"154 249 OFFCURVE",
"176 249 CURVE SMOOTH",
"524 249 LINE SMOOTH",
"545 249 OFFCURVE",
"563 231 OFFCURVE",
"563 210 CURVE SMOOTH",
"563 0 LINE",
"645 0 LINE",
"645 210 LINE SMOOTH",
"645 236 OFFCURVE",
"634 265 OFFCURVE",
"616 290 CURVE",
"634 315 OFFCURVE",
"645 344 OFFCURVE",
"645 370 CURVE SMOOTH",
"645 580 LINE"
);
}
);
width = 698;
}
);
},
{
glyphname = x.sc;
layers = (
{
layerId = "ACB831E3-B1BC-4748-8FBD-8E58483131F2";
paths = (
{
closed = 1;
nodes = (
"342 361 LINE",
"154 580 LINE",
"46 580 LINE",
"288 296 LINE",
"46 0 LINE",
"154 0 LINE",
"213 73 OFFCURVE",
"284 162 OFFCURVE",
"342 233 CURVE",
"531 0 LINE",
"639 0 LINE",
"396 296 LINE",
"638 580 LINE",
"530 580 LINE"
);
}
);
width = 692;
}
);
},
{
glyphname = x;
layers = (
{
layerId = "ACB831E3-B1BC-4748-8FBD-8E58483131F2";
paths = (
{
closed = 1;
nodes = (
"473 513 OFFCURVE",
"398 426 OFFCURVE",
"342 360 CURVE",
"154 580 LINE",
"46 580 LINE",
"288 295 LINE",
"46 0 LINE",
"154 0 LINE",
"213 72 OFFCURVE",
"284 161 OFFCURVE",
"342 232 CURVE",
"531 0 LINE",
"639 0 LINE",
"396 295 LINE",
"638 580 LINE",
"531 580 LINE"
);
}
);
width = 692;
}
);
unicode = 0078;
},
{
glyphname = X.alt;
layers = (
{
layerId = "ACB831E3-B1BC-4748-8FBD-8E58483131F2";
paths = (
{
closed = 1;
nodes = (
"694 436 LINE SMOOTH",
"694 415 OFFCURVE",
"676 398 OFFCURVE",
"655 398 CURVE SMOOTH",
"174 398 LINE SMOOTH",
"153 398 OFFCURVE",
"135 415 OFFCURVE",
"135 436 CURVE SMOOTH",
"135 720 LINE",
"54 720 LINE",
"54 457 LINE SMOOTH",
"54 406 OFFCURVE",
"120 357 OFFCURVE",
"193 357 CURVE",
"120 357 OFFCURVE",
"55 308 OFFCURVE",
"55 257 CURVE SMOOTH",
"55 0 LINE",
"136 0 LINE",
"136 278 LINE SMOOTH",
"136 298 OFFCURVE",
"154 316 OFFCURVE",
"175 316 CURVE SMOOTH",
"654 316 LINE SMOOTH",
"675 316 OFFCURVE",
"693 298 OFFCURVE",
"693 278 CURVE SMOOTH",
"693 0 LINE",
"774 0 LINE",
"774 257 LINE SMOOTH",
"774 308 OFFCURVE",
"708 357 OFFCURVE",
"636 357 CURVE",
"708 357 OFFCURVE",
"775 406 OFFCURVE",
"775 457 CURVE SMOOTH",
"775 720 LINE",
"694 720 LINE"
);
}
);
width = 829;
}
);
},
{
glyphname = X;
layers = (
{
layerId = "ACB831E3-B1BC-4748-8FBD-8E58483131F2";
paths = (
{
closed = 1;
nodes = (
"401 423 LINE",
"150 720 LINE",
"46 720 LINE",
"348 360 LINE",
"46 0 LINE",
"150 0 LINE",
"401 297 LINE",
"651 0 LINE",
"756 0 LINE",
"656 117 OFFCURVE",
"550 243 OFFCURVE",
"453 360 CURVE",
"755 720 LINE",
"651 720 LINE"
);
}
);
width = 812;
}
);
unicode = 0058;
},
{
glyphname = y.sc;
layers = (
{
layerId = "ACB831E3-B1BC-4748-8FBD-8E58483131F2";
paths = (
{
closed = 1;
nodes = (
"331 297 LINE",
"114 580 LINE",
"18 580 LINE",
"290 200 LINE",
"290 0 LINE",
"373 0 LINE",
"373 200 LINE",
"645 580 LINE",
"548 580 LINE"
);
}
);
width = 688;
}
);
},
{
glyphname = Y.alt;
layers = (
{
layerId = "ACB831E3-B1BC-4748-8FBD-8E58483131F2";
paths = (
{
closed = 1;
nodes = (
"690 401 LINE",
"171 401 LINE SMOOTH",
"150 401 OFFCURVE",
"132 418 OFFCURVE",
"132 439 CURVE SMOOTH",
"132 720 LINE",
"51 720 LINE",
"51 439 LINE SMOOTH",
"51 373 OFFCURVE",
"104 319 OFFCURVE",
"171 319 CURVE SMOOTH",
"651 319 LINE SMOOTH",
"672 319 OFFCURVE",
"690 302 OFFCURVE",
"690 281 CURVE SMOOTH",
"690 120 LINE SMOOTH",
"690 99 OFFCURVE",
"672 81 OFFCURVE",
"651 81 CURVE SMOOTH",
"51 81 LINE",
"51 0 LINE",
"651 0 LINE SMOOTH",
"718 0 OFFCURVE",
"771 53 OFFCURVE",
"771 120 CURVE SMOOTH",
"771 720 LINE",
"690 720 LINE"
);
}
);
width = 824;
}
);
},
{
glyphname = y;
layers = (
{
layerId = "ACB831E3-B1BC-4748-8FBD-8E58483131F2";
paths = (
{
closed = 1;
nodes = (
"550 578 LINE",
"550 121 LINE SMOOTH",
"550 100 OFFCURVE",
"532 82 OFFCURVE",
"511 82 CURVE SMOOTH",
"163 82 LINE SMOOTH",
"142 82 OFFCURVE",
"124 100 OFFCURVE",
"124 121 CURVE SMOOTH",
"124 578 LINE",
"42 578 LINE",
"42 121 LINE SMOOTH",
"42 54 OFFCURVE",
"96 0 OFFCURVE",
"163 0 CURVE SMOOTH",
"550 0 LINE",
"550 -108 LINE SMOOTH",
"550 -129 OFFCURVE",
"532 -147 OFFCURVE",
"511 -147 CURVE SMOOTH",
"149 -147 LINE",
"149 -230 LINE",
"511 -230 LINE SMOOTH",
"579 -230 OFFCURVE",
"632 -176 OFFCURVE",
"632 -108 CURVE SMOOTH",
"632 578 LINE"
);
}
);
width = 685;
}
);
unicode = 0079;
},
{
glyphname = yacute;
layers = (
{
layerId = "ACB831E3-B1BC-4748-8FBD-8E58483131F2";
paths = (
{
closed = 1;
nodes = (
"550 578 LINE",
"550 121 LINE SMOOTH",
"550 100 OFFCURVE",
"532 82 OFFCURVE",
"511 82 CURVE SMOOTH",
"163 82 LINE SMOOTH",
"142 82 OFFCURVE",
"124 100 OFFCURVE",
"124 121 CURVE SMOOTH",
"124 578 LINE",
"42 578 LINE",
"42 121 LINE SMOOTH",
"42 54 OFFCURVE",
"96 0 OFFCURVE",
"163 0 CURVE SMOOTH",
"550 0 LINE",
"550 -108 LINE SMOOTH",
"550 -129 OFFCURVE",
"532 -147 OFFCURVE",
"511 -147 CURVE SMOOTH",
"149 -147 LINE",
"149 -230 LINE",
"511 -230 LINE SMOOTH",
"579 -230 OFFCURVE",
"632 -176 OFFCURVE",
"632 -108 CURVE SMOOTH",
"632 578 LINE"
);
},
{
closed = 1;
nodes = (
"350 764 LINE",
"384 903 LINE",
"305 903 LINE",
"270 764 LINE"
);
}
);
width = 688;
}
);
unicode = 00FD;
},
{
glyphname = Yacute;
layers = (
{
layerId = "ACB831E3-B1BC-4748-8FBD-8E58483131F2";
paths = (
{
closed = 1;
nodes = (
"577 608 OFFCURVE",
"476 480 OFFCURVE",
"389 368 CURVE",
"110 720 LINE",
"17 720 LINE",
"126 573 OFFCURVE",
"241 418 OFFCURVE",
"348 271 CURVE",
"348 0 LINE",
"429 0 LINE",
"429 271 LINE",
"760 720 LINE",
"665 720 LINE"
);
},
{
closed = 1;
nodes = (
"409 865 LINE",
"443 1004 LINE",
"364 1004 LINE",
"329 865 LINE"
);
}
);
width = 806;
}
);
unicode = 00DD;
},
{
glyphname = Y;
layers = (
{
layerId = "ACB831E3-B1BC-4748-8FBD-8E58483131F2";
paths = (
{
closed = 1;
nodes = (
"577 608 OFFCURVE",
"476 480 OFFCURVE",
"389 368 CURVE",
"110 720 LINE",
"17 720 LINE",
"126 573 OFFCURVE",
"241 418 OFFCURVE",
"348 271 CURVE",
"348 0 LINE",
"429 0 LINE",
"429 271 LINE",
"760 720 LINE",
"665 720 LINE"
);
}
);
width = 806;
}
);
unicode = 0059;
},
{
glyphname = Ydieresis;
layers = (
{
layerId = "ACB831E3-B1BC-4748-8FBD-8E58483131F2";
paths = (
{
closed = 1;
nodes = (
"577 608 OFFCURVE",
"476 480 OFFCURVE",
"389 368 CURVE",
"110 720 LINE",
"17 720 LINE",
"126 573 OFFCURVE",
"241 418 OFFCURVE",
"348 271 CURVE",
"348 0 LINE",
"429 0 LINE",
"429 271 LINE",
"760 720 LINE",
"665 720 LINE"
);
},
{
closed = 1;
nodes = (
"444 947 LINE",
"444 865 LINE",
"526 865 LINE",
"526 947 LINE"
);
},
{
closed = 1;
nodes = (
"264 947 LINE",
"264 865 LINE",
"347 865 LINE",
"347 947 LINE"
);
}
);
width = 806;
}
);
unicode = 0178;
},
{
glyphname = z.alt;
layers = (
{
layerId = "ACB831E3-B1BC-4748-8FBD-8E58483131F2";
paths = (
{
closed = 1;
nodes = (
"588 249 OFFCURVE",
"642 303 OFFCURVE",
"642 370 CURVE SMOOTH",
"642 459 LINE SMOOTH",
"642 526 OFFCURVE",
"588 580 OFFCURVE",
"520 580 CURVE SMOOTH",
"51 580 LINE",
"51 498 LINE",
"520 498 LINE SMOOTH",
"542 498 OFFCURVE",
"559 480 OFFCURVE",
"559 459 CURVE SMOOTH",
"559 370 LINE SMOOTH",
"559 349 OFFCURVE",
"542 331 OFFCURVE",
"520 331 CURVE SMOOTH",
"172 331 LINE SMOOTH",
"105 331 OFFCURVE",
"51 277 OFFCURVE",
"51 210 CURVE SMOOTH",
"51 121 LINE SMOOTH",
"51 54 OFFCURVE",
"105 0 OFFCURVE",
"172 0 CURVE SMOOTH",
"642 0 LINE",
"642 82 LINE",
"172 82 LINE SMOOTH",
"151 82 OFFCURVE",
"133 100 OFFCURVE",
"133 121 CURVE SMOOTH",
"133 210 LINE SMOOTH",
"133 231 OFFCURVE",
"151 249 OFFCURVE",
"172 249 CURVE SMOOTH",
"520 249 LINE SMOOTH"
);
}
);
width = 692;
}
);
},
{
glyphname = ydieresis;
layers = (
{
layerId = "ACB831E3-B1BC-4748-8FBD-8E58483131F2";
paths = (
{
closed = 1;
nodes = (
"550 578 LINE",
"550 121 LINE SMOOTH",
"550 100 OFFCURVE",
"532 82 OFFCURVE",
"511 82 CURVE SMOOTH",
"163 82 LINE SMOOTH",
"142 82 OFFCURVE",
"124 100 OFFCURVE",
"124 121 CURVE SMOOTH",
"124 578 LINE",
"42 578 LINE",
"42 121 LINE SMOOTH",
"42 54 OFFCURVE",
"96 0 OFFCURVE",
"163 0 CURVE SMOOTH",
"550 0 LINE",
"550 -108 LINE SMOOTH",
"550 -129 OFFCURVE",
"532 -147 OFFCURVE",
"511 -147 CURVE SMOOTH",
"149 -147 LINE",
"149 -230 LINE",
"511 -230 LINE SMOOTH",
"579 -230 OFFCURVE",
"632 -176 OFFCURVE",
"632 -108 CURVE SMOOTH",
"632 578 LINE"
);
},
{
closed = 1;
nodes = (
"385 847 LINE",
"385 765 LINE",
"467 765 LINE",
"467 847 LINE"
);
},
{
closed = 1;
nodes = (
"205 847 LINE",
"205 765 LINE",
"288 765 LINE",
"288 847 LINE"
);
}
);
width = 688;
}
);
unicode = 00FF;
},
{
glyphname = z;
layers = (
{
layerId = "ACB831E3-B1BC-4748-8FBD-8E58483131F2";
paths = (
{
closed = 1;
nodes = (
"555 498 LINE",
"54 112 LINE",
"54 0 LINE",
"645 0 LINE",
"645 82 LINE",
"144 82 LINE",
"645 468 LINE",
"645 580 LINE",
"54 580 LINE",
"54 498 LINE"
);
}
);
width = 698;
}
);
unicode = 007A;
},
{
glyphname = z.sc;
layers = (
{
layerId = "ACB831E3-B1BC-4748-8FBD-8E58483131F2";
paths = (
{
closed = 1;
nodes = (
"555 498 LINE",
"54 112 LINE",
"54 0 LINE",
"645 0 LINE",
"645 82 LINE",
"144 82 LINE",
"645 468 LINE",
"645 580 LINE",
"54 580 LINE",
"54 498 LINE"
);
}
);
width = 698;
}
);
},
{
glyphname = Z;
layers = (
{
layerId = "ACB831E3-B1BC-4748-8FBD-8E58483131F2";
paths = (
{
closed = 1;
nodes = (
"679 639 LINE",
"51 111 LINE",
"51 0 LINE",
"771 0 LINE",
"771 81 LINE",
"143 81 LINE",
"771 609 LINE",
"771 720 LINE",
"51 720 LINE",
"51 639 LINE"
);
}
);
width = 821;
}
);
unicode = 005A;
},
{
glyphname = Z.alt;
layers = (
{
layerId = "ACB831E3-B1BC-4748-8FBD-8E58483131F2";
paths = (
{
closed = 1;
nodes = (
"102 401 OFFCURVE",
"49 347 OFFCURVE",
"49 281 CURVE SMOOTH",
"49 120 LINE SMOOTH",
"49 53 OFFCURVE",
"102 0 OFFCURVE",
"169 0 CURVE SMOOTH",
"769 0 LINE",
"769 81 LINE",
"169 81 LINE SMOOTH",
"148 81 OFFCURVE",
"130 99 OFFCURVE",
"130 120 CURVE SMOOTH",
"130 281 LINE SMOOTH",
"130 302 OFFCURVE",
"148 319 OFFCURVE",
"169 319 CURVE SMOOTH",
"649 319 LINE SMOOTH",
"716 319 OFFCURVE",
"769 373 OFFCURVE",
"769 439 CURVE SMOOTH",
"769 600 LINE SMOOTH",
"769 667 OFFCURVE",
"716 720 OFFCURVE",
"649 720 CURVE SMOOTH",
"49 720 LINE",
"49 639 LINE",
"649 639 LINE SMOOTH",
"670 639 OFFCURVE",
"687 621 OFFCURVE",
"687 600 CURVE SMOOTH",
"687 439 LINE SMOOTH",
"687 418 OFFCURVE",
"670 401 OFFCURVE",
"649 401 CURVE SMOOTH",
"169 401 LINE SMOOTH"
);
}
);
width = 818;
}
);
},
{
glyphname = zcaron;
layers = (
{
layerId = "ACB831E3-B1BC-4748-8FBD-8E58483131F2";
paths = (
{
closed = 1;
nodes = (
"555 498 LINE",
"54 112 LINE",
"54 0 LINE",
"645 0 LINE",
"645 82 LINE",
"144 82 LINE",
"645 468 LINE",
"645 580 LINE",
"54 580 LINE",
"54 498 LINE"
);
},
{
closed = 1;
nodes = (
"299 766 LINE",
"358 766 LINE",
"428 883 LINE",
"387 883 LINE",
"329 798 LINE",
"269 883 LINE",
"227 883 LINE"
);
}
);
width = 698;
}
);
unicode = 017E;
},
{
glyphname = Zcaron;
layers = (
{
layerId = "ACB831E3-B1BC-4748-8FBD-8E58483131F2";
paths = (
{
closed = 1;
nodes = (
"679 639 LINE",
"51 111 LINE",
"51 0 LINE",
"771 0 LINE",
"771 81 LINE",
"143 81 LINE",
"771 609 LINE",
"771 720 LINE",
"51 720 LINE",
"51 639 LINE"
);
},
{
closed = 1;
nodes = (
"360 864 LINE",
"419 864 LINE",
"489 981 LINE",
"448 981 LINE",
"390 896 LINE",
"330 981 LINE",
"288 981 LINE"
);
}
);
width = 821;
}
);
unicode = 017D;
},
{
glyphname = zero;
layers = (
{
layerId = "ACB831E3-B1BC-4748-8FBD-8E58483131F2";
paths = (
{
closed = 1;
nodes = (
"110 720 OFFCURVE",
"57 666 OFFCURVE",
"57 598 CURVE SMOOTH",
"57 121 LINE SMOOTH",
"57 54 OFFCURVE",
"110 0 OFFCURVE",
"178 0 CURVE SMOOTH",
"663 0 LINE SMOOTH",
"730 0 OFFCURVE",
"784 54 OFFCURVE",
"784 121 CURVE SMOOTH",
"784 598 LINE SMOOTH",
"784 666 OFFCURVE",
"730 720 OFFCURVE",
"663 720 CURVE SMOOTH",
"178 720 LINE SMOOTH"
);
},
{
closed = 1;
nodes = (
"139 181 LINE",
"139 598 LINE SMOOTH",
"139 619 OFFCURVE",
"157 637 OFFCURVE",
"178 637 CURVE SMOOTH",
"691 637 LINE"
);
},
{
closed = 1;
nodes = (
"702 538 LINE",
"702 121 LINE SMOOTH",
"702 100 OFFCURVE",
"684 82 OFFCURVE",
"663 82 CURVE SMOOTH",
"149 82 LINE"
);
}
